<mxfile host="app.diagrams.net" agent="Mozilla/5.0 (X11; Linux x86_64; rv:133.0) Gecko/20100101 Firefox/133.0" version="25.0.3" pages="8">
  <diagram name="GBPUSD" id="BbSxssQzb4WoP3wDunCL">
    <mxGraphModel dx="1674" dy="792" grid="1" gridSize="10" guides="1" tooltips="1" connect="1" arrows="1" fold="1" page="1" pageScale="1" pageWidth="1700" pageHeight="1100" math="0" shadow="0">
      <root>
        <mxCell id="0" />
        <mxCell id="1" parent="0" />
        <mxCell id="jvyVlgBArIjrGOAw--vj-1" value="&lt;b&gt;Fundamental Factors that drives GBPUSD higher (Case from 15th Aug 2024 into 30th Aug 2024)&lt;/b&gt;" style="text;html=1;align=center;verticalAlign=middle;whiteSpace=wrap;rounded=0;" vertex="1" parent="1">
          <mxGeometry x="60" y="40" width="590" height="30" as="geometry" />
        </mxCell>
        <mxCell id="jvyVlgBArIjrGOAw--vj-4" style="edgeStyle=orthogonalEdgeStyle;rounded=0;orthogonalLoop=1;jettySize=auto;html=1;exitX=1;exitY=0.5;exitDx=0;exitDy=0;" edge="1" parent="1" source="jvyVlgBArIjrGOAw--vj-2" target="jvyVlgBArIjrGOAw--vj-3">
          <mxGeometry relative="1" as="geometry" />
        </mxCell>
        <mxCell id="jvyVlgBArIjrGOAw--vj-2" value="&lt;div&gt;Lower Unemployment Rate in UK&lt;/div&gt;&lt;div&gt;(Compared to US)&lt;br&gt;&lt;/div&gt;" style="rounded=1;whiteSpace=wrap;html=1;" vertex="1" parent="1">
          <mxGeometry x="100" y="130" width="200" height="60" as="geometry" />
        </mxCell>
        <mxCell id="jvyVlgBArIjrGOAw--vj-6" style="edgeStyle=orthogonalEdgeStyle;rounded=0;orthogonalLoop=1;jettySize=auto;html=1;exitX=1;exitY=0.5;exitDx=0;exitDy=0;entryX=0;entryY=0.5;entryDx=0;entryDy=0;" edge="1" parent="1" source="jvyVlgBArIjrGOAw--vj-3" target="jvyVlgBArIjrGOAw--vj-5">
          <mxGeometry relative="1" as="geometry" />
        </mxCell>
        <mxCell id="jvyVlgBArIjrGOAw--vj-3" value="&lt;div&gt;Growing Inflation Rate in UK&lt;/div&gt;&lt;div&gt;(Compared to US)&lt;br&gt;&lt;/div&gt;" style="rounded=1;whiteSpace=wrap;html=1;" vertex="1" parent="1">
          <mxGeometry x="430" y="130" width="200" height="60" as="geometry" />
        </mxCell>
        <mxCell id="jvyVlgBArIjrGOAw--vj-8" style="edgeStyle=orthogonalEdgeStyle;rounded=0;orthogonalLoop=1;jettySize=auto;html=1;exitX=1;exitY=0.5;exitDx=0;exitDy=0;entryX=0;entryY=0.5;entryDx=0;entryDy=0;" edge="1" parent="1" source="jvyVlgBArIjrGOAw--vj-5" target="jvyVlgBArIjrGOAw--vj-7">
          <mxGeometry relative="1" as="geometry" />
        </mxCell>
        <mxCell id="jvyVlgBArIjrGOAw--vj-5" value="&lt;div&gt;Growing GDP Rate YoY in UK&lt;/div&gt;&lt;div&gt;(Compared to US)&lt;br&gt;&lt;/div&gt;" style="rounded=1;whiteSpace=wrap;html=1;" vertex="1" parent="1">
          <mxGeometry x="760" y="130" width="200" height="60" as="geometry" />
        </mxCell>
        <mxCell id="jvyVlgBArIjrGOAw--vj-7" value="&lt;div&gt;Dovish tone from Fed Powell&lt;/div&gt;&lt;div&gt;(Strong USD)&lt;br&gt;&lt;/div&gt;" style="rounded=1;whiteSpace=wrap;html=1;" vertex="1" parent="1">
          <mxGeometry x="1090" y="130" width="200" height="60" as="geometry" />
        </mxCell>
        <mxCell id="jvyVlgBArIjrGOAw--vj-9" value="&lt;b&gt;Signal Nearing the Bullish Correction for GBPUSD&lt;br&gt;&lt;/b&gt;" style="text;html=1;align=center;verticalAlign=middle;whiteSpace=wrap;rounded=0;" vertex="1" parent="1">
          <mxGeometry x="50" y="250" width="330" height="30" as="geometry" />
        </mxCell>
        <mxCell id="jvyVlgBArIjrGOAw--vj-10" value="&lt;div&gt;Growing US GDP (QoQ and YoY)&lt;/div&gt;&lt;div&gt;(QoQ on UK was lower despite YoY was higher)&lt;br&gt;&lt;/div&gt;" style="rounded=1;whiteSpace=wrap;html=1;" vertex="1" parent="1">
          <mxGeometry x="1000" y="320" width="290" height="60" as="geometry" />
        </mxCell>
        <mxCell id="jvyVlgBArIjrGOAw--vj-14" style="edgeStyle=orthogonalEdgeStyle;rounded=0;orthogonalLoop=1;jettySize=auto;html=1;exitX=1;exitY=0.5;exitDx=0;exitDy=0;" edge="1" parent="1" source="jvyVlgBArIjrGOAw--vj-11" target="jvyVlgBArIjrGOAw--vj-13">
          <mxGeometry relative="1" as="geometry" />
        </mxCell>
        <mxCell id="jvyVlgBArIjrGOAw--vj-11" value="Growing New Home Sales in US" style="rounded=1;whiteSpace=wrap;html=1;" vertex="1" parent="1">
          <mxGeometry x="90" y="320" width="200" height="60" as="geometry" />
        </mxCell>
        <mxCell id="jvyVlgBArIjrGOAw--vj-16" style="edgeStyle=orthogonalEdgeStyle;rounded=0;orthogonalLoop=1;jettySize=auto;html=1;exitX=1;exitY=0.5;exitDx=0;exitDy=0;" edge="1" parent="1" source="jvyVlgBArIjrGOAw--vj-13" target="jvyVlgBArIjrGOAw--vj-15">
          <mxGeometry relative="1" as="geometry" />
        </mxCell>
        <mxCell id="jvyVlgBArIjrGOAw--vj-13" value="Growing CB Consumer Confidence in US" style="rounded=1;whiteSpace=wrap;html=1;" vertex="1" parent="1">
          <mxGeometry x="400" y="320" width="180" height="60" as="geometry" />
        </mxCell>
        <mxCell id="jvyVlgBArIjrGOAw--vj-17" style="edgeStyle=orthogonalEdgeStyle;rounded=0;orthogonalLoop=1;jettySize=auto;html=1;exitX=1;exitY=0.5;exitDx=0;exitDy=0;" edge="1" parent="1" source="jvyVlgBArIjrGOAw--vj-15" target="jvyVlgBArIjrGOAw--vj-10">
          <mxGeometry relative="1" as="geometry" />
        </mxCell>
        <mxCell id="jvyVlgBArIjrGOAw--vj-15" value="Lower Unemployment Claims in the US" style="rounded=1;whiteSpace=wrap;html=1;" vertex="1" parent="1">
          <mxGeometry x="700" y="320" width="180" height="60" as="geometry" />
        </mxCell>
        <mxCell id="jvyVlgBArIjrGOAw--vj-20" value="&lt;div&gt;&lt;b&gt;despite both are growing in percentage from last year,&lt;/b&gt;&lt;/div&gt;&lt;div&gt;&lt;b&gt;US GDP is defeating the UK GDP in percentage number&lt;/b&gt;&lt;/div&gt;&lt;div&gt;&lt;b&gt;(3.0% vs 2.4%)&lt;br&gt;&lt;/b&gt;&lt;/div&gt;" style="text;html=1;align=center;verticalAlign=middle;whiteSpace=wrap;rounded=0;" vertex="1" parent="1">
          <mxGeometry x="970" y="400" width="350" height="30" as="geometry" />
        </mxCell>
      </root>
    </mxGraphModel>
  </diagram>
  <diagram id="-f3GyROM-2BPH_SMdlTu" name="New Zealand">
    <mxGraphModel dx="1674" dy="792" grid="1" gridSize="10" guides="1" tooltips="1" connect="1" arrows="1" fold="1" page="1" pageScale="1" pageWidth="1700" pageHeight="1100" math="0" shadow="0">
      <root>
        <mxCell id="0" />
        <mxCell id="1" parent="0" />
        <mxCell id="YFd-6-W39YbFu1xFPXJk-4" style="edgeStyle=orthogonalEdgeStyle;rounded=0;orthogonalLoop=1;jettySize=auto;html=1;exitX=1;exitY=0.5;exitDx=0;exitDy=0;" edge="1" parent="1" source="YFd-6-W39YbFu1xFPXJk-1" target="YFd-6-W39YbFu1xFPXJk-3">
          <mxGeometry relative="1" as="geometry" />
        </mxCell>
        <mxCell id="YFd-6-W39YbFu1xFPXJk-5" value="predict next month" style="edgeLabel;html=1;align=center;verticalAlign=middle;resizable=0;points=[];" vertex="1" connectable="0" parent="YFd-6-W39YbFu1xFPXJk-4">
          <mxGeometry x="-0.037" y="-1" relative="1" as="geometry">
            <mxPoint as="offset" />
          </mxGeometry>
        </mxCell>
        <mxCell id="YFd-6-W39YbFu1xFPXJk-1" value="Higher Unemployment Rate" style="rounded=1;whiteSpace=wrap;html=1;" vertex="1" parent="1">
          <mxGeometry x="110" y="120" width="180" height="60" as="geometry" />
        </mxCell>
        <mxCell id="YFd-6-W39YbFu1xFPXJk-2" value="6th Nov" style="text;html=1;align=center;verticalAlign=middle;whiteSpace=wrap;rounded=0;" vertex="1" parent="1">
          <mxGeometry x="90" y="90" width="60" height="30" as="geometry" />
        </mxCell>
        <mxCell id="YFd-6-W39YbFu1xFPXJk-3" value="Lower GDP QoQ and YoY" style="rounded=1;whiteSpace=wrap;html=1;" vertex="1" parent="1">
          <mxGeometry x="610" y="120" width="180" height="60" as="geometry" />
        </mxCell>
        <mxCell id="YFd-6-W39YbFu1xFPXJk-6" value="19th Dec" style="text;html=1;align=center;verticalAlign=middle;whiteSpace=wrap;rounded=0;" vertex="1" parent="1">
          <mxGeometry x="590" y="90" width="60" height="30" as="geometry" />
        </mxCell>
        <mxCell id="YFd-6-W39YbFu1xFPXJk-7" value="" style="shape=image;verticalLabelPosition=bottom;labelBackgroundColor=default;verticalAlign=top;aspect=fixed;imageAspect=0;image=data:image/png,iVBORw0KGgoAAAANSUhEUgAAARMAAACtCAIAAAAcfAxeAAAAA3NCSVQICAjb4U/gAAAbzElEQVR4Xu1dCZgU1bW+tXT19DIrCAMYAxggCWpERGUZFXdFVASRiOAL6qcBWRRBML48jfG5xRejn8aYiLt5qCwaJaDIIoKg4JAniIiKaIBZYLqne7pneqmqd6qr6enpql6nq7uq+tRXU9+du5x7zn/uX3epW9XUu4vIeQ8NJXHHW3N384SIApn45NAXb90dCJIQT4JhEhCkgHQKbJgvCwtsiKcFEU5KEAgv0qIIVwhTUoxIIkkkLglkUgKBGCkVckJ+KQNP8YSCaxiECFSYJ2GI4SWZmRxzL9h77kByw6uDPD46k/yqeTirNRgIqCZhZIERMIov2Mc+P/U8EopH57UDJzE0oShxIiGb3YOtjMAxvJWDa9hCBZ10yEIHGbqNpYkFTpFQNGEIoanoyVBQlsC1M+ZYqiSWELjGkuQAZGbhpKUTZMpXECIRTCAika4QBmrJZ4S9UhjieZHUOMiW2/dt+zcJhKM5I4QkMv/hGqFxZxIwNuGgaRIMEon5cZlBOFQEtcg3ixBfFgxbgjwbDNOBMBPkaQgEeSoQpkMhCv4NhSkpfza0T9QD/zcOAuwXh8oJaYlX+JMD1fAvNHGIX7u3d9a2RErmcCSUA+oCeeAqsYuOXi2MyFAiywisdBUhHv6FgjNOrh/ei/x261B/gJEyS1wVZf4zRMoGoqQYSgBpL14y7T/WvByvoYWlRT4MdUUIL+VhGMHCQS08S4Xkm4WFbrMwpIwmVppwDLHCKQdY6V8pnu2kPQiXud0RJr5g9GwLSAF/B/FDTAjCNl+wzB/k/CGmI0R3hJhAiG4PAi0puAaDueKYA/RYJHsEWNUi++ujXPo2EhgwrEY1m3qk4o6unk0Rm1hOYgQcGTWguxrq5o3+bOHw3dPeGen1dxqlXvgSsmZPlzuChbOEgl06XoV2XSPU5MbHUUDpyFnGCjYubOcEu4V3WHibJey0hBxc2GFv78W2OS0uB0PsFlLGEBsrnXb5apE6XolyISLzLUq/DikGiAenN1DVFrDA6Q2wvgDT1s60+pgMh7hprMPkDBBQZ04GBXWX5fHNp5HRn702/uMbVp3Z4uVk/RLZeEzrhHj4N1lOdTvVcneJi4zZoGx7gHH5LDEhaoxLvDnIeRhGtFn4Mo63cxLlgHh2SxhOJ1wdHeUV7X05d7mFVFiI00LKOVLBkR420tRGDntJg5c0uklDm73RW9HktTZ5LG4vDKjxyCcCVO2wOlke9DOxviXW58hJ2fU5+VQva1kzz9o1YaBr+qozDrutysIN8y6Kj6x9/D3536z7HKVo7WNSs05O7VEe7OUM9HJ21Nrba20Ham2k1k76OomTk+h02CNRq9kLV8eRNmdTm7XFa2ly6+vuaZgVAu09rlJDPEtVkrsR9fTWkwL8vqXjP5m+evh3zfZuSNJdUbV+rrOvlFObPRycXxCYu8JxgnSBuSIhLCv0lBgV6O0IHGfznVB1cLjN17uM9LKTN+vJS5uH6M5a3Sukr/tNXuB67tNBsAK2dNyOaauHfdXgzItMYwnpwjFRGogGQ/Qhlw3OYx3XQJlUcGUamoxlnU60zf0ZiE4MUFXj5c8GPFb/4zcurz+5n1c1Q0LkV9saM8lmgjzyjC56BVJFeIVHDgiYsM+RUXj9XycEePbNy3c+sL3fSzsit1g8EIH8IaAtc5LNyPOnfypJb+3qG+CZJRd8daTdvuqLWtWssbUQOWCgtRBVczCyYAhoy5yCmZGsotV7eo9rs/7tws/72L3PbR+ULBvGIwLZItA5zynM7RZu7fLdPRbIVuPU+RN6Ochc/0PVFStOv+rEhrvP2ZS6LKYiApkjYM4VggT7D7psE5ePHlCROSyYExFIg4D5mSN3cbAse/M/os9800ASSU54FpxJEcxTUgiYnzkl5U40tmAIIHMKBjVWlDUCV09l4YRio89j3t8Sks99Bz2DTmIcFVTv46Ot95+bQtW9VFryiDp25z7/itXhN94VLroiz4thLGzZSmtQJnliQn6YOfZHT69XlamUo4xRLZhVpFKmMkYWOHv0XlJ/XLzw+JzJSmWljP4zs1aVDX5FVJvjpN268FbIw0+GzzjT96c/VnBW5tPNZNxYaTvIqLHUddOsB/axM+8Qm5vpN16WHuRSVNgKxayJD3UtFmrb1vLZN7GVPciSl9u9XseOLZm9L5mB/Wwmu+szyRNfV7L8ynhlTAY6p8milKmMkUWM7g0bT7owJz5nslJpqjdasqC/l2Hh/VyKIc//lTl0yB4O8UF4Y/HYMXsuf89irswRuuSyjo4APfBE7v7FgiiK8xcHanvzLjc97xbppUb5CIVYQYDifPMh8vwS7vIrAts+FO75PT1oUJjlxGeetm5cHf7FGcwdC8LhMHG5mAWzBfFY2bRuzHMXlrY+7TLE1qPlQGwfdIoapyyv29/1rb4UmTGpkAhAC/7XJ/zF47q8HDHyXMbjIXt2Sq37nX/YmpuopS9ESfX0E/T+veJfXxN/MYKt36rS/FuOkpoa4drpLC+I0ybRzkr6nQ98l24ue+LP/ilX2w4fEGgmC9qAAvlkTg5tV1Nn4P4ATeEtvPCbbw099yxMLlSI4XZJQ7WmRqaiSv1tjIE/IQcO0KcO42v7CA/8USLk4UPswMG018MAbeDfWE+VoV35ZE6GVWI2RCAHBAb+lOk/ILh5Q3QlIBgg5eWJE5tkYvv2p2/4lW/GNPvZY+mDB+knHpa4RzMMaxGqq/le/bimgwJXRgU7MhUoFU9WmSnjYQgnj+JigQQzH75ok/otSw0O5X4F5VMgZR41SRiXHoFJvyTLl9li85DV75IrJwSW/K9Qe0KqNjx6jG/le+E//Cm8aL79my/4V/7G9+krvrJMeOZFcsFlLFBl/lzHU8+Gn19KnloisOkXyzr17HwnNF73hBaQ4cacZPs7IT4260gmGeIzrCUZxslqV0qO10eWFstz//mbTu1J5m04be3qQAp9lHUls0tZVzL9ixXPNOrr/RyjvBOaiq9KXyrvqco8+o9JsXjwnx/UnbRoKNAGrABj4+01h+36945RNMyOOUaxCvVEBLRGIFPmxG7ACXdi/Y/jUwy6MgG3TxV++zMTnEouD66tJbpcZpo887nlzC/fO6XZOTP69WB5wNZNKibWh/8bEwF15hSyccTmDzpsl3/Z9tNdR3q9YkzXotaaIqDOnPxWGT8jj7+j57cWjaRt/ga+b9rl68EaVYRijYVApvMcY1mF2iICWiOAzMka4T9egm9lZw2a+QoYiTk6eaLS4DdfM0CLskYgd+bAerS8JB0LpN3bkrV26QoUhUsPf5jFW9lKC4qis1INQ8RMmsb83ze+HXt9OtS2ECsESrMLuXanrF0ZM/jM3vAB2fj47msYe9IlB+C2oudVRCUmxY350YnM7x8KjxrlAjVCbXr8IYbc+5ziIqur2n991m5d6WN0ZW69nV33oWvUKOnLxl9+6Rj5Cz1+HFy/zDHQqOb0XrhsnR+2wtcC/rHON//OKJ6vvVo1/nwmq83/+dEjAynFGa2lVsxwo5ob38Z3S1O7NH3qT4Yy8+bzF1/ceQ+6777qV55VeYktvayC5Cg+cwz3bLQgfimhSixW6rb51MxZ0pRGPkJhMntm9Qfv6pc2oKd+R2vxbQd6IbkjigV03rJuPmOvzjXUiXpXTGbXbumYOcsN+sDPnMP1wA+OSVfpnTagZ/H7HJ24ML9qnFmrr9fF8mtdXqSdNJydd2fonLOjwzOgDUXEzZvLF823NfzQkZcqNBWSO3Pk3Wj5euex+6vAmsKUrfCb3q4j87ItVCr5y6voWfPJjTMkzsiEgQDQ5vXXq35zu6D8bJo+ccmUOXqbjRRyFUFpe4q3SvXpZv1odc10ZsGiturK6NMzIIys2+OPVz/1qK4nNgkYZsoc/UBvUE3mjf6M1Pc3qPJ5UXv4aPgmYOiMER6ltIULala81vk5QmUGHcYYgznKu74OoUyt0sBKPW4hSa1zvlJ71NJz7iDXTZVWz2LDM1l4q4e57dbKrRsNRhtQ3hhra/lyYRHlzFnVrd1uRdS8m1VPv4XZ8LHnuqnS6hkc8vBMEKVltM932ydeWWFE2oDy3e1zcMTfzYZl4uJjzmfuuDN48ikqwzOaEtesqbhzDtXRZqS5TbyzsutzTLYCVtxWe+OIfcVVQLva+/WnH3mSev4l18mnqI9RlzxfddsM0tGWxTc1tdM2N8nd7XOUtWrXCxmLt2lX7c/p23DOlQ33bB7+/RG7Ekbjxtw8l1mw0B1bNFMa8sDva174s/EmNgmGZNfnKFHQIgYYIpMkFtCilqLLnP5W3cZDtZsm77j21O+LrkxeFDh/HLNqY2jhQlcy2sD0ZtavzUAbgCv/fU5efJBWiHK1Le09Pq3Mwmd47tNBW/5d+2DdzpF9DvznhpHedqO6Az6XPvdO/rJLO/eexYMpr6cdPGidPdPx+XbD9zayaXrscwrfgotY457D5Ve9XnfYRz649uNzBh0poia5Vc1YyJy7mDUfuC671CNvPEuQI9Nm69byaybYTEMbsNGoN7nc3NydUprOsuAN7a2Hjzw6es+yPqSbb2t3x8Zsy46byN55l//4ftFtZqqDNIhcvqzyrjmwGJC3XxrMVk8t8putz9FufSI1+t2fm23c1/P8pSP7OMjKyZt+1qctdXVFT/35MObZl8njT7TEaJNMpSefrI7QxmyH2ZhjaP/APGfeP+v+/tWP106snzrsO33aYq+gFv4X/dY7rrHnqQ/P4tVevKj6iYeM+sQmNf44WkuNT3apeRnRLd15wmeHax45u/703j/cvX5Ue0BH36+YeD27YKG3R4/E/ZpKmLw+y+xbnZvXmZM2YC/2OUqnFz9mX6Nzwht1ze3k/Wu3nNVffcGqwFqeNpJ56U3xoYdbYrRRVUDeVvPlXvukKx0mpg0yR9X7xY+U36H47411938y+LkLd808a1cRdao5jvrtQ/TSN10jR3pVV8/idYNtNWvXVkyZwH27x1TrAUr89dvn5GXkozTYWDFrvux93utnjOjteuGKTUX5JZ+pN7HrtvimTeuyXzMFhi+9VPXrG4iv1eS0AQT0y5wU7imppMZW66/eqtva2HP95E/G/fxwwWwfeS7zxrvCvfe1OOyZPrt88MGa+xebnzOyC3CFoGBNsVsVPbPtZ9sPux89+/MRtV/fu65bLyxU9hCHDxPXrU1604Rfe547n0yapPI6TQob5txW888VmXIshRyjJCWFzygGlI6e27+vuvDvYziGrPnlplOOV9m6nyEUD/+27W+PfHveheqdw423MRs2eyZNynR4BpUebuSuubq6pGgDViNzMmxvGmbL/GumYZ66+/26Z3YNWDn+XzNyeklh4GDxorpGMObicxO/LzP2UvbtdfyixS6GVieVKgTbtzsmX2Xfuc20q8+qVkMkjtaSIaPf+BWfH9/os88etntE74bF689y+yyZ6zplQvQHg8eOhF4l+nZD/8HMnDuE8eOz/sbvypWVC+eIIp8F0zJXVec5sc/R1kEa7Qba8m3NL5fV7XOTtdduzXyfqM1Bpk1skA3uWeU/7XSRpsisBcz7613jx7emXXFOQOrPT1cvmAW00RZA3UrHPqeYrunmt6/+56O6HY1HHqvb81pvAuG0lky8KmxlOyfxt0xvG3xf+4/7RKdMqvs1k8m85zc1S18oofUAJQ6shcuir1eWL3pMXvTnLFzhDVFqHh+jTFXVcMuBPpc093zg7E1LJ266e/PI71tsqtnkyOsndhmPXThGmvBke/jbmTvm9Nz0AXxSUJNtQRxXBF9kCwLkZ0Ndf3EpBxHFLZIv/fMlJwUaiW/jKZCP1yFzfY4EyS1v18GCwcrxH9+6dujm/fBj2irH2WOFwf1b4j/alPABJ5Uyiqh9X9vmzirbt6tdkZLPiGAgOhnLp9B8yzL2PAf3GcTaw5JPB83Z+NMXL949Jcm72ddNkD6mET8ky2p4BmU3bCifMsG6b1epzmy6cs/YzMn3fcTY8tZ/ddylK4bdNPTAwrrEX8+WFqPHNGa7BhAPx6uvVt08lfK0lOIymmqzQOaowqJhpHb9JKw3wCbrK5eNGlJNnhq3ycJ2vk8mL0Zn28nEUHj0kep7FyJnurQKZI6GJCmKaF8HA78hBz89v2LiRyf0lH6BvsxJph9bjM5BpdvnVj/7JxyhJSKHzElExBz/37++7s2v+y4fv2NoX++kCWEubjE6cwOPHOWmTK5+502kjQpm+DxHBZQiRmX+hCftLxe9sOPE1qB1+fidjZcPyMoigVA0EevrnbfPthzcj7RRBw/7HHVczBEL+3T+2jYk7Uc2EowF2rzzbuXUqxmkTYpmgH1OCnA0T0p8wpNZhdDbyBnlQOoNPoPOgmej2W2s/stfqv/wO+xq0jgDmZMGIEMkJxvjnThEvHB01hsF7DZRGq7hWlpK3+NoLSU8uknM/E2EeJVjO6OzsmPadPey1eGhw/Gumgo2ZE4qdAydZofF6KtzfPv65KH+lW+3XDcDyZO0CSBzkkJj9ISJE8IWtlvTlfvuz/qNHaODlrn+eFPJHCuD5bz+6ugb0ZnoHQjRLhfrbrG4XZTLTcPV7aa/2A2/SVjSrxKkgA6ZkwIcXSQlm/2nVe5Qk+VHfS0ut9Xl4VytrKuVdrUyrR7a3Ur7feKMQdu+biSPbRrj/+aoxy12+BI+/Qz/dqu/Sque0TMgc4zuwaT6/+qWSkLgVD+WMWOeu+Kj6f0++t2HQ9RzYGxKBHCekxKegid2/zcRMlQ5xFPTV9Qd7yR1P2vNsAhmi0cA+5ySbg+wN5RpbCppCHI1HvucXJHTspx2byJoqXVpyUbmFN/fyJPi+yB7DXC0lj1mhS2h3NuWeqNavHawLoe01MhdyByNgC2y2JzXsoust3Gqx9GaMXyFXYfe/ITM0ZtHUB9jIICjNWP4KbWW2COlxkeLVOxztEAVZZofAWSO+X2MFmqBADJHC1RRpvkRQOaY38dooRYIIHO0QBVlmh8BZI75fYwWaoEAMkcLVFGm+RFA5pjfx2ihFgggc7RAFWWaHwFkjvl9jBZqgQAyRwtUUab5EUDmmN/HaKEWCCBztEAVZZofAWSO+X2MFmqBADJHC1RRpvkRQOaY38dooRYIIHO0QBVlmh8BZI75fYwWaoEAMkcLVFGm+RFA5pjfx2ihFgggc7RAFWWaHwFkjvl9jBZqgQAyRwtUUab5EUDmmN/HaKEWCCBztEAVZZofAdbCWcxvZToLOQuXLoux01N4mbVadWUbxxnDF2woGNIVcMVSxtw4pLBOCASKhXmyeoP6U0mpKo7WlJhgDCKQHgFkTnqMMAcioEQAmaPEBGMQgfQIIHPSY4Q5EAElAsgcJSYYgwikRwCZkx4jzIEIKBFA5igxwRhEID0CyJz0GGEORECJADJHiQnGIALpEUDmpMcIcyACSgSQOUpMMAYRSI8AMic9RpgDEVAigMxRYlJaMQcfvL60DM6TtcicPAGJYkoMAWROiTkczc0TAsicPAGJYkoMAWROiTkczc0TAsicPAFpEDEN8y4yiKZ6VxOZo3cPoX76RACZo0+/oFZ6RwCZo3cPoX76RICODXxLOfDDzLGye0wGgu3FKQl2xVohWCqfEAMPQ+VTTo09Gy1KYP+91+hBjbS2U7XD6vTJ6UJqBZ8jS/FdpUJqkq+69te3xIsaMKxG/hfYUvv4e7FwfJ5+i1/JV+3dkcNZrfjVqO4AiGURAV0jgPMcXbsHldMtAsgc3boGFdM1AsgcXbsHldMtAsgc3boGFdM1AqyutTOHchQl2RG5wp8o/0coOQBxkQAlpUnXY4H43MeKp8dDFIgoEkFInxNzdA8BZE5O+EntO9LEKWj3clj6J0IP+V86mkTTIssQhhEZhtAsXCMBWqBpimZEioawyLAiy4YtFophgyxL0WxQygOlYERAQQYoTiCnXBEdqUK+JugeCpF2n6XDX+b3kU9WxSeKdofEKOAVUJezUEI0nJPxWEhCAJnTtR1A64RGSdGidE0ggxQj8QTautUqcGXEWsZbOJGDsJW3WnnGEoDfouGsEC+dkKGsTJIWCpNwmAhwDUkBOHleOgXeEgqHBN4WDlPBABcIkg4fFwrRwSDkpHieEqLZKF6AbiTa3KE/AQ4QuCa2YNFaJpRX8OUVoYqqhLTGyyeTjnbS7ieko+2UEZzPR7f7Esvj/9kgUMLMgXs5TYlwa4cegLOKbFgESpTZeIeTd1YIZXYgQ5jlgvBDSPC7VMAHCAAfgAwQ9vlJh19qiO1+e0cH6/dxHg/T3l7e4afb/RScfj/V0U61t1OhYDbuyGPeLp6tXfaq4CgXnc7moUMYkfb3OSFQWUlIUx7rKzVRZmdOlz4EBjzS6Ai6DsFiEYAezspARUXAXs5XVhGbgzjKpXu528W0HLX5PEAGGzR9IECgnW7vgKtECYiR7twGO5hD/2ZklScPKV+1HOyEA79A0B0vmoI5nfSIEEOeG0gjK1q0lfF2p2B3hh3lbQ6HRA+7k5RXEBj3txwlLUcqjh6xffet1ecVmhtpT6sRWZGh+xM2Yulkr02Gyuswm0GYI4+sonPxyFw5OhGH4VbnECvsrOiwOXibXSIGnDYnCQaI1w3dSIXbVXPwIONx03C2umm3K94ZRtkrpcMGVLIq6Yg5lDQvB0bIs/PIyEoaXFGwGAVjdN5ZHrbZRasNJh5BmHzLE3GgBwyxYNIMQyz3UWfL0cqmRtbrobweug2u3uJNMwzQouRuB/oi7H9y8FbBmXNsaVVekO2kB3QdNodgdwg2R9DhCNjsYegxnOXSCYMrVwucZd5WWBRyeI+W+/00zMVhFt7mMfcQKwePYpHCIKAZc6Ljq8jEQ3r4IHUg0lKvhRNsdli/kkZWDmfIHuEGnBDwtZG2VtLqLve0VjQ2MZ69dKsrOrKS1mHxQAR0hEA3mBPpPeAQIg9AukzNY+MrZ0W7NMqSp+YwsnJID/U8Hhhc2V1HnUeOsO6vovRodeOTb03bBY7N8gtvSuZIC7iRicexxav4ZSt4viHA0w+7Axav4NoBD0DkqbkjsngF46sIPcqbm1n3vsiso5WGGYgBl3Tzi3hhpP2kb7gwFZVsLWzk+QaBFSp5Oi4NqyJhaZ8IDKvsdumZoM0OE4+g1UaAG9JpI2WR3Rw+D3Qgdk+rpdVd2dgQnZoDQ2DlCsdXJdumSsNwlu/VB+blIZia250BGwSc0phKmn44SKsHuMF5vVZvq93lqvR+T/m8cNJtbVIgECgNiNBKREAFAbb5gvHE01rW6rbCQ4/m7yJPPFqpyFUlO0aZDgFcks7NpWy/x36XW0kshQiUMgL4Zlspex9tzx0Bql/fIbmXNktJ3H2jH08axRfY5+inzaAmRkIAmWMkb6Gu+kEAmaMfX6AmRkKAhWGlkfTVRlcO3vfEQx8IGMUXrCG+4VsAnyIOBQA5wyoM4QscrWXoTcyGCHRBAJmDDQIRyAUBZE4uqGEZROD/AXt0SulX3VUkAAAAAElFTkSuQmCC;" vertex="1" parent="1">
          <mxGeometry x="100" y="290" width="206.65" height="130" as="geometry" />
        </mxCell>
        <mxCell id="YFd-6-W39YbFu1xFPXJk-8" value="17th Dec (Pivot Point)" style="text;html=1;align=center;verticalAlign=middle;whiteSpace=wrap;rounded=0;" vertex="1" parent="1">
          <mxGeometry x="60" y="260" width="130" height="30" as="geometry" />
        </mxCell>
      </root>
    </mxGraphModel>
  </diagram>
  <diagram id="O9Bp8zSwOK97o4pOzwkP" name="AUDNZD">
    <mxGraphModel dx="1674" dy="792" grid="1" gridSize="10" guides="1" tooltips="1" connect="1" arrows="1" fold="1" page="1" pageScale="1" pageWidth="1700" pageHeight="1100" math="0" shadow="0">
      <root>
        <mxCell id="0" />
        <mxCell id="1" parent="0" />
        <mxCell id="14wtTUTRUOSVD0qwF68o-4" style="edgeStyle=orthogonalEdgeStyle;rounded=0;orthogonalLoop=1;jettySize=auto;html=1;exitX=1;exitY=0.5;exitDx=0;exitDy=0;" parent="1" source="gBZqdZ8pvdtokeidcjRe-1" target="14wtTUTRUOSVD0qwF68o-1" edge="1">
          <mxGeometry relative="1" as="geometry" />
        </mxCell>
        <mxCell id="gBZqdZ8pvdtokeidcjRe-1" value="NZ GDP for Q3 is -4.0%" style="rounded=1;whiteSpace=wrap;html=1;" parent="1" vertex="1">
          <mxGeometry x="110" y="360" width="180" height="60" as="geometry" />
        </mxCell>
        <mxCell id="gBZqdZ8pvdtokeidcjRe-2" value="19th Dec" style="text;html=1;align=center;verticalAlign=middle;whiteSpace=wrap;rounded=0;" parent="1" vertex="1">
          <mxGeometry x="70" y="330" width="60" height="30" as="geometry" />
        </mxCell>
        <mxCell id="gBZqdZ8pvdtokeidcjRe-3" value="&lt;div&gt;&lt;br&gt;&lt;/div&gt;&lt;div&gt;(4th Dec)&lt;br&gt;&lt;/div&gt;&lt;div&gt;AU GDP for Q3 is 1.2%&lt;/div&gt;" style="text;html=1;align=center;verticalAlign=middle;whiteSpace=wrap;rounded=0;" parent="1" vertex="1">
          <mxGeometry x="125" y="420" width="150" height="30" as="geometry" />
        </mxCell>
        <mxCell id="14wtTUTRUOSVD0qwF68o-1" value="&lt;div&gt;RBA Holds Steady on IR&lt;/div&gt;&lt;div&gt;(Bullish AUD)&lt;br&gt;&lt;/div&gt;" style="rounded=1;whiteSpace=wrap;html=1;" parent="1" vertex="1">
          <mxGeometry x="440" y="360" width="180" height="60" as="geometry" />
        </mxCell>
        <mxCell id="14wtTUTRUOSVD0qwF68o-3" value="24th Dec" style="text;html=1;align=center;verticalAlign=middle;whiteSpace=wrap;rounded=0;" parent="1" vertex="1">
          <mxGeometry x="410" y="330" width="60" height="30" as="geometry" />
        </mxCell>
        <mxCell id="14wtTUTRUOSVD0qwF68o-13" style="edgeStyle=orthogonalEdgeStyle;rounded=0;orthogonalLoop=1;jettySize=auto;html=1;exitX=1;exitY=0.5;exitDx=0;exitDy=0;" parent="1" source="14wtTUTRUOSVD0qwF68o-5" target="14wtTUTRUOSVD0qwF68o-12" edge="1">
          <mxGeometry relative="1" as="geometry" />
        </mxCell>
        <mxCell id="14wtTUTRUOSVD0qwF68o-5" value="&lt;div&gt;AU GDP for Q3 is 1.2%&lt;/div&gt;Growing from 0.8%" style="rounded=1;whiteSpace=wrap;html=1;" parent="1" vertex="1">
          <mxGeometry x="380" y="90" width="180" height="60" as="geometry" />
        </mxCell>
        <mxCell id="14wtTUTRUOSVD0qwF68o-6" value="&lt;b&gt;Macro Factors for Australian and New Zealand Economy since Dec 2024&lt;/b&gt;" style="text;html=1;align=center;verticalAlign=middle;whiteSpace=wrap;rounded=0;" parent="1" vertex="1">
          <mxGeometry x="50" y="20" width="470" height="30" as="geometry" />
        </mxCell>
        <mxCell id="14wtTUTRUOSVD0qwF68o-10" style="edgeStyle=orthogonalEdgeStyle;rounded=0;orthogonalLoop=1;jettySize=auto;html=1;exitX=1;exitY=0.5;exitDx=0;exitDy=0;" parent="1" source="14wtTUTRUOSVD0qwF68o-7" target="14wtTUTRUOSVD0qwF68o-5" edge="1">
          <mxGeometry relative="1" as="geometry" />
        </mxCell>
        <mxCell id="14wtTUTRUOSVD0qwF68o-7" value="&lt;div&gt;AU Retail Sales is 0.6%&lt;/div&gt;&lt;div&gt;Growing from 0.1%&lt;br&gt;&lt;/div&gt;" style="rounded=1;whiteSpace=wrap;html=1;" parent="1" vertex="1">
          <mxGeometry x="90" y="90" width="180" height="60" as="geometry" />
        </mxCell>
        <mxCell id="14wtTUTRUOSVD0qwF68o-8" value="2nd Dec" style="text;html=1;align=center;verticalAlign=middle;whiteSpace=wrap;rounded=0;" parent="1" vertex="1">
          <mxGeometry x="60" y="60" width="60" height="30" as="geometry" />
        </mxCell>
        <mxCell id="14wtTUTRUOSVD0qwF68o-9" value="4th Dec" style="text;html=1;align=center;verticalAlign=middle;whiteSpace=wrap;rounded=0;" parent="1" vertex="1">
          <mxGeometry x="350" y="60" width="60" height="30" as="geometry" />
        </mxCell>
        <mxCell id="14wtTUTRUOSVD0qwF68o-11" value="10th Dec" style="text;html=1;align=center;verticalAlign=middle;whiteSpace=wrap;rounded=0;" parent="1" vertex="1">
          <mxGeometry x="680" y="60" width="60" height="30" as="geometry" />
        </mxCell>
        <mxCell id="14wtTUTRUOSVD0qwF68o-16" style="edgeStyle=orthogonalEdgeStyle;rounded=0;orthogonalLoop=1;jettySize=auto;html=1;exitX=1;exitY=0.5;exitDx=0;exitDy=0;entryX=0;entryY=0.5;entryDx=0;entryDy=0;" parent="1" source="14wtTUTRUOSVD0qwF68o-12" target="14wtTUTRUOSVD0qwF68o-15" edge="1">
          <mxGeometry relative="1" as="geometry" />
        </mxCell>
        <mxCell id="14wtTUTRUOSVD0qwF68o-12" value="RBA Hold Rates at 4.35%" style="rounded=1;whiteSpace=wrap;html=1;" parent="1" vertex="1">
          <mxGeometry x="690" y="90" width="180" height="60" as="geometry" />
        </mxCell>
        <mxCell id="14wtTUTRUOSVD0qwF68o-14" value="12th Dec" style="text;html=1;align=center;verticalAlign=middle;whiteSpace=wrap;rounded=0;" parent="1" vertex="1">
          <mxGeometry x="980" y="60" width="60" height="30" as="geometry" />
        </mxCell>
        <mxCell id="14wtTUTRUOSVD0qwF68o-15" value="&lt;div&gt;AU Unemployment Rate is 3.9%&lt;/div&gt;&lt;div&gt;Falling from 4.1%&lt;br&gt;&lt;/div&gt;" style="rounded=1;whiteSpace=wrap;html=1;" parent="1" vertex="1">
          <mxGeometry x="990" y="90" width="200" height="60" as="geometry" />
        </mxCell>
      </root>
    </mxGraphModel>
  </diagram>
  <diagram id="73jzMKxrTIEAdLR_Tp7-" name="Canada">
    <mxGraphModel dx="1674" dy="792" grid="1" gridSize="10" guides="1" tooltips="1" connect="1" arrows="1" fold="1" page="1" pageScale="1" pageWidth="1700" pageHeight="1100" math="0" shadow="0">
      <root>
        <mxCell id="0" />
        <mxCell id="1" parent="0" />
        <mxCell id="fa9s4Ck_4EoiaMl1pQFP-5" style="edgeStyle=orthogonalEdgeStyle;rounded=0;orthogonalLoop=1;jettySize=auto;html=1;exitX=1;exitY=0.5;exitDx=0;exitDy=0;" edge="1" parent="1" source="fa9s4Ck_4EoiaMl1pQFP-1" target="fa9s4Ck_4EoiaMl1pQFP-4">
          <mxGeometry relative="1" as="geometry" />
        </mxCell>
        <mxCell id="fa9s4Ck_4EoiaMl1pQFP-1" value="CA Unemployment Rate is 6.8% from 6.5%" style="rounded=1;whiteSpace=wrap;html=1;" vertex="1" parent="1">
          <mxGeometry x="60" y="250" width="180" height="60" as="geometry" />
        </mxCell>
        <mxCell id="fa9s4Ck_4EoiaMl1pQFP-2" value="6th Dec" style="text;html=1;align=center;verticalAlign=middle;whiteSpace=wrap;rounded=0;" vertex="1" parent="1">
          <mxGeometry x="40" y="220" width="60" height="30" as="geometry" />
        </mxCell>
        <mxCell id="fa9s4Ck_4EoiaMl1pQFP-3" value="Bad condition" style="text;html=1;align=center;verticalAlign=middle;whiteSpace=wrap;rounded=0;" vertex="1" parent="1">
          <mxGeometry x="70" y="310" width="160" height="30" as="geometry" />
        </mxCell>
        <mxCell id="fa9s4Ck_4EoiaMl1pQFP-10" style="edgeStyle=orthogonalEdgeStyle;rounded=0;orthogonalLoop=1;jettySize=auto;html=1;exitX=1;exitY=0.5;exitDx=0;exitDy=0;" edge="1" parent="1" source="fa9s4Ck_4EoiaMl1pQFP-4" target="fa9s4Ck_4EoiaMl1pQFP-9">
          <mxGeometry relative="1" as="geometry" />
        </mxCell>
        <mxCell id="fa9s4Ck_4EoiaMl1pQFP-4" value="Ivey PMI is 52.3, more optimistic than previous 52.0" style="rounded=1;whiteSpace=wrap;html=1;" vertex="1" parent="1">
          <mxGeometry x="340" y="250" width="200" height="60" as="geometry" />
        </mxCell>
        <mxCell id="fa9s4Ck_4EoiaMl1pQFP-20" style="edgeStyle=orthogonalEdgeStyle;rounded=0;orthogonalLoop=1;jettySize=auto;html=1;exitX=0.5;exitY=1;exitDx=0;exitDy=0;entryX=0.5;entryY=1;entryDx=0;entryDy=0;" edge="1" parent="1" source="fa9s4Ck_4EoiaMl1pQFP-6" target="fa9s4Ck_4EoiaMl1pQFP-11">
          <mxGeometry relative="1" as="geometry" />
        </mxCell>
        <mxCell id="fa9s4Ck_4EoiaMl1pQFP-21" value="Leading Indicator" style="edgeLabel;html=1;align=center;verticalAlign=middle;resizable=0;points=[];" vertex="1" connectable="0" parent="fa9s4Ck_4EoiaMl1pQFP-20">
          <mxGeometry x="0.0059" y="2" relative="1" as="geometry">
            <mxPoint as="offset" />
          </mxGeometry>
        </mxCell>
        <mxCell id="fa9s4Ck_4EoiaMl1pQFP-6" value="Signal for future growth" style="text;html=1;align=center;verticalAlign=middle;whiteSpace=wrap;rounded=0;" vertex="1" parent="1">
          <mxGeometry x="350" y="310" width="180" height="30" as="geometry" />
        </mxCell>
        <mxCell id="fa9s4Ck_4EoiaMl1pQFP-7" value="6th Dec" style="text;html=1;align=center;verticalAlign=middle;whiteSpace=wrap;rounded=0;" vertex="1" parent="1">
          <mxGeometry x="320" y="220" width="60" height="30" as="geometry" />
        </mxCell>
        <mxCell id="fa9s4Ck_4EoiaMl1pQFP-8" value="11th Dec" style="text;html=1;align=center;verticalAlign=middle;whiteSpace=wrap;rounded=0;" vertex="1" parent="1">
          <mxGeometry x="610" y="220" width="60" height="30" as="geometry" />
        </mxCell>
        <mxCell id="fa9s4Ck_4EoiaMl1pQFP-13" style="edgeStyle=orthogonalEdgeStyle;rounded=0;orthogonalLoop=1;jettySize=auto;html=1;exitX=1;exitY=0.5;exitDx=0;exitDy=0;" edge="1" parent="1" source="fa9s4Ck_4EoiaMl1pQFP-9" target="fa9s4Ck_4EoiaMl1pQFP-12">
          <mxGeometry relative="1" as="geometry" />
        </mxCell>
        <mxCell id="fa9s4Ck_4EoiaMl1pQFP-9" value="BOC Cut Rates into 3.25% from 3.75% (50 bps)" style="rounded=1;whiteSpace=wrap;html=1;" vertex="1" parent="1">
          <mxGeometry x="640" y="250" width="200" height="60" as="geometry" />
        </mxCell>
        <mxCell id="fa9s4Ck_4EoiaMl1pQFP-11" value="Signal for future growth" style="text;html=1;align=center;verticalAlign=middle;whiteSpace=wrap;rounded=0;" vertex="1" parent="1">
          <mxGeometry x="650" y="310" width="180" height="30" as="geometry" />
        </mxCell>
        <mxCell id="fa9s4Ck_4EoiaMl1pQFP-17" style="edgeStyle=orthogonalEdgeStyle;rounded=0;orthogonalLoop=1;jettySize=auto;html=1;exitX=1;exitY=0.5;exitDx=0;exitDy=0;entryX=0;entryY=0.5;entryDx=0;entryDy=0;" edge="1" parent="1" source="fa9s4Ck_4EoiaMl1pQFP-12" target="fa9s4Ck_4EoiaMl1pQFP-16">
          <mxGeometry relative="1" as="geometry" />
        </mxCell>
        <mxCell id="fa9s4Ck_4EoiaMl1pQFP-12" value="&lt;div&gt;Lower CPI report,&amp;nbsp;&lt;/div&gt;&lt;div&gt;but Trimmed CPI is unchanged&lt;/div&gt;" style="rounded=1;whiteSpace=wrap;html=1;" vertex="1" parent="1">
          <mxGeometry x="970" y="250" width="200" height="60" as="geometry" />
        </mxCell>
        <mxCell id="fa9s4Ck_4EoiaMl1pQFP-14" value="17th Dec" style="text;html=1;align=center;verticalAlign=middle;whiteSpace=wrap;rounded=0;" vertex="1" parent="1">
          <mxGeometry x="950" y="220" width="60" height="30" as="geometry" />
        </mxCell>
        <mxCell id="fa9s4Ck_4EoiaMl1pQFP-15" value="CPI is 2.6%" style="text;html=1;align=center;verticalAlign=middle;whiteSpace=wrap;rounded=0;" vertex="1" parent="1">
          <mxGeometry x="1015" y="310" width="110" height="30" as="geometry" />
        </mxCell>
        <mxCell id="fa9s4Ck_4EoiaMl1pQFP-16" value="&lt;div&gt;Lower Core Retail Sales,&lt;/div&gt;&lt;div&gt;Unchanged Retails Sales&lt;br&gt;&lt;/div&gt;" style="rounded=1;whiteSpace=wrap;html=1;" vertex="1" parent="1">
          <mxGeometry x="1270" y="250" width="200" height="60" as="geometry" />
        </mxCell>
        <mxCell id="fa9s4Ck_4EoiaMl1pQFP-18" value="Bad condition" style="text;html=1;align=center;verticalAlign=middle;whiteSpace=wrap;rounded=0;" vertex="1" parent="1">
          <mxGeometry x="1290" y="310" width="160" height="30" as="geometry" />
        </mxCell>
        <mxCell id="fa9s4Ck_4EoiaMl1pQFP-19" value="20th Dec" style="text;html=1;align=center;verticalAlign=middle;whiteSpace=wrap;rounded=0;" vertex="1" parent="1">
          <mxGeometry x="1250" y="220" width="60" height="30" as="geometry" />
        </mxCell>
        <mxCell id="fa9s4Ck_4EoiaMl1pQFP-22" value="&lt;b&gt;Current CA Condition&lt;/b&gt;" style="text;html=1;align=center;verticalAlign=middle;whiteSpace=wrap;rounded=0;" vertex="1" parent="1">
          <mxGeometry x="50" y="390" width="150" height="30" as="geometry" />
        </mxCell>
        <mxCell id="fa9s4Ck_4EoiaMl1pQFP-23" value="&lt;blockquote&gt;Higher Unemployment Rate&lt;br&gt;Lower Inflation Rate&lt;br&gt;Lower Retail Sales&lt;br&gt;&lt;/blockquote&gt;" style="text;html=1;align=center;verticalAlign=middle;whiteSpace=wrap;rounded=0;" vertex="1" parent="1">
          <mxGeometry x="40" y="410" width="230" height="60" as="geometry" />
        </mxCell>
        <mxCell id="fa9s4Ck_4EoiaMl1pQFP-24" value="&lt;b&gt;December situation for Canada&lt;/b&gt;" style="text;html=1;align=center;verticalAlign=middle;whiteSpace=wrap;rounded=0;" vertex="1" parent="1">
          <mxGeometry x="30" y="20" width="220" height="30" as="geometry" />
        </mxCell>
        <mxCell id="fa9s4Ck_4EoiaMl1pQFP-25" value="23th Dec (Additional)" style="text;html=1;align=center;verticalAlign=middle;whiteSpace=wrap;rounded=0;" vertex="1" parent="1">
          <mxGeometry x="50" y="490" width="140" height="30" as="geometry" />
        </mxCell>
        <mxCell id="fa9s4Ck_4EoiaMl1pQFP-26" value="&lt;div&gt;Slight Growth in CA GDP MoM&lt;/div&gt;&lt;div&gt;0.3% from 0.2%&lt;br&gt;&lt;/div&gt;" style="rounded=1;whiteSpace=wrap;html=1;" vertex="1" parent="1">
          <mxGeometry x="70" y="520" width="200" height="60" as="geometry" />
        </mxCell>
        <mxCell id="fa9s4Ck_4EoiaMl1pQFP-27" value="not a quarterly report" style="text;html=1;align=center;verticalAlign=middle;whiteSpace=wrap;rounded=0;" vertex="1" parent="1">
          <mxGeometry x="100" y="580" width="140" height="30" as="geometry" />
        </mxCell>
        <mxCell id="fa9s4Ck_4EoiaMl1pQFP-34" style="edgeStyle=orthogonalEdgeStyle;rounded=0;orthogonalLoop=1;jettySize=auto;html=1;exitX=0;exitY=0.5;exitDx=0;exitDy=0;entryX=0;entryY=0.5;entryDx=0;entryDy=0;" edge="1" parent="1" source="fa9s4Ck_4EoiaMl1pQFP-28" target="fa9s4Ck_4EoiaMl1pQFP-1">
          <mxGeometry relative="1" as="geometry" />
        </mxCell>
        <mxCell id="fa9s4Ck_4EoiaMl1pQFP-28" value="CA GDP QoQ is down into 1.0% from 2.2%" style="rounded=1;whiteSpace=wrap;html=1;" vertex="1" parent="1">
          <mxGeometry x="60" y="110" width="180" height="60" as="geometry" />
        </mxCell>
        <mxCell id="fa9s4Ck_4EoiaMl1pQFP-29" value="29th Nov" style="text;html=1;align=center;verticalAlign=middle;whiteSpace=wrap;rounded=0;" vertex="1" parent="1">
          <mxGeometry x="50" y="70" width="60" height="30" as="geometry" />
        </mxCell>
        <mxCell id="fa9s4Ck_4EoiaMl1pQFP-30" value="despite MoM growing at 0.1% from 0.0%" style="text;html=1;align=center;verticalAlign=middle;whiteSpace=wrap;rounded=0;" vertex="1" parent="1">
          <mxGeometry x="35" y="170" width="240" height="30" as="geometry" />
        </mxCell>
      </root>
    </mxGraphModel>
  </diagram>
  <diagram id="3NkHLcjojsA4iJldtGEz" name="USA">
    <mxGraphModel dx="1674" dy="792" grid="1" gridSize="10" guides="1" tooltips="1" connect="1" arrows="1" fold="1" page="1" pageScale="1" pageWidth="1700" pageHeight="1100" math="0" shadow="0">
      <root>
        <mxCell id="0" />
        <mxCell id="1" parent="0" />
        <mxCell id="1dmX36a3XSDGrzlH2PbW-1" value="23rd Dec" style="text;html=1;align=center;verticalAlign=middle;whiteSpace=wrap;rounded=0;" parent="1" vertex="1">
          <mxGeometry x="50" y="40" width="100" height="30" as="geometry" />
        </mxCell>
        <mxCell id="s1-r3LWqKQnTIBIJt41J-2" style="edgeStyle=orthogonalEdgeStyle;rounded=0;orthogonalLoop=1;jettySize=auto;html=1;exitX=1;exitY=0.5;exitDx=0;exitDy=0;" parent="1" source="65f9hD0LmWKyMdfnpnhC-1" target="s1-r3LWqKQnTIBIJt41J-1" edge="1">
          <mxGeometry relative="1" as="geometry" />
        </mxCell>
        <mxCell id="65f9hD0LmWKyMdfnpnhC-1" value="Lower Durable Goods" style="rounded=1;whiteSpace=wrap;html=1;" parent="1" vertex="1">
          <mxGeometry x="90" y="80" width="150" height="50" as="geometry" />
        </mxCell>
        <mxCell id="2VkdS69W0H09ZaElpHv5-4" style="edgeStyle=orthogonalEdgeStyle;rounded=0;orthogonalLoop=1;jettySize=auto;html=1;exitX=1;exitY=0.5;exitDx=0;exitDy=0;" edge="1" parent="1" source="s1-r3LWqKQnTIBIJt41J-1" target="2VkdS69W0H09ZaElpHv5-1">
          <mxGeometry relative="1" as="geometry" />
        </mxCell>
        <mxCell id="s1-r3LWqKQnTIBIJt41J-1" value="Lower CB Cons. Confidence" style="rounded=1;whiteSpace=wrap;html=1;" parent="1" vertex="1">
          <mxGeometry x="380" y="80" width="150" height="50" as="geometry" />
        </mxCell>
        <mxCell id="s1-r3LWqKQnTIBIJt41J-3" value="23rd Dec" style="text;html=1;align=center;verticalAlign=middle;whiteSpace=wrap;rounded=0;" parent="1" vertex="1">
          <mxGeometry x="350" y="40" width="100" height="30" as="geometry" />
        </mxCell>
        <mxCell id="8Ml9nckOsTz-PfHaJ02I-2" style="edgeStyle=orthogonalEdgeStyle;rounded=0;orthogonalLoop=1;jettySize=auto;html=1;exitX=0;exitY=0.5;exitDx=0;exitDy=0;entryX=0;entryY=0.5;entryDx=0;entryDy=0;" parent="1" source="8Ml9nckOsTz-PfHaJ02I-1" target="65f9hD0LmWKyMdfnpnhC-1" edge="1">
          <mxGeometry relative="1" as="geometry" />
        </mxCell>
        <mxCell id="8Ml9nckOsTz-PfHaJ02I-1" value="&lt;div&gt;Slight Growth in CA GDP MoM&lt;/div&gt;&lt;div&gt;0.3% from 0.2%&lt;br&gt;&lt;/div&gt;" style="rounded=1;whiteSpace=wrap;html=1;" parent="1" vertex="1">
          <mxGeometry x="210" y="180" width="200" height="60" as="geometry" />
        </mxCell>
        <mxCell id="8Ml9nckOsTz-PfHaJ02I-3" value="20:30" style="text;html=1;align=center;verticalAlign=middle;whiteSpace=wrap;rounded=0;" parent="1" vertex="1">
          <mxGeometry x="280" y="240" width="60" height="30" as="geometry" />
        </mxCell>
        <mxCell id="8Ml9nckOsTz-PfHaJ02I-4" value="20:30" style="text;html=1;align=center;verticalAlign=middle;whiteSpace=wrap;rounded=0;" parent="1" vertex="1">
          <mxGeometry x="135" y="130" width="60" height="30" as="geometry" />
        </mxCell>
        <mxCell id="8Ml9nckOsTz-PfHaJ02I-5" value="22:00" style="text;html=1;align=center;verticalAlign=middle;whiteSpace=wrap;rounded=0;" parent="1" vertex="1">
          <mxGeometry x="425" y="130" width="60" height="30" as="geometry" />
        </mxCell>
        <mxCell id="2VkdS69W0H09ZaElpHv5-1" value="Lower Weekly Unemployment Claims" style="rounded=1;whiteSpace=wrap;html=1;" vertex="1" parent="1">
          <mxGeometry x="650" y="80" width="150" height="50" as="geometry" />
        </mxCell>
        <mxCell id="2VkdS69W0H09ZaElpHv5-2" value="26th Dec" style="text;html=1;align=center;verticalAlign=middle;whiteSpace=wrap;rounded=0;" vertex="1" parent="1">
          <mxGeometry x="610" y="50" width="100" height="30" as="geometry" />
        </mxCell>
        <mxCell id="2VkdS69W0H09ZaElpHv5-3" value="20:30" style="text;html=1;align=center;verticalAlign=middle;whiteSpace=wrap;rounded=0;" vertex="1" parent="1">
          <mxGeometry x="695" y="130" width="60" height="30" as="geometry" />
        </mxCell>
      </root>
    </mxGraphModel>
  </diagram>
  <diagram id="y-kqKl8QU-MDAAvMmult" name="US Core PCE">
    <mxGraphModel dx="1674" dy="792" grid="1" gridSize="10" guides="1" tooltips="1" connect="1" arrows="1" fold="1" page="1" pageScale="1" pageWidth="1700" pageHeight="1100" math="0" shadow="0">
      <root>
        <mxCell id="0" />
        <mxCell id="1" parent="0" />
        <mxCell id="whXYKTbg8514wBpsgDkD-1" value="&lt;b&gt;Trading US Core PCE by using EURUSD&lt;/b&gt;" style="text;html=1;align=center;verticalAlign=middle;whiteSpace=wrap;rounded=0;" parent="1" vertex="1">
          <mxGeometry x="60" y="30" width="240" height="30" as="geometry" />
        </mxCell>
        <mxCell id="whXYKTbg8514wBpsgDkD-5" style="edgeStyle=orthogonalEdgeStyle;rounded=0;orthogonalLoop=1;jettySize=auto;html=1;exitX=1;exitY=0.5;exitDx=0;exitDy=0;" parent="1" source="whXYKTbg8514wBpsgDkD-2" target="whXYKTbg8514wBpsgDkD-3" edge="1">
          <mxGeometry relative="1" as="geometry" />
        </mxCell>
        <mxCell id="whXYKTbg8514wBpsgDkD-2" value="&lt;div&gt;Check the edge on EU Open,&lt;/div&gt;&lt;div&gt;whether HMA1 above/below HMA2&lt;br&gt;&lt;/div&gt;" style="rounded=1;whiteSpace=wrap;html=1;" parent="1" vertex="1">
          <mxGeometry x="80" y="90" width="240" height="60" as="geometry" />
        </mxCell>
        <mxCell id="whXYKTbg8514wBpsgDkD-7" style="edgeStyle=orthogonalEdgeStyle;rounded=0;orthogonalLoop=1;jettySize=auto;html=1;exitX=1;exitY=0.5;exitDx=0;exitDy=0;entryX=0;entryY=0.5;entryDx=0;entryDy=0;" parent="1" source="whXYKTbg8514wBpsgDkD-3" target="whXYKTbg8514wBpsgDkD-6" edge="1">
          <mxGeometry relative="1" as="geometry" />
        </mxCell>
        <mxCell id="whXYKTbg8514wBpsgDkD-8" value="enter position" style="edgeLabel;html=1;align=center;verticalAlign=middle;resizable=0;points=[];" parent="whXYKTbg8514wBpsgDkD-7" vertex="1" connectable="0">
          <mxGeometry x="0.0095" y="2" relative="1" as="geometry">
            <mxPoint as="offset" />
          </mxGeometry>
        </mxCell>
        <mxCell id="whXYKTbg8514wBpsgDkD-3" value="Check whether there is any EU news that supported the view" style="rounded=1;whiteSpace=wrap;html=1;" parent="1" vertex="1">
          <mxGeometry x="470" y="90" width="240" height="60" as="geometry" />
        </mxCell>
        <mxCell id="whXYKTbg8514wBpsgDkD-4" value="e.g. Higher German PPI" style="text;html=1;align=center;verticalAlign=middle;whiteSpace=wrap;rounded=0;" parent="1" vertex="1">
          <mxGeometry x="510" y="150" width="170" height="30" as="geometry" />
        </mxCell>
        <mxCell id="whXYKTbg8514wBpsgDkD-6" value="&lt;div&gt;Wait until US Core PCE being release&amp;nbsp;&lt;/div&gt;&lt;div&gt;at US Session&lt;/div&gt;" style="rounded=1;whiteSpace=wrap;html=1;" parent="1" vertex="1">
          <mxGeometry x="920" y="90" width="240" height="60" as="geometry" />
        </mxCell>
        <mxCell id="whXYKTbg8514wBpsgDkD-9" value="&lt;b&gt;Sample that works&lt;br&gt;&lt;/b&gt;" style="text;html=1;align=center;verticalAlign=middle;whiteSpace=wrap;rounded=0;" parent="1" vertex="1">
          <mxGeometry x="70" y="230" width="170" height="30" as="geometry" />
        </mxCell>
        <mxCell id="whXYKTbg8514wBpsgDkD-12" style="edgeStyle=orthogonalEdgeStyle;rounded=0;orthogonalLoop=1;jettySize=auto;html=1;exitX=1;exitY=0.5;exitDx=0;exitDy=0;" parent="1" source="whXYKTbg8514wBpsgDkD-10" target="whXYKTbg8514wBpsgDkD-11" edge="1">
          <mxGeometry relative="1" as="geometry" />
        </mxCell>
        <mxCell id="whXYKTbg8514wBpsgDkD-10" value="27th Nov" style="rounded=1;whiteSpace=wrap;html=1;" parent="1" vertex="1">
          <mxGeometry x="102.5" y="270" width="105" height="40" as="geometry" />
        </mxCell>
        <mxCell id="whXYKTbg8514wBpsgDkD-11" value="20th Dec" style="rounded=1;whiteSpace=wrap;html=1;" parent="1" vertex="1">
          <mxGeometry x="290" y="270" width="105" height="40" as="geometry" />
        </mxCell>
        <mxCell id="rq3ooC-dS5Hgy7u04Ks3-1" value="Long" style="text;html=1;align=center;verticalAlign=middle;whiteSpace=wrap;rounded=0;" parent="1" vertex="1">
          <mxGeometry x="125" y="310" width="60" height="30" as="geometry" />
        </mxCell>
        <mxCell id="rq3ooC-dS5Hgy7u04Ks3-2" value="Long" style="text;html=1;align=center;verticalAlign=middle;whiteSpace=wrap;rounded=0;" parent="1" vertex="1">
          <mxGeometry x="312.5" y="310" width="60" height="30" as="geometry" />
        </mxCell>
      </root>
    </mxGraphModel>
  </diagram>
  <diagram id="aY6fj2qklPnTQDvhR8ps" name="US Adv GDP">
    <mxGraphModel dx="1674" dy="792" grid="1" gridSize="10" guides="1" tooltips="1" connect="1" arrows="1" fold="1" page="1" pageScale="1" pageWidth="1700" pageHeight="1100" math="0" shadow="0">
      <root>
        <mxCell id="0" />
        <mxCell id="1" parent="0" />
        <mxCell id="tT-KymRBnLhKgLXHdaY--14" value="" style="rounded=1;whiteSpace=wrap;html=1;fillColor=#E6E6E6;" vertex="1" parent="1">
          <mxGeometry x="330" y="650" width="490" height="50" as="geometry" />
        </mxCell>
        <mxCell id="tT-KymRBnLhKgLXHdaY--9" value="" style="rounded=1;whiteSpace=wrap;html=1;fillColor=#E6E6E6;" vertex="1" parent="1">
          <mxGeometry x="120" y="580" width="630" height="50" as="geometry" />
        </mxCell>
        <mxCell id="Rzidjq3mTr81ao7gPDMC-1" value="&lt;b&gt;Trading US Adv GDP by using EURUSD&lt;/b&gt;" style="text;html=1;align=center;verticalAlign=middle;whiteSpace=wrap;rounded=0;" vertex="1" parent="1">
          <mxGeometry x="60" y="40" width="240" height="30" as="geometry" />
        </mxCell>
        <mxCell id="Rzidjq3mTr81ao7gPDMC-2" value="(by using sample from 30th Oct Report)" style="text;html=1;align=center;verticalAlign=middle;whiteSpace=wrap;rounded=0;" vertex="1" parent="1">
          <mxGeometry x="60" y="60" width="240" height="30" as="geometry" />
        </mxCell>
        <mxCell id="Rzidjq3mTr81ao7gPDMC-5" style="edgeStyle=orthogonalEdgeStyle;rounded=0;orthogonalLoop=1;jettySize=auto;html=1;exitX=0.5;exitY=1;exitDx=0;exitDy=0;entryX=0.5;entryY=0;entryDx=0;entryDy=0;" edge="1" parent="1" source="Rzidjq3mTr81ao7gPDMC-3" target="Rzidjq3mTr81ao7gPDMC-4">
          <mxGeometry relative="1" as="geometry" />
        </mxCell>
        <mxCell id="SYbg_JmhvISxXENu2_E_-3" style="edgeStyle=orthogonalEdgeStyle;rounded=0;orthogonalLoop=1;jettySize=auto;html=1;exitX=1;exitY=0.5;exitDx=0;exitDy=0;" edge="1" parent="1" source="Rzidjq3mTr81ao7gPDMC-3" target="Rzidjq3mTr81ao7gPDMC-6">
          <mxGeometry relative="1" as="geometry" />
        </mxCell>
        <mxCell id="tT-KymRBnLhKgLXHdaY--10" value="long tendency" style="edgeLabel;html=1;align=center;verticalAlign=middle;resizable=0;points=[];" vertex="1" connectable="0" parent="SYbg_JmhvISxXENu2_E_-3">
          <mxGeometry y="-1" relative="1" as="geometry">
            <mxPoint as="offset" />
          </mxGeometry>
        </mxCell>
        <mxCell id="Rzidjq3mTr81ao7gPDMC-3" value="Check the Daily closing from previous day" style="rounded=1;whiteSpace=wrap;html=1;" vertex="1" parent="1">
          <mxGeometry x="110" y="110" width="170" height="60" as="geometry" />
        </mxCell>
        <mxCell id="Rzidjq3mTr81ao7gPDMC-4" value="" style="shape=image;verticalLabelPosition=bottom;labelBackgroundColor=default;verticalAlign=top;aspect=fixed;imageAspect=0;image=data:image/png,iVBORw0KGgoAAAANSUhEUgAAAMUAAADTCAIAAAC+1UAhAAAAA3NCSVQICAjb4U/gAAAgAElEQVR4Xu1dB5xTVdY/rySTTKZ3JlMYBhgRFemCuit+FlARLICAoGDBhgiKCrqAYFl1XV11UaSKiCBiQRRFUVyKCCJNwCkwDDOZ3ie9vPedl4RMepskk/Z++c283HfLuef+c+655557HqGA/nDh6p2tNd378CYxTZeark1LU6emKlNSm1NTITUFUlIhLQVS0wC/JiR405pcAQo5yPGjAJUSNFrQqrm/Go3+r+HelKgFnQZ0DDAXPjodsIzrdgkSKApI0viZOBDKWuBkLVD6FNNfgrZIISljKS4D3pPA40FMDAgEwOcbb2LwRgA07ZoGRzlUKmhrg5YWqK+Dhkaob4CGBmhsSG5oEDbU8xtqebJ20lFZ99MnVpf/G9SYfw4It2bnOS9I+ApP8Sm6bLE6O0cpzq4X50BuLmRlQnoGZKS7ZplWA41N0NwEjc0cd2RSkMpAqv8rkwql0liZnCeT0nIpJZWR+FchJ9QK0h00OO+8F0/7ZCu/vb9i6sbsg2XxXhS3LULxWR6fjYlheQJWIGCEAlYYq+VuYrVCoVYkkickKBMTuJ9cfALgTWIi95e7T+Rw6fxCHtbVQk2d8S/Crr4uva5e0FDHr5fQ7jPwoeri5/UtTYQe+7Od/fo9xpMtbnLFkJPrTMY0N3O/G+431AzNjdCEf5uFzc3xzc38liZeSzMtbfHBz8g5Z3349ObBbc+Pqh27sndjG+XDar2oii9k4xKYpBRO9qelKdLSW9LTuR9wRib0yITMLIiLc1gry8LZM3DmLJwth/JyYcW5lKoqQd15h9JyUXXxgwDNADelF1Tx+I7qtY+nsmoa576sfG1+viK/Z0PPfM2DD/c/eeykE9y0t0NVJVRKoLISJFUgqc6oqRE0NfJa6imtmnDUfCim82Ni7r/q+IhcmLauKMjpFyUw6Vma9Ax1RqY8M7M1MwOysrgPQk2cbYd2VBXOVcD5CqjAv+ehvCLr/DmhpJxvkGRrqotvADgMMC7bYcct8DT/yfKePeUFBXDTLf1V8pM405sugu7Pak/iV1vcVFcJqiX8juZu/rHaYY9/khBPapXqzYnFzXJYtt0hZ/3TuM9qxek1t0CdXyAr6NnQqwB69oT8fA5qthdKsnK9GKs6A3fshowtsA3gEQeQssCTATFYowE9NbVw7pz+UwELn+s/bqyqFnHT4lAk2pISlil8Pl+tVvModsuME58cj9t8sFfYdDNGyGTnqXJy5Tm5jfl5KgRZz3xOFba9ZJXw+1koLYOyM6lnzySeKxPI2jlgWOBp08cnyzkApa9YmXFJX7VS2qnWGGZA23ptU5LSyJUfank85vgJ3pKnWUYHN91Oz7xfJRCyb7wm+HmHVpRAxCUQdVXc4mrHHs2UO2Ja6u0stEZeS81/WkXzoaGeXPI873yZzqotmgfinlRFqXW6LUm+TTHIJ6zT57q5b+n0VW10DJvTU53fU96rsL5PH7iiF+QXARNrXX2VBEpLLPFkshfYosc2xbo+s+/CeELRwX66nXnrDd7pk+ymz5W3Xh8TG0ds/0HxtyExD8+jGuqJzes424QjPGXlkR9/qpw4XtBUy4y4hlq8THHzKL7O0pox9Gp6yjTd3AdZJ5T445EJT1j5jZc1LbmhMRh0c3/01FGdD1QXL8Zn/WDNBKD7Q1Ef6NuXM4Xg5ZfJC8FE0cCjmfp6GHoFefBAjErB4qe5ie57CXXLWIVSRfYt4i9bwImlhYvZrEympZV8YhagMDNcY8aS324XNtVy33/drZNJqaJLqfoadsnLjFDIokFo/hwKwTRkiOKd1YLn5pPtzXYknCN2+DD9++OphemNyyeUTVnXV6sNq2WHEy6tzC7Kry6+9zTctBRuzOzdhOMBIO6lLuyt8NdC/bMdWkk1fea0LjkFOmTGVtRoY1TB9q+Fn2wQGMCEdCx/m5x2JymMZQcM7dTos7IYtC+Yrro6Oi2DQDB9vY2+bzIxczLRUMNs/Ij6/Xfh7Pugu8BkIG/5rqLjNbD8rhInAxB+j57PLvoFANX3t+rKDL2TnOX/b2eiv/B0+2haoSQmTqdlUjYp0TglJSQyTU3W01NrC5dSX0clJHX+vmtrSHFuZ05xrraumh1wufLAHk4OmcRYkIzTi98UtSng9TuKg4SewJAxJ7M3/uRHATxf3dlx3+MJ1WRBHMHqoLGRSEtnT//JjrxKwRMQuYWUUkGi6q1WQXy8NaqsWLBjO4PTYmYuR96oMTRFsiWndMXFMYOHcyk8PkFQoFazCfHdM83ZDtj8rUWJQnj+5giCVCNFPQY9kBUPod28utzAE2s8od6NH3xmurHlnfOU3v2ojVu0qIz37q37eC175i9m08eiT7/WvPmO+pn5nEXru29g3G2qNZsYVLodVVV7nnl2vuj9NeqvdummTtfMmhmDAF20gJp+r+bDLezazbr8QurUMQY3v/Dr30f7RQt0RJuj9Ec29b2sB8y+LoIg9Wt2wkI9O3CDb2C7DG8IcXaR+drNACYTy5ys+ByxNezTzdd3Vp1Nitdtvqds41H4cG+o2jm9GL4XUTcHqAAYk9mHkxDO3QocSSwr5HlBR/gVae2gHvi04OErQPLK3Va9C2N2oW7+K0A+wJt1pdYzDmLLAC8nN+GHAx/26Hw9//4tnFPHsD4dPqw2yKt6Ir1XC1rjAKzx5Cu6r76BRs+hx56mps8yWgFmPEo/NJdGbf31d4mtO3Tf7VHnFFpv+aFNfOwE60TU5fcfUzohLC6RXPIa+fUuHVpHn3uJK47WrxJJxxc/aL/4TvvIk1yjhpTPd+gwZdoFkpzU6d0j1B2x4J8VQvy7dnJ1XgbnNhQJl4THewwysafe4MnRDGhiXOHF1JAhjF33miv+RsUnsHeMocZeHyM5Z71VMu0e3aQpGk8H4N2VumoJcev11JireSuXG1eOCgV52/X0hLF0Ti7z4OOcwo4pt4+hJt/JmzhRPWikNWoxA/4AunIhZD/eIjXVcIIPq6aU83kuVrJdaTGoyv6SnfSCn+zjDz2Kxkb7g4MW86KL1AVFwvJiazDhcq9ffwXLEDm9hFVndTi6Ty6kho/QtLVzdqmLB1H/WKKefCuHgy9/1D40k49rQLzv3Z8S5yhXvkMY4FsvsbAgoKfe8neI9RvlK/5jdJZQStnDh3l5ecQf+43DgUK0qEjX1kbu20Me/JV56VUG3SYJgl38HN3exu7aI/t6m0icoyspoV9brMvpRS17Ra3VsQxDLHyKbG1kDpyQb/4kvkcP5vAhKi5ea9KcrqaW4S/2qwn/uOFfRg9YgwrlXFsNKoh4Sgzaze2PuqcVWeW/9jp5xTn7lqGSE7oXFsW+vVz9xntEfJJF63dNJb7cGvvNNuEdE7n6Ro+jxXnMxLHknFlctlN/6HAIcUIZNIIqLeYZwITpObnEmVKeAUxzF5I796kxgzk9bU1samqnzEvLIq/6m+rEcQuxUSUhn5/H7PhCu+hF5rMt1IxJ8Na/6UVLuf3Cunp68Xzm/skEmj9wJ3HJS9q1q2MemELs2E7Pnsu1ExfHrFrOPvkwu3m9VtphbblAZ4+IutzFk/u/Kr6ASIjTKOUcG5GbxAWjN96weu7u/k576w1URzsx67FOgzgvhrhriuzzLbB9G0yYJEef66HDmJ9/pBAouEtjuFat4E+cClOnMx+810l2fR2bk2fcKH7zZeZMGS7nLUYwv5A8V8HtVaITLQq25au0b74uPHPKQjqWlRgrHDhIeeMY5qU3yUmTWaWlzlZymupZQFx0kfqUHot/nWILC7l20b8UpZRFk2ZfntjS19GjsEx3F0/ud16tZOUKKiaGw0plBTFipI5zyKdhxEhNeTln105IIdE4efYsEcOprcbr+ps5oTJ7HnPfQ0xsLDPyGqqykhw0hBsn/W4jd+3eqR02TBUXz5b+2YmGv47r8PTB5Bl65xsKHasthlYgIp58WvvJBg5iSiU5/jp64i3kN1stHRWM1XP//jot+Gwz9dxcZuE85rH7uC7grwD/Iv1Dh2tKS6GkmNenH8e0ywZCSamFNGJYPGtgLY40EbNJbOCitXw24633twcOiHrkEi0N8O0X2uEjyO0/qbCu/fsEP27X5vSkVn2okCvIxgb2mXmdaEbD9z8WiH7YzgFl4j1xEybrnp1LvP4f9liZTChkOqQcnYjCTZ8Iys/gbScgcC/voRn8Rcs098zU4H6OREKVFXODiqVwxYenXD7fyseZiOwUhc76tXgB+eKr6NyMJ2GIZYsoaQfbo4fm/fX8zAzt7t0xv+/VLq3nLX1ZMfMBVqfVLXjS4teI5G34KB5sHIOctRd2zzj7uG2nzC3mdp+aJ9pOhcP/Rl9yGbv6XWuN27Yqlym433LxRTKlmhx/c6LVJOWybNczJGeQG7eqcNloXpUT+zhms7JkihdscLTl0HXygrAG38932Mnf/qeVyYguLr8NzJr7KLcuE/CZD9bKDdvDQchEj0jihbUFwS94Qv5uWqu1a3/yiPWY+exfuq1bE/EmL0f13xUakd8cbOwSht4QVsLJbjaPEt+eEM6eUr7Ek5+2qD5cYyRywADZOyscqtIeDWo3ZtboYPHYsPVB8CWe/DRIp4/qvvmGE1FofLj6aulbK91Trf1Ejb1qbXd/7eUypj2xpejSLHhoVHhCKgTwhOOw7oKIYoC4+aa2Zf8KOkg5AZDVIwyg8MiWwrsHwvjBEvdLhUrO0MDT0QO6XbsS0BRE6k2kd01ue2qRnQ24UGF6fSv98Na8d26TXtaT80ELpys08IQcX7dab4Li7O2ceWnWrJZZT4QwpE5UCB/9Iv7t8VWJcT6wqgQPIn2DJ5ceB13v8IFftPv2xRvAZKjtqfktU2b6xR7bdWrdqWHb4eyvTsIbtxnPh7hTJPjzeIMnW1e7wPRz7WrOrogiytTcC8uabf2lAkOMT1p584cipQaeHRM+urk3ePIJK72o5JfvtYf/sBBRWMm/32oJ8HmEU+W+nKGe+rzvqEKYODxMIBVKeEL0rFllsfVhAOUHq1rs+sd5AdnAF1Gqice/zHtlNAwpDAf/YD/iyR/mzZ1faU+dst5xJQl25ep2PMkeeDT4pMXiKuGjX6a8Pb46LdGXks8ntHlaCW3tLqSv4OIC4IPL4dGZlbVgxIV08wyeEuYw//oPBf98Ve9dZXYlJOhWrFHeOzWu5rzDgr57YKdfdtmILerT7TLHgpyf/srpm9n82viyhzZd5js6u6EmGkNjeduseVmLddaFOrtSuUOitm6AWQ8KCgqtTyjkiBX/+S8x/S6+/8MZ2OmXIzbq0+0yx7qDb+8sWjO9eObI4+//bMfjwzp3sH7343znvy6vWm3miWfWTP/+8ndW6MiQtSE8t73X7JEwtHcIK1IhiadPP9RV11p69epRhaaEkSM7/rPCf0j2b801zbz53yT/86bq0PVpCUk84aiu/sBaK8dEtHYyLDF6dPvLb4Vqv749mvHLWVh6S6j6tIQq3zeuYZpb7NgOcK2HUmrChNZnloZq15Zu5xwQ7hha6V9h6J/a/cL0AGy/aDXsqpX2o2sb9mTuv68VTwb7h2l+r/XZb/Nev0lekOX1UsnvFDpqwDd46pYdmI/XMgqlM6PG3HnN0x5wlsERU7o9HU+sL90FL990rtsp8ZQA7/FkewzB07a7mF/ezq76wNm7H7D+RUtaxk/ukpTyyFeuiz0yL75ub1GTHOaEWjQp7/HkQ955XdWGNQwq4M6Lv/6v5v/TH+4zvzDc2c59HgdKcN6Qz58u2dF71nC4NKR8pEIbT80NqEUluRzI9z9oweDSpmxLXycGDpQW9FTgcSgnZVEyGYST6SYAeqE5Pfh+mEU/xC6+vsoJkcH2yBlDPaW1W2bAj9ZaH8m1S/aKVR39Luek1NT76clT2gx5YkV28wZR4mcHcxtkoeRs7ks8dcs4YGCM9etdi6j4OM2K1bKxE+glL+A7koyXMNbFXNktPbJq9MUfCp6+BvqKrfeXgoE2WxpCHk/YpfVr3IJFjyz1q28YJZOBEcEvn5BOSQN/0few6IYK28ELwpRwwBO+wuXTT12LKOQ+j7LY6hfZsbF7Nka2OpZn5d3LvWF/kYaBe68KAZ+7cMATDsqH7okoq+Hzh3zCgAX4wYZMN+5hxkWuZTt7Lr0R8jKDPYBimOAJw5Rt28ad+fToiu2yfPKoua5kPlsTs3Qn/OP68q5UEoCyAcWTPzw2TTwyHEs3P63gkn2xIrcULyf1OJJGBhHlpKAXj1btKYqPgbuuCOpZL6B4coeJXmPu+CHdzp3WpxWct2g733WXNdw5naanL+/KeWYUCAUOw+G5WY//snUznnw7fuvWWB+ocs44kcgt25XzSvCpP6SR3UaPnxNtOwmPX1tq92kwJHZpbysYOmCgAc+3XHU1/O3v3Ia8+ZlP5xSKYn2DJ+et+PbpWz/3PvBE2edHlaXV+hcYBtnVbXgySSbDjdc/cYydOv72Nj7tDTJ8JZ8COaYtHdSrP8O8ayoe3hiMbubdPN91cSRihMTEia3egQmb7ro+3kX6vSu+Zm9RQTL83yWdhn7v6vFHqdDGE75DduyY5K+3ufBaccQ4kSh4FVtHNBvSX/8lff7fG5zn6ZanAcKT/3bmMV70vIfh6hFJy/+bjHGqPWJiKM53hg7u+jOlvAVmBp/F3C948s5dsyuYw13hN1/WDb887qUXk6skRkXVpS0qdOUTourfu/PRdpAcH1xHiv2CJ4+EhA8z47tZ1r2nGzWM/+S85GPH0FjJKelOUCUK5dhLuL5bcxieGBVc4X7CCk8maG7brLvzJmrGvck//cxFtXME2ZCWT9ipt3/qc2t/CKogd91mL3A0xj5M3/uDbu8P0H9w8t3T2TvvbLWt2Vx/8pX9wrYV/6UolCTaDmZfVfXAuWCxHfhRPnWLu6bt4J08rFswh7nmqqQVK5JVGov+ikTOok872puzbaIbUzYdKCpIgRFF7d1Ig3nTfsRTkPTQQIaknPnXUt3wAfGvvJJiOquOhz/xhUFBRacXxLyzL372yBovCvqjiP14PX5oyUXMGjfj2nSRMI0SNqzET8Ktk4ip0xSMFhgtn28nEoIhzo6xNVdhiVwS5aLvLss7z7Djz4IHhx+/4fKO3afTnOcMwFM7oWf806qFomYb3cb9uDY+Ie+z9fDZeoNksn8G15xCs3sXvXBAm3elHFRmL/ntvWkPX1G982i8vYcBTYuU+S6gTA14Y98fT0WH4JsH1ge8ZesGo3iy5kiIfn93X+bskfjO+m6+onhyMQBeOz64qNfXj/93OqlOCncO6+aoLFE8+Xpgu6++/+7Lnj3SOrJogMmJ4inADPdjcwfL4k/Vw7Qru9PBPATw5J1HuXel/DjaAal6+b48jMBJdt+odl/LAeFvpDWCrxnaew7u7z4/liiewg1yK3/Nm3WF2TtuAtu/KJ4Cy2//t3a6Srj/fLdpUVE8+X+EA97Cqt9yMBBZt1zh7K/ic4YaPCZwO892v8jnbXWlwmPlopP1MGl48ebfAu3HEiD5ZOsB7FtvEN+eC+3KWAZJ2VW/ZT/YHSIqQHjyH5dtI+Y48kOPKMwdLI2vaodxg6v9x3m7NZN5GWp8hS3p2cEQu1V5k9i9uxnhjbBVv2XNGh7oV8HQi0eXJwsgIQYUWmhXQquS+9ui4D5NclGzLK5FwWuR4YfukIW8MPMG8n4rg2j2689pz+nE2VfWjh7Q8N2xdL91wrpi+rFP+6CxAl2BYvlMnFAXF8PECzSJAlVybHOPOFm/DFmKEJJiIVUIIj40y6FRzv1tUkCzDG+SWuSCZjkf0dYqp5XKkPd1tGZPiH//4Lf0R0YEFk/o025gmkJBNndwyz2CEBAEBr5JQ5SReqgRJHfoiEdCkkibKNQkx2oShaqU2NbCtFZEW0osJONfIeBh2yYZYDzaRhnKNkRbbKtC1Kbgtyp47XKqTd5Nc2qIY6Ir5P94ImX2lQ2j+jf/fDKlK/W4X7bTXoCniljj8WtbMcOlKACkCn4VwccTSATijMjgoIY3JBfSBG9i+WyyiENbcqw6RdSYIZL3SZMnCSFRAEn4wXfWPdd/44ziZgW06udTnFtbFbEdqtg2Jb9DSUN197sXus+4UMn5wW/JDw5v6AY8ucMgxjngcBLsoIAQoJ8/ASncNKoXbySpf4cBAccBFnxbgBIuQaBNEKqSBC3pcfJeafJ4PqfAwYH+5jS8NbHYADtY3x/XKYi8NgUPRR3KuQ45qdXagt6dHhjzhOLpKA+6Z5b1myMZj1/ZMrKofX+xl1EePGrXl/ZMk4RjOBSZX51fKxv4lSYJB+kc5gxCDuAWyzIf/p6TKNAkCDmHnrzkjkuzOhL1og4nVvyr0HBCDkXdBMtSw/p0QHWyRywwZDaoxv7Wkb0grOtFVvwmun94TejhyZ2eO5Zw1qWPVYhKKo1wn7OeE12X9NQYNDmEILduEOoShFoYaFFwXP9q+MUCT/+dXGxYQMwHzh5jkHMS69bC+fvnh3KeuKp4YC/ZkbN+fyGEL+VTF8fEsJuB1kjjQVCbQA9KNSfLDK3g6qGxnQbC+qzT0m/7TrKk4/39OYYFBCab5Nw3lnlMc+vTKCYH1oXfovWD3+C+YVWPnfX79ktA8eTOiWF38iAYzFYPFtBQcZizuE5WiSpfvNuQ9Oz/LcObwsUfwWCLPOZzq9WiFRsymEhQyKGJBA0l7eqshnYSrSStUrpVRup01i1aERAMXzEi/pyrii/KVfxVaf9V3r4iMqB48hXRHtXD2JNzJm0pZ8EGXJ8eI7hgLASRCHfCe7v7mi9ahTw2UaRNjtUm4QJCKEuJlRek1Sbk600ksdynQ2U0kTRIOStJgyy5SSpsCj606UXU+fmV/hVR4Y8n5+CzspIgztSdiwlO8CjQtCGlzhExaA8hiWR8KODz1Rq1adGaINQli7QpnIlEmSpq7ZfZklbQYjDLGdAGiy3WrbjUapLym6R0gHW49b/2PTK/5N1MdUUd3zlPuvI0JPHUqWN1pevulTUHnEHSESSpNtfkVGR9K09vBE4w2eTM0bbXsqHRRTWpIkgTwVUAnz1QXK83/6IRmDMFS9PqpYKGDl5TO8924naPXoe5sML3D8LM4eWLt/lRRIUknhzyrDseoBFYH2DKSou6sG5QWW96vvRdX1ylcqmLYc6XBcmxupRYVapIliqSvvd95lePn8yIg/Q4ziBS28HhzAS1JpmgScZr7KBlcus63ez3h7/2PvpU2fI92roWf407LVmigkqC+1SRWZUUFegNaTdZEarZLmw5dNKPckLyyjTD94PzZuJN3vMfFVcaQ1mMe5ubHC8rVOM0mhqnTRUZoTZQ3IgiLTUW0kVAkVArhfoOqJNxf1GqGaDWLHWxZ98mpVBE3TvizKvf+ktE0YBI/RsD+QTksrXcixxYaGYBT5nWsVBDQC1ALf4lBbVEUjVFSUN1XIOZbtsVolxBKjqn0UTjNgO3tcVtpMby2NR4TWqcOk2kyIhrNYcan+Zmz3opNOCePTeBxjXJRI2ymKYOHmqBag2x7tfCA3POvP8/HWLLHzyhC5ZZmOFVGbrqHAbEOshkIJOFS1i4joUsRtkDQaXfbelgATXJapRngCINKqn4SiqpiqTbvRTCTnvlKNKNziyGjkUF7sT9MS/rqB4nVPH5nuqzjnphbMQdmjErx31OmwOpCmRqqGzm9kxJyCUIFnAC1e80xPAZ/VJUkxKnTBVK81Kll4ulKSJI169GlVqol0N5G6yZUvbVaVFtR1J1q7C2jd8u99n0Zx2vh6gEMXcEHmmzg191BtuQrYNslvvksDBEB7dpOvKJjlg9mFoYKGehHKCCgHMk/k2rpGLqumKeseinedwcRx7c7sT9cRCLxwmErB85at06n/G7o14YH7tDs4OarZOR1w14mpOIIblNrQQcRg5nJMKOE2zxAiYlTtO/R+Mro+U/lMqGiWXZ/SA7AWgSqjv0ywIzk0eDlN/YwfPU6c0zYPLrCXE9DUetu4HfNelsfZ4OerLQE2dPFq7Be6IxBX9UBChxAmWhAv8ScF6vq1XqdTWLl6/aqdM2yXTq13DjpvHTtp5wTXG+hYpzaEMbXVKdMyKvBJH3+g/cygCFXHwMgxOolckD1bUMEQhowDAbuDIw6Gr10rSGDkGDFJcFPLvubp7hyckw8BoIcQMNh62z6OKhNlcHOIfmstxnBAMTAfKZ2lj97NnKQAVw6hp+OKiRokoisZIkVJxUs96Bsa47+t0zDpiWohsO57x2S9V7PyOTOT4r9ZtXtiYPfCjgsWlxqKtp0kTy9LjWAeLG9FjIxBWoCDDiVB3iTHoBah2Z9dIYn+HJUc9wwSg+RQF+bC5OpOXoIA+nTob7O5qFPEaWT8o4RY2FWoNIA5gQJ5mqBgkpQKWt2u8E25AZhglHykVqHaAvBh5bwO5dkGpWmokBaoCa+1k05xJxBuuafgLlpBpuyaNUS49TpcVJ00WyPml1CLLuHB6jSDtiZ8AUOUxzLoo0TqoJP5WBmMWPMgeAttgAlvxbBTbxCqOToB2G2iRtPgYTLqs+WOrCcOAEajh7olQr4dzdEo2KGo6PTUNBkSCsIsW4ePzVFTFozrB0dpJINKBguBVo1YV1qISA7esSq8m2B6f71f/fFa3B9fzLo31eeqb0hR2M1FvrqGn2NF++Bime3OS9+LUYySsWeTMvoevEDGTjhxNp0JeFUdxNWw8G1oNEooZGlrN0SBBtnDyXjEM7NJlcSwhrCYPS5mbToZ6tXUZ+ehzGX16Krgc+7Eto48mWEXQLIW6h4E876hoiL2UY3czhTA84sb70LO6+JZ1o4TRTtO2wUI8fAvBlYHW4+Abuvpbk1xEptd4sSG0pDJ6ULcezF15bvWG/LykKNzw5541QQopxKjxkRBsiTHxTp0KmymQbMxhIYyCDhXT8oEsoAKZks5uwkzcAAA3WSURBVOoeRC2tX5BqEW1qqMW1jR5tDYg8Qo8/IrmRFNaFkpA7UBIvGg0DesqOnfOZ32Zk4ck52tD0Kq5DqNmRbYaCukRoztKpxRQkaTjAIdTQ3jYMkUdAJrQkM3ohB6DGyZSB8xeMIM8FL5NxyrtjQNUx373+JXi76nzsvXjadWUcDbDpbRT/HMZXcdi+NpVtSWPU2bgRojeCXGadU7JfBb9YJDb11XWXHeSLo4V755xZ9g2r6dp5IVN/QgxPthbOYDuXQjcR6U0UOImJupCCGy3wpPxRa20HeVLFbVidIzLPUVihNSR9972+lf6hBG4dJNl6EI0xPrhCDE8+6HF3VyHeTUss8STOszCqcQQaNqwKiLpk/Q4wmnbP4AfgDAnlRNIZSoRo89H12fH0h0c0bD3om+qiePINH31bi/hx4ytrsVpVFtvYSwe9GChkOc+iGURrT7YVFTU5wyGsjIUyAkpJQSmZWuJQ83NCHh4dfml0Q1GOsriqs1En+Z0/iuLJOX+6/2lMLSGupcFyVc/EQk2hDgoZDmdoY7tZpyxiJBTD2XJLgPuU4odMLKXiyl1LMrSVT7y8YlmVDwxRUTx1P2K8oICUg/gEBfgxu9gYtroPA/jpzcDlLExk2nqzbSjJ2hlOjJn8iM4RGRUUr7FTLdtwqPfRJ8ve/UXXguECunZF8dQ1/gVTabTvi9GQa2nL1cVBbR8t9DLzIyog6g1q2TkWTrFwmpCcJl+qgunDy/7zY1dFVJjgqeu2gGAChi9pQRdt8REabDbdldlsUz8tXMRAPxZuZf7Rp4DzXVGroVSvlp0hoIyk/yIz//JMYoUJnrwbgUhGITr/iKt5sKuTc69NKf6JFq5u7mHU/a9jtP1YCe4KSBk4jWIMoJhEnSytzJnPbUTjyTsUhmupj/blvH9n1XfreeYdZARQc5EWihi4iIXrGXiMbeyhPx5Ww0AxC6W4tERJRmWWkLhzislRPIUrPDzu14kK0el6uGNo5dZDuabCpBLER609vLmNzt46TvHvw8J4boFZl4arSM7/MYonj/kexgXWHsx67rrarYdcdFG/0UnDPotsnAtkb8a1ccJF3dHHYcSBfcWJcjVcf2mTF33iXCB340mZELyiHr3+G7RVB1PuG9bodf0hiSevexst6JIDGKwcT34Ox7CRXl2Ri6cPPoYVG7ziWbgXWn0QZgzz8kUdEYqn+2dTo65pv3ZU+8zHoisS698HvpVqYDb0y8UA4R5fkYinnELqmWdbDKx6dkGLuMAzE7DHPA7BAqswDMvQ814QHol4mjffGEYd+YVhDufOt4hX4QUTw6/IxkN97rwUMpO1nnYt4vB0/Vhq7Ng2LjqE/sKbcePar70pOutZIAdDlq05BHcPxZ08zy7ai4A1nrUQTLkx0sgzC7kYViiWDHQZbp5eqNy7y90zHt0VryfAjNx8vO9X95S8v5ev8SSAsXW8ngATHeDm5jxL5efZUTMLC+T3PyZY/oa74j1o4/X4kJ9lVcSPZXD7wBMf7fPAiSWC5ru+l1KPzTaq4bZ8nzuvuddFUcXcgjHrf8+ZMcSWVc5SIghPTz7jQu+e+7SLDM4YGY7PDp8RYejEGwfguVV3r0jB07i7aLQ22byoqJNNqJiPvrF99G1RxdwCOmt/T5kxpNldNOG7xNzPGro5YxOIZxdwajgX9s/BZVDMn1kgpzFQYPS6wIHvj6Vj/OrBhTI3WRIReJozn0hLU7vDkRyx8vH5EcETd7hhyLP2d5g+pMrN/OHPu4FXUDNntrrJDsz28CMt/S6PKuadDNv0W9/rekNepls/yPDH01PPaNwHkyHnvKfdNRx4WnMo5sfQBmjbnDYYz1u5vsIcT5Nn0sOGYUwnD1Qi1Nmv+XvH+MlRxbwTPRsOFc4cCiJDCF2noApnPKVmkc8u5GJSm6zhTllhfGjQ2Z9ZIEUt3p38kZAH3/fy2QmYMhQPHbu4whlPc5+GWKGXJqW0VPXj86N46kTPx3/k3D3IBZjwcdji6cprqUmTPFDDbVl138zWAcOjirmRMcfPiWra4QZXruVhi6f5z3bG/KqSCH7+ya23xf+8O0FS0xk956moYm72O9twJGnqIBeu5WGLJ4WCqDgvXLEiecIdyaOG8d952y39+p236GuGxEyakLx6TRICS6NxaP+0lWf+SDG9X8QflXta5/Y/Mi/KAIzs46QgIc72YPfYSUVB/ihdTO4/6Hr6GzksqQFDXzq90MPHQ/8Crjrbd4pKXrnbdODdCjemAzy2pZyS5veHs68txrdVvfC1Q8yErXyyYi2iROfqsCFmcAkmv49YcDew+Y/C6YNAKHT4k4sUPOEwVVbZhBW0HDyXGYJ7rANBHcbb/PIkTBzs0HAQQXiSVLpQoVxmCMSIBX0bG4/kTBvokMpIwpPExeJf4iqDQy5G0gN0impXwTUX21dGIwlP+IIhp5fEVQanpSPo4YYjoimD8P0Qdi4XLLZTImSTql0deXWZwX9dxwWdYU1nuvFfW12v+fNDOcNyoCDLTlT/SMKTKx+ealcZuj4SYVPD+iNw1+Bztt2JIDzVVLswTrrMYMu+rqSEdLTFzYcL7hkIPJ41SyMIT7WuDJUuM3QFPWFWVtLI31kKE4ZgpHOLK4LwpFGy9Q0OTVD4CDOE2aj7tTsfH8m29TiIIDwhcyVVFsFGzdnt5JFfRyV0K/+tJF7HwJUXcR5mpiuy8FRZ6dAE5eRR6A65vylf/wc9dRC+wzlS8VQtcfj7cfLI36Nit37cCTZsEptu7Gbr3sTPDhVenW9xVMEhf7uXUD+1LtG/g9ru5eSR3fzRROQAvuJ83RGYbHZUIbLw5MRi6eRRFDpOOLAJDQeDgaaNS5nIitfThC+OdnA11SMrHGpX5oU8j9djKK1zIzSSeR4Lz3c3yjromJ+TG9pjfj4Dk0dUbz7YC5uKrHg95x2/1vL8ObVa5dCtx2pQvPCnc4/V5sNh4Q3hVYt+htKF6tf/nr34+uqP9nDbL5E133W0MB1SOyYDTMRHAWJ/2DVjbjiILDzhUEqq+LYDajfRNls0xREHTIaDiMNTVZUdJcluoiPeRdNtOWAyHEQcniT28GQ30ZZr0RRHHDAZDiIPT/ZMUFHjkyOguJ9uMBxEIJ7ssEgisZMYTfKIA5IG/q7SCFvfIYNq7Hlp2k30iJvRzMiBDX9kR5x8qq2yYxewmxh4iIT6e9jQcBBxeGqoYbSWBzvxKyYGHj1h2WLE4QlHsarSwqvO6qufhjnUZY+bbIlEPEmqLLYyrL66ybhoNrsciEg8WZ7bjB7jtIsM7xIjEk+W5zajxzi9g47dUpGIp2pLa5PVV7tsiia6yYFIxJOV9TJqzHQTK+5ki0Q8WZ3bDPAxTndGJXTzRCKe6ixNmlZfQ3csg4HySMSTRsXWXTjYiTf4NRhGIjxoiEQ84chJKo1emqab8BjObu9FhOLJ5EAX9aTzLQQjFE+m05vBdozTt6Mb+NoiFE8mB7qoJ51vMReheDKFDgu5GGJBFeHeFosRiieTzSlqfLLFRFdSoniKGgu6gh/rsi5CcltnD5fv0gsHO/EmXPoUFP2IUDwh7wcVCYNiBMKLiAid78JpEINKQ4/iKZyg1f19ieKp+8cgnCiIrPhPPhk5b+M/edq4dfynU+XGFMMEd3GBKRCDO5GlPG3dy/yRFf/JSybZFAtANKbe2Vyrne9TVGkxgpQ5IWY0BNEgRuc7G7BEE7rAgSieusC8aFEbDoQMnq67hfpuj3rrDt3SNwiSAvy89Cb5+Q7dxq+Yy4ZymoQogcjMMXZnxx5Ncob9ro28lvriO+3XP2nXbGLyetuJBUXzIL+PnXQb1kUT7HAgZOyZ5Wdh0nhBWxOzdYd2wFC+SASZWdrbx1BZeeT7a1Tjr6NnPEQ21BOb1zmzd2PmZS8rJo4XNNUyI66hPliruHkUX4eaidk18Ap6yjTd3AftMCua5JIDIYOnM6e41Q0Kj4xMTW01r2cvIk4EFA0CAVFUpExITbhlrEKpIvsW8Zct4CC1cDGblcm0tJJPzALmwlJpzFjy2+3Cplru+6+7dTIpVXQpVV/DLnmZEQpZioL5cygE05AhindWC56bT7Y3O0OnS+ZGYIaQwZNhbCZNp/fvFdacZ2qrYORV9KavNDSlranmtzcx278W6uWTUdosf5ssL2ZXbmQHDKWPHDACKiuLqTrfGTK6ro5OyyAema37ehv9/ZdanEPxJegbP0KeCOc+iPvEUTB5/Iuwr2R4XE1ACmT3JB94WPbPZRwgMMDeGy/qJt5K1jfSa1ba2YlrbeEcB+rrqISkTgDV1pDi3E6HAnGutq6aHXC58sAeDjomMRaQ3oRnIyGDJ4KC197UvvqSqKXBKDZ4fOKF1wiZlPhkHSd+1CqIj3fhfLJjO4PTYmYu1+tRY2iKZEtO6YqLYwYP51KwQmxFrWYT4qOSyUu4hwyeJt9DDxsme2S2EpdmS17jyOYL4JefyCcfZQ0K9XffwLjbVLhqQ6XbETNqzzPPzhe9v0b91S7d1OmaWTNjWB0sWkBNv1fz4RZ27WZdfiF16hhD04Bf/z46xJQBR70OZDohzi4KZHth0Ba++iIA9nEDozrt43pbuTn3TAGlzPN0O3sd/pS7nbIoAaHIgSiegnrUQi6qXRRPQY2nkCMuiqeQG7KgJjiKp6AenpAjLrokDrkh6yTYtOIz3ASDshXFU8jgyQCXoLIO2PLu/wGUC5Ii+TBnNAAAAABJRU5ErkJggg==;" vertex="1" parent="1">
          <mxGeometry x="124.97" y="270" width="140.05" height="150" as="geometry" />
        </mxCell>
        <mxCell id="SYbg_JmhvISxXENu2_E_-2" style="edgeStyle=orthogonalEdgeStyle;rounded=0;orthogonalLoop=1;jettySize=auto;html=1;exitX=0.5;exitY=1;exitDx=0;exitDy=0;entryX=0.5;entryY=0;entryDx=0;entryDy=0;" edge="1" parent="1" source="Rzidjq3mTr81ao7gPDMC-6" target="SYbg_JmhvISxXENu2_E_-1">
          <mxGeometry relative="1" as="geometry" />
        </mxCell>
        <mxCell id="tT-KymRBnLhKgLXHdaY--2" style="edgeStyle=orthogonalEdgeStyle;rounded=0;orthogonalLoop=1;jettySize=auto;html=1;exitX=1;exitY=0.5;exitDx=0;exitDy=0;" edge="1" parent="1" source="Rzidjq3mTr81ao7gPDMC-6" target="tT-KymRBnLhKgLXHdaY--1">
          <mxGeometry relative="1" as="geometry" />
        </mxCell>
        <mxCell id="tT-KymRBnLhKgLXHdaY--11" value="long tendency" style="edgeLabel;html=1;align=center;verticalAlign=middle;resizable=0;points=[];" vertex="1" connectable="0" parent="tT-KymRBnLhKgLXHdaY--2">
          <mxGeometry x="-0.125" relative="1" as="geometry">
            <mxPoint as="offset" />
          </mxGeometry>
        </mxCell>
        <mxCell id="Rzidjq3mTr81ao7gPDMC-6" value="&lt;div&gt;Check the Hourly edge,&amp;nbsp;&lt;/div&gt;&lt;div&gt;whether HMA1 is above/below HMA2&lt;br&gt;&lt;/div&gt;" style="rounded=1;whiteSpace=wrap;html=1;" vertex="1" parent="1">
          <mxGeometry x="430" y="110" width="210" height="60" as="geometry" />
        </mxCell>
        <mxCell id="SYbg_JmhvISxXENu2_E_-1" value="" style="shape=image;verticalLabelPosition=bottom;labelBackgroundColor=default;verticalAlign=top;aspect=fixed;imageAspect=0;image=data:image/png,iVBORw0KGgoAAAANSUhEUgAAAJsAAAD3CAIAAACFNbH6AAAAA3NCSVQICAjb4U/gAAAgAElEQVR4Xu1dB1xTVxc/Wewtyoi4BSeKE1HUal3Vuvfes1qto1pXq61Wq7bWuuuqs9ZatW7rRJwoLtCwVCRA2Jvs952XF0JIXkISAkQ/74+f5t157v2/e++555x7HoPr7QdFwcraWiwSqR4t/Ad/mQimALAZ8FBus4hTJYqlTXBtT9HoVm+ae0GuCK7Gwpmn9aQyRqGIKZdr5n2/+q5Jvdoz4/1FlOoF318GyyUQxAIpARsJ7q/WtL3t1Tylf+NMFxuIy4Cdd2un57ILRQyplKHK/BFR2nGrzEj+HBHMV0zZk3LubBtaUqo4y6a1j2nJhUwhHAjzfBrvKBQzxBIS14+I0o5Y5Ufyu0nhJxlUZcJdudcYa2YhPUlTOvG61QexFP6JsPvvpbdIypQTNu/RjkPfK0Xse7/q0vYtt7Y8Z7cYGrIhVgaLWdw7bNpsA1snfN4o354D1+PgxJNGBUKJUMSQyYqXYtpSFh75YSJKDbrcFpK2CaE7E6QAuwnu9/RbbDu/nJEBST4uEJUKhx9Vf51qK5IwROL3FdcPGVHVZOJPFsNCAhwYECZ3nmvl8JqpPc/cXVljWkV2qAUiGZx7CWef15MouGJCiyvWLmtRMaYjWrM+65uVMm9vKYcj/22z7dkTsi8WsUaMLEhJZmVls9d+z4p6LmsdzP59X3YUz1YqI7b8bHXnuszsnWdzgFuL9Ta69Jrzasuzf5FAKybkyWEtg7vfSp0YFWeEXPGgppk2bIhJgx2hdfJFLOSeJAru6b0IJiLq5MY8+1/Bgi8dHoRIOdYMe0dGVpocEc3Jhj92yuo3Ye3eX9Cvh61vI+bEydIZ46BGPdbf/+YGt7IX5hNmHBcGE1q1Z48cI5s31Yhq+StFMFWB0GW555c2rBzypwav61NNPDnwdYA3pObD389dQ2OqiKWMQiHN5DZjd8xSFT3LUGrVnw9g3rhui3BiTomIyBKVGNDoF7KH92w6dmEkJytrio+RZWaw3aoyEosQPXxKznvJdnElNm9kOrvAom8kEjEzI4OxdCEsWsqoW08mSGZ6esl/+I7Ney4L6sKaNUciEsK7d+zvFstnzmf5+cmys5mhIczuvWStWhVu2WOzdCEzJ8OgJZL7nTV8B/z2MlhDJL+UQKIc5rJqh5XYZd+lWK08Q8peRrTjjWieObF15u23sO9OPbGMISxkGvH6lDqU5s5gIqLVa8pjo/GFJde6PUeJuvXF3dqXOAKmZTBc3UCFaEAgy8ZWnsIvMeK3bjJvXJSy2LJ9oeIRg2wECfJpc5mjJ2CVxOGDnMtnpI1bsletkYwZwlq3Ib9PN7vsdPmPvxLdPkeaiQQ+c90KrE2eloaPtoo5ahCcqgHkhrKgEylm4u8SwnH56/xcWAHcYyWWYkw9etfv6F1oUSd/QpuErUNiXqXAztC6hWImCigskys2EVFBErO6j/JNnTSC8TRGCiU3mnr1ZA/ucnBEAtsVnPrPKj2VmD7ZXiopsdvFxZA1ePqwnJylc1A4AEwHR1nki2JhXixPXqeesBrXMSuTg3BijsgIZp06JCgxUfg+GQchWYwucKeS7yL/RwmKnPgbxbCf4C7V5Iofx9k/jvNDmeKUdm8Ojo5Frnj/w+oxAluVgIKu4sqJMxHRC//KT18oOH3S4cUjqZ0Tg8UqMbjtu7Dq1Su8c4Pp34p1764d7qOKQM+8pCTKc7LZ678HxIzJArlMtmItk3o/WgWyeK9scGa7uEocnDl52fJmzeWXzrN8GxYPllhMODli62XlXGqvdBAvFvGHiWEV8MeL4Y7ca6yNhoDidbL1N//4sdnEzE5RS7smFEqUAgqhmGk5px0TEcUVcvoU+xXfiW3t5DI5/HnMWSohQZ35RX6//hyBgDF2hK2okB5CjVcXt+HFC+x27pPk5DIKChgLZ5HpM2cJR45iWduIli3iiIXyFUsddh4QSyWMmBjmlfNS34bF8zjyqZzNhgN/EXv3cG5eJPf1sgTun1bwJ6T7yoTb5Em48LyUOk2xcix52kFp8K9X/X69CpSAYoh/zJVoOPG4noWwTibyumUZtVLL4hy9d5eJ+2ipOc2YQVuuSwooDoqgHZNinbih9G9/lyYZw5qlVrEDJetU2Szxe8COmxE2o6rCJZc72JrL5UA4gawTP0LED6B5ya69cJt22G/N1ep13WD7kJhZnaKdHWQ2VpXGDlviHDVq3M2VWXuOatTM3yOEnix4J4fJLO4L+vnauEbhFx3iqznAf1FwJKxypE7mR5TFhpBHwqBm9PosEwCYu4T17h3j70M088OE2nQVKRVRqiD/iJA889BJnVQ1o6B4fKske6vKkTrRv2u6uq0dj1Kb907yqd0Lw2O4IxVHHZQ6/QD8H8RwTe45Syl1UlVyl+eEf5TUadfQuJR8OPvS4forz4oRFJs4R1Fgu/BrccQLdm4u45cfZcu+Z9avL2VbETu2Wd/+T6qaowNHs4cNE0ukEBpitX2TtFNP9rwFQuz5nVDr9StlHbqyvl4qys5kbt3CuR9SohLkWus1Zq1eKxYJmdVrSLf/Zmshc1Qde34rKayVQiMWZMphg6agWJVzaFterwbgbA1PEmHXHYWgWMSQqJlPGP4+GZLT9DnKsZav+kaOE3TEBLZMTowZzHRwZp69mt8zRLneIiSjR4mG9WNLpcSeI+LQ1pwnD+VDenPkMuLSbeHBPdbtOsDlS9Zb1snYHNmwsSUq6XbdZssO4ZwZNihQXLjSbAu4ISNieB5uGBu6kQNYPGUvy7kTNKk9ft/v+H1A6cT4Nm9wyqKg+PhT93txLuV0ijUd0ZhoDiEnObrmATJSAPszeUZMSmSj1J4alKb+DBs7+bfr8JEhJwgHR7BzgHlfM1hMsLKSObswtv9CzP2acfSMbPnXVhqV+NRm2lgTCCdWJREbPsiVk7NYUPwTwedL4KVM+xSL0glKUDw6iDe+VdqE1mnUKRYna4FZFQCmI6oavFc8Fp/P/HUdOfpMFosAubUNwbFiREURGWmsZQvkhAzjGSgMQun82tVWKGbaf9waN2BUsX3/jbzfUOvZ86VPwtnqlTCZMjs7mVcNZlK8nEVj41c5yOlvlRQUB7FkTpC8V55zW5aTJoFlTO6/pChUPRy643foDlCn2N4NYu4nwI6QIgtFg0Qy+qkAlpOjuyoLi82WyQyqlVuT2bgpceUcWTTiGdF3IEyYIuvemyGSsGNfyat4WA8YBgd3yu1d2UtXyrr0YNT1Zd2/TTi6sKdMkzRvzcrOYtjZM/0aMld8L23RRvLHPquzf8vUK4l+KY97Y/vjBlHHLkx/f+mTJ+yXz8wjxdU1Hob3XVcNVDxTBE7H2U6bWLm+aBADufNluTZSpxDNmfM6xfbsc/enKfYda2dPaZfRrHrGmyx7sZzJxBe9bFusiZyR/l69j6kGnl6M7RppPrEEAPfWaAJWsrg3NaHFClEcMfuTqPa1oEACd+Lh4H1yypps8fQRUSVG5YQoVXtBTXnmNxLoo+AwdhLcVZq6HSobHmSHNUuqWwWi0+DAQxMtnj4iWhGIqmY2qdVZorB4eiiHlRzuUxoeAafsjE5RHRRT9moM/PPEOB3AR0QrFFGqsfxa8qx1YujAhCzC9TOO3Vt66TpaPH3WINPLkVyKd9+un4e2EwbwEh8RrQREi6csJVPcLed+S78OY84mNQu/DI7HI9/Ss3XSctml2rCZyOuqaPpgfpiL1zVqQJz+Zue+lcMyyO0rddpPwzRhbSnZnH+fuQfUSh/ZIlNIyPhZdvrlTR8RVUJQKYhi204vWbZ/MPMny3JXyHMfE05v6FfgGzx3gi0c2Ty3uU/GvXg3FBGDDn0do3Ztf9VrZWVlJRZXvoQm9Ek2ktS+ubNR73sZM1d6319vyoX+DNjKqL3RXldf3Bwl3/Z6ac2E5RcbpOVw5HIaWxxL3Ecj4/M5LNn2ba6bfjBI3KGr/0bFl+vpxUBK+OPEsAbgtpw7TFM4rKoBRRBr+vNQu776v+q8RDtt+yb6OW4gBeWU7eF9O6x5/MQceyead7CcGrWEarkHrKAbC9ow+WEimY4VCu8yLz7pd/MNrOmVMLJtlL2dJvtrifuoSMrp9Vkhh00A2+7uLR3bhbkRqKx9VKMfTqlMp62s3DGyvGmy3DjCKZbmwIpFHsS5v8vnjGmR16pmxp03bihjIorGyRLn6P1Q5WI7fXpmbT/6LpkbUEuqTwrc9tZwFWAfg7+ZVCfThpCXzlP+rGfNgm1DomtUE3E4SkgtcY4W5kPnbmwPDwn2xMnF5vK5ipimFjJHVeA5XWLnhstgGUPPwUYoYp574d7QO31EQFYhIUvIJA82logo9opbk926Dfl6NmggfPjIPgEPbeUcLA1R8m1+U3SwWSiTn2faZNBzFSHR7sAunNgqt7p7xhO+m4UiKmewBg1W3rj3qcn6+xh9Z8yIsgUiir1jFTCcdrJzO8sky4hcidTpAb0U4mWi832+4xD/rK5+GZa4j2JPHoZK0ToJAwGM1q3y+o+g74kZEbXkqrgDrWE1AYuZ/Bs6fROhjcTEQ75ZQrBQRNHs4dZNJxxlSjQyd34+4/+PQ1J/ybg7rKs1Y4MT8F+L+YH0x3TkeBf97WehiGJnQkOKMeR6iabN+XCmKX/taAot1Q9DVghOGoPbwhquEPA3wf9dJw9suYjeDS3RzXnzM6v5WC61hkBiljzcqdbQB6Ajg88X82fTLMKWO0YxkbLE5GIdE5NBzJpjljGxiEqo2Vk47pgJ1HDD2Vxfa/gRd1YGP0rEb1nitoHlIopdvX3LVr3DI0dm+bf+/95O1YaDuwVvWVnBTQLOEPxTxYuwRSOKbhY0XuHZc8v39osJM8a0IqbNTu22uFNsqjVngw+DHyvmLyIXYc0h0y5TiTH37pRg6vAk07lzbnfSD8OHEGISzdMRTiqD29Iavgf4koFXIpkzuvAsdngykonnz4qVhdRJZs5XOtk8i+1IBRDG3WdFLsIPCGbXBrB6gOWCGhKiaZPu51swdtrH3ZT+JcFbN8w511vWqAo/D+VV4rVkeuoUsXdu0+wL8+bnOrrSxOup5/8nicnPtJt5JdDGATYOiXK2szi+gxQHyjRnpIO9dMYHdJIx79uGfmUhp4Dz1dV2Miv4aUCklxupw7KcIJdByC0au5spU7Pq4sXN9zbU8y6vyaNcu/KE7EXXgtAJ27p+cdWrVr7xmDpS6uJA9fgv5pa7iq1cX5hyArV4N8oXslaEdkyUwOLur+t504iXyrV7eiq/e5smEU8yfXpnoyssmjTLjjJKlmtCV0rwFwVC9sqQoGQpfN3tjS/XUg4J0RGypGRNd33Kk8w8y9ojTADA7EU0OcYCIWv93SBePqz5/C1elTJ7e6ZVePsWaR2oEXCatmiRh64eNBMs/pm75FD50aiJKLZUKGJtfhB0iV/lu55Jn7cQlF/bhtd8m+4MQ03TefPz2FblbuFgOKmVnpMGUaRJKGLtC2+wI7LmjA5Zg9u8q3Qq74fqZII8q4mnfUnfi4ok21wivbLTrHMsRBLmqcjqW57XnRRYUOmgpifLn7+gOcNQ/Z87N9Orps6OlH2M3q8a9A2ERMq8FOX5qwLUvi2SK7djt29pMkfq9Mz6snKps6DW9SGKZFKg7n5Zc07H7A4NyAtGlRXu3Na3WQ4bloVutiuLNsPbLe+jC1JSCqIUqLj8/hlbZUm35Erkfh+ESqUyfdTOnlvJJxkL2Ur1jZHq1cOZiozSqbdui7omNauVb/gracaccimEhDjoqhBPMsHBeT37V/JJxihQjySSKq+ERF6PxDRd/TIh3iBEsV5klPY9bngjGZZ0S2haU8fXyExo35git9WsAzXKFRmBFhhTX2Xm/TQxvWNR+7sg3YykGIooBeq2sKC76fBNj/iWdSthptKKA9XHom4d4YSZ5TJNafc/2kgDsdkLxfMS9/9hibEGFiw1mxGIYl14TkVQb6U4fdcroX2FM0roJjBZoI/jRQrnzc92cTeuU6WOkdkz7EnkIYnU/aw3AWT1a8lPu5knGN15BPX3sKan3lZd2TO54iVKIXTiQPWRsLWRzSh5khkzhfXrHqjiaXRPSx1gtP6iNk6crLYHhpeaX5Whh+LX/mbkv382Jv8t5T1VlTTghyn9FEqY+8N9d0SQEqUx7SvUokXbOlC7jxMnZvk2UZ5kFq5grfg2s1fPnHrldnvA8LWXgp+yAsTT/fJU8ptPGCgeHXdW7b6YEMPmWBUb8lhxDH1XUCh3PqZ2jtR+ctNID2fer1eL3XOYQIThRR4/1HcqVdUzZz6xcJbVmp/lffpkUJH8d2wrvD2rO6BnDd2JZAo6atDKUGyqWPvbv6hUumxkSjVJ8eHqDcBfE8DqBlYoY3LgHheC+TAH0m5Ze2s1YXQEWyIucYzTeNRTH7q9vcZzS8z2/77dM4fuz779V/nG6SlS9qSkeHgeYde0cSk8bY/uWXUu2NavV4inGmSD8/LZCXGlKwf1fyOYLrWYC1Okko/a2folJk2AnFbIhYBihcWwAV5drUIVScqCdwMBtkALurImjJgpq66qGfSqE5nsNPdGi7reFWd7FnpLe67QdFwFJ6bFROt0PUJT0kxRyxJ54Yk8PG5uVcDJOLBaVXFSDlx6qnSCe/d17Y61zdSkopoyIYrl8WtwbzPspl8ibc+2joyqADOlUL3iQPWxUTlxiokplyONBjekeuySmPkmkTcdoKqCGlyan6uTBXArrvgZP6IokgJ1FmwtyCuZ0ZSnsiKKbaKfpJxC0vYsSQI/DYzr0cycEhDtPqF1oExuHNkx0Qbtvtpt6YnRxRBh/B+QQr1BJwE6uNWu6e3nr5igKsi3XCuxQ916DY8VLY2V8fW0aGCScUOjp1K0PVt9O+h0fPWJ7dKX9S5HBlgmgVu3dIoDaSmMizU/otiQhimCxuOqHjDH2++NTTHDNWT/VlryUnIhoi+ZMoA22chIcy5HaNFyMqLm7XiPNcGPDk7i/X7X42aki5H00Gf/tA+rSVNwdiacnAlnF3l9X+OsFV/HlqO3FTyNaFj1vQQ4NBSmt4Ux3XjLLhYPwsbPk//Qcb0wm7zPbp5gTkSRIrGUmZhlN+ty4NAmr2cEC7rWF6w4bQYeePPWLCt0WGVSQHb3bSz9NXfD61PARpMdscRllpqdF0nJO8nN9vbyFd9mHLgN87rxtg8QpPUQ1EUXnFnLf76H36wt92C2VVdFKZp05wo5h57Wm3G1jac77B7PK/vOunyJKwJj2mDERNmgVwc9QVthoh2jpzglMehWK72JIhM+ivHEpAg/X/Fr9IPf4vOe+Dtgnd8ft/302OhSgt3OiVlUWZP/NT+iFCmoq0nPtZ5zNfByYo1ZwekbhvKsipximUDrySPSXt1cwh7pNEzRU2dUTCmiAz1lDUmiQNpyRyc/eIdXwsWfNqjoWZXNghOKxgZCWU31ygtRJA5XyfxCzskInxFnA9k2cGBC1JA2pmsYYiNlI/qydu8yemOOjTGuj+oTFL9ZjK7FJ3cqhdGb6sNTZ9WMmuI4UJHJHk284HRV8liKwoYyBuN6a0JjuLPi2WbxzXZ7X9Ub3lq6dRQPPxFnQj1UkfXfyWfNdEMZED7KDVuHY2OMWK7VwejTQhC9jLesS2ZTctWE0K94db3orxosuU9muGNqr14mOvh7QrzBIlj97ZQ7olTz+UL2f7EeY84F8qWwc/jrhT1Keev1EH35tLR3d4ebtxzxq4p6sqmSTGN0A31z1/TIWnYZ2m/y+/JPkrnD79it6/1Gu8WlbjxKMj7U20QeUJDJxlW3qot5FGoVhCgOhFTKzC3kbLgbNOt6QNNasG0kz81JL8eiPXhFMYlv5JNHMDb/7Ko7S3HKm1idtr7axVEIQMkB5ndMvMiDo3eLQVp0pn6+BKZ25mnIFma8IKs5ol1XUYwuWYR6iWeJ0NBLKTCyVjlW1V2nnpSKQ5QiAg3249Lsp18MzGTAntExZdlZf9sgmzDOTZBCzhBdK3AC36Yw16CprBoj6igSsKrxqov11Qcuv4AZ9g56NyDjVIvzGYWtEIZFigmqzfWo16Dn9/NkaOwheKDI0TUpRU/OUpMqGlEkCKWGeLxZdTtoR0Td0W2kP/Q3fQXGb51+3t3+/AUnXStwTIzmpf9SR0SVgbd8rEbmrTf90AW1KrSvlo0KEwyLtCrFeYmoU3+YWOpFF5EE2Ey4oKinF5TpAFMJiFLdRwHT5RjPqVdaeVWF38fxvNxNtM3MTJV/ORnW/OCmNapkREyUPp2oRhFqecQPwEauisAklYmCKhteT74WQz5RK/P+J6RV+itcctV2UJOnKVZ12Z1kdz/TIMvIx0pDFOnEnTUp2xZ9BrwVwfahcWVZgfdtkw4b4hr7mvRopS6LiDVMoqva6nAyda0HV6J0juLRR/WotOhxyyn3WcM9lDHaZYwyVcHibxVad4OUhdqNFcVUJqLk6BPkmXXdnaDtihW4LIKIx3dk/XtYnfjLRf1LKHGlHYA12JbW9XK714frsTW0pxq1d6ZlKyc9BeNKgDQd30c1Fk7dGBmXUsmIUsQiu4Qr8MgiQcRYU22XhPnEkrnypd8Ur8BvYoxgdJGYwBqJm27Bi7clvNepRrR/In9/Ii9/3HIqZi/AHroTC74Nqo1T/bdxyJia2yIQReJxBaYEEdsj/Ho1hR2jeDU9TBREHD8g7dvb9dkz+0uXnDJSjGN0B/lDfLajrsH8DfI+BaAuJ28AWEEHp6osgloqQ6TKnJIPXgpZ4VtFVMss01XfZta96BoLA+NREHH7ddVHCa6z297bPuz15Uj45T+jj+0OR5q8AxiXSX7H1aHonMh729yv5hMaMqghRMOwffVxOBOy4PQjTSVLXaHShgiLPwP4T1HLL3rhpGlIb9RLQfVRAQmY5SLANIBuBfxHLkZ3nGrBshBFmtB2SSLjbLoX9LdrwYrAJ3u5vK23qz+KNU5GL16puX8W3nzVqBPdSWZic2ognNa/hmHNL6idpHDBpPbOWz9PAoVes4dTjQgHckE2fPLpxbE4MTrZtrEH+XgZvKdBYi+AHw0sqZXNUlZdDcJwZ41OcZh2MfBRluO3vRLKwjFhza8nDtLquGbEyAakZchhNSERlUNd0kvBqVnSHM+FQmZ8FtTxEt33Jtd81KeaHCwUUeyPTCGI2PXIfzhyTHZwbHKUaU4p9cCpnjS0Ds0YbgHyYFox4YUAGniY4Yau5SJKjSPa75Mc0/WgVQ8aB9WHveN45XGJCoUJEbjvlgxsBrGwKKYCjiJRKVDXTYsITaJKf7Z0RKkeoPesJ0mu5lqEqTo15m73GsX2tFSGv/i6BQ2lD6zpOajzlreaDb5Rdb0fiGKX0DBYfRHePTaqZ7NUo7pqVGbfQmFrowqYL/N5RVWfpqoZ9RpT+XuDKNUp1SJ8Jr7GzOAMozimyJtGiI73ZpLHmqtFQ2l25lYPRpeAZI566smhN8niTi96qVUm4iJ8KtLnYrT3Dx3vobHLNR7svlni9Gb1Xd3iA2jRiRMLU6A2v6FQianFU/XigZU62DfLKailiBrn7ReTSCVW3L9XPTxBkNvR1Abfszmq6qbK2OWXZ42C/UiOSeX1I2/kC/zDnKofGoOjHn8nVinSo/JTOXfnoYgC/jV1TMtYLodVJlDKVLiMpJe9OMqYHsS74a2bexluiz9N0r8Iq+wT1Nv10jJ9riUWU0KjGWVTYhvYO9V5Nzmf7V3CaNDACjSzvd+IYm/wY2HIMe0LbzjyHHlsxUV4fAcaFToKgCjDWo0B+POJpuHBvrTXmOea5kCV+3NUimfDaiVasSeMUzNQhd97RKluqDim3140+LQxuQhrI4BzVIPBQYzjMksYK3lIpJQpykQvX+0aDLEY0i5lYEyMwFaF6G1FmW5JptjufiCIUqOGHNOdN+5TLwaGZlTBmC0jeZQ/bw0g1YE5F66cF9Ql7f2ppED4Hk79Irt4dTxoZ7mBgJWaDe2Y0guA605qnKgDTG8wxRvuB4UojgW1CB8IJ7nZNDn8NpRcQhv4kA6Y1HGlnW1VZLKmioGf4FHCZqzCji4vU6B+NfL6+uWqdfBflNebEEz0w2BCSxVZhNp/Nj7sxGHJYAKs7RefngfHn3jfeIk3q4tNShvVZlkBZZMgQz8MR16jroyU5IrsbOluVpAFdblZMLV3JeqMzoRG3oI7sR4Z6PNBIT4xoTnT/TCY2oeKK5edh8iSBvWjzwYOafx6QtvEMa0SYVWRM4QSfg/Y3OwcKmGkRz1tXwoKosmzu44kkztVos78AvL9Um/ChOY+tFWXdmhR1o935SZdCjwaS65mVNBYS39PJqW4dwHSddgNaVse0bZl3kgTrLH/LxDFUca7cmjRfzHKixpx5HH2T+R91UP5Jar58I60qwQYzqVhcdVBot2AzYsiVRu+Wxi6G8/ufuCIJs/trj7c6ISUevRv57jusT+3Gvw1LQpZYnRngvGHcI8lyFXaEsI5BRF9wGiN6YeM6OtwpXsqdYSerY344f56FEq8FDgtvdluxL+BdaPRnSDALIgeDpbz8biLCna3t/Ev13spqTeqm56/XFbl798k0YEDO8P8MQZtJPJF7CpSif8dMn1rD2jeAvr7R73LgiuvHP4J49K2gss17fV92sxliUzm0FlFGVDjh4+o+iD4OKacinMUS4pXpj+foziBPLFsyu3MvC5iMYme9RN7N4+f0JaHp8MjD6s/fWOc0ZoBY64zCz/XPrBGvs5kwxIqYdXV2NsMo9M8uVp55GaJisXhPQUp1IllWNNAiYyZJ2JnF3L+ifSZcyVw0uVWSTJY1isBnb6gRTjbVL8eRtEdm+rqq3RFVlzOwUjpbiUgigsX7Q5nVOdNyDy8ebwNGw4+prhasoJtiruCyBCls4uXONTT4S4ryLHdGhY0/kLg/uj6gb5wblbUmkE0smITyNBTJHfk/xcAACAASURBVC7V1q9qcfotxc+eSaRqz/DArMjBrci2tIegqm3GbX6xvfy28BA0vUWT+4UBwdqZMR49CeNB9nqsx/xrgcPPtREViZHU7T21C5YlJjefmSsBD1flZW9KQfs5eog0JlTCHDWGPHPm9bDPlRLKufhJWjrl4Gu67ptlVNsSKSNPyEG/L2tDg1TUnJjO+7YvL7hhNtPc4xeNFoEK0S6Giwrauho5BuamyMjmKyx70+o5fWrC3kcNqRZ3v4vEH3jf4Yy3UuagnxKcsmgUXjvArWFb0lnLotDmqQzH8UHJF2bzto3mjetg+i0djXZ5qVDPPYmKzNQhvdJPKsnr7vg5ZPo8mpVHf0mTU1FPWa5qKVrCOvvE7Yl0RMkRph4MD0H+FXnKMXTrLW1xVaRQTNYQl+awK8ufw5SxmUSHWqlBNeN6N33NJOBNOlyLdr34rJr6VXA9FaouYqjyZBaAc9kukJKIdu8A06a+3LlL+f7qoeADSOqbmPSpohtTfBqZ3B08y8rEDKHCly1KFq/GebIZckcrSfd6CQNaCr7slBmbTh5qLzzzForNIITiSiR8g4+nJE12h1d/PSWtSXNT9Kt6BqVy+SB1wjhs+dgGuXf4tTByh4C8d/8PwHV3UituQsC1V70UShbRAwHyUIk5dkee1fvyv8AhZ9peE9To4Z/319SoXWN56Mq/mqmebc4oWvrMGNtdco7iGkiMgp1rnnbu38WEHtIWwUMncpJYs0b/EWbyclcZQvJ2w67hFZ01MP9vmfcfSNzOLWl744vfccqglcDAe5ORBM8Z5jyQ4H11XNWphR0PteeivFkMCK6V8mnduAHNY9GHQ0wa3Hnt+DLZLTWbk5VH6WVLGYgzUKUvpPcD2F1KxuJkElEMIryRWhV2/nxt4iyzbaiqzRLRRVEcKVjQ4YuUllqqFG0Sd72Wra1WPn6/mlQcZi5oIIgFdoun0Z3CyLhZrZtiJH+RMoNWUTNE4KEW/7CiS9Fe1+M8UBTl4ShsxxV0aJQ0qEWuixWgP8zUPLiLFhbU50F0tHnR2x0S05UXInXk0YhWIppyAXwGQ+c2MP/LkI2bzQMqzk6ckeTaqwDSqKmpKqUxxSnqY04m1huoeW8Xk1Tx/H4lDJibuaTcTKtz6NxNzIPOby/4KNzCVUjANZlS+KAMOT7T/m9mLRaDdP3haiv2dc8d4YtaAgjyy9bwBlkW0pSnF34MhF0l65k1Gtq2p1FZGNWGIXK+lZ+E3BwTcmZoiIu9EZcXDCRDnZceVCvehQ2v7rlRjN/o3p0MrMS82ZCZwgUZcc0RcnDTfZdpfyPOY85/gdjK7M7JC4rc6uWKwdmwd1+XplaJ6NW3ngV34IbC6dX271BwbZ6AM0zXPb3PasLyew1ThHCy/z3/6ppMma5SJpBV3SbzZlq1HbfIBfc6gMCazoTIhHrLVgRXXUp2gdWsuNe8VW3SrZ6rk4yX6tWgpNWuQNFQK1yjDQtKRJftruJtD8+OVhGkgYsz7N8WYlhx43KpL6E/PKx7K9p98png8HT4pdPTKo6kVSMGQ+Y3ZsMFVqNtKkY9nlqZW7mlBFxIocSlYwZ2M47iCsmNt9knXgjMZcHGQTEcpryhmmgX26f87vaT8A2kRYko5q6zCIJd06ctI3WHHVuTG6qBVejPhjwRAqnCEn+gwhmLnIlQboTzLwani2BFh/tUPbhgGgiqdru0MztTDJ+Gk3l/rVri1KFdvLJiqNvsK24FvcyFSUECeytwcSg2WDztXAMJG2wwccWIohglaBV4pQnX7SY1OmbZUGnJCPbO1Yjf9Lhx75rQvQG1wJRIVKGr/3SLU5M0mT99S7vFNt+Qcehqb31wS+1Uy4nBQ+0vD4Lupjmz2DC3q8JZnSJE2pP7qk6PPKp8RT+KEb0OpNHUj6eiUHh0jVQDkxsqy1S9oLrlgHqj09u+5GvpdO/GuW1+6jixEWmNpx0QSwpXFai0c1FVUIXuzy2vYGR1RcK0DhYNJ0U8anv2PGpyOxm6+cFPg3lsFoqTjQ4kotQADfn5O/y4HvL1x8JDJs8OTkolN9Q/tt02ukq9BVpUS4ujcwF1LKIRhwkTWsXqKq1CsTCQMpMrzqhxVqESljS52eOwMg9uRaHVLHTJ1egvXuB5LLA+9RocnWDPuKjaniJVBhcUUhQFXYwupjNVbs4S5n3vfmA12iwjd/9zeMi0b5phcrsAWP61eTZUrK2+Z17PGnDjXR2NbuBjao7VhXiP4fU1+R3tnKXGIPYz7x+ZtUrsROpXSIHfXItkiHR1REZY5Usc511th9vqL4Pe9G2RTPnE6p9cvBRjWV3ajuJVl2rgy7kT8cdw9JC3L4XaUCcMhq7dyuTDl6oZ1+GetWOuJsDzBK07m4ocvz/wfVF0Er7LXy7arjxEqa+xupgm1SaK/O3JTcu3bkNBgjLMfq/gVJGN37jaeD9o76vao9pkw2gyeqgqTe8PTUR/a9Hl0md1schqSArb4H2eFLPAjtU8B1Nlzeqt+7vn3k5UymtoOZ35l4Ip/B6mQJuD7dRPO4P/ParRkTpOBar1luKJBrxOiD15ZcBTZcYvAyihgt4BsOBE3Fb/feW9IKQFCy9WjQfyEGJA0EQUniVOH/c1Nb1Pxj5bMi/odQKg5vXAZs3di7ZynEO0UGHmSa1Jideeh+S1L1rZnqpCnM1rbgbnFCq1CBiPMbdjNVUlG/1DMYkCdeyruNCTV7aEv6R0i2iv6d+n89+1q+tammiJt8BIlCDGZ9ih2x/A7WgFzO1eumpBKdelOoP9r+trl9x8xqDda85P+QYtVm89uzNwUYurRx4HNIIVS0JWrTVd5NvWM/lZmuFMuHJ4EXtdbHPzrwAOKLOtiVSyVGhl9dXRQSdqF93zPZlYrhL5CngJKCfw5I2cy9D6W/Ky84GHHkeKGkYWSeMCTwlEMRsjL6fllROho74YM37Ctf37cIn88fjjFW2qr5qbMH4gXAnJuHubnmnE2alr6LHaptycz2vBlsc0PJEJg0KMW47f2y0231NUgdLhCU0aXuW4w/oUT1Bu/OQLYVaVmQnUGlskMd89yAuVMiXCLRT7ANzY4S7ry5zVSaBCVLtyrVUX4M2V2JFJ56I6tx7Qvjt+2bYNNG6zIOGy4hSz9bsIjo0pzgE614g7+wae8+l5Im2yaGNme4ilRd6KMcMmtUzjRvjWCAgm4Xz/w6s050Zas+awwopsUHLaH0/qo80p1Utaq0QaRDG3/5WtjezTjoYqZYlDAB519nzLBxcn+OM3cvfSDqodi/b4X9sp91GK5nBr77i6WFlsbm94yG5BNKqJbSDiWyCF2T+pWQldfqXwZfpBhOgU+yZaiFIWbk2KLtmpdxQXXnVoixGlkKDS8DMYC2JWqBdbBcnTFwVgTNtmOkW+uvAY2iy+rjPsuG8i52krl4eFh/RSUINuihr6t9sZYJgZw/sJMKrKY7PRxlNLtKa3O3h5clpnkm+in6MonQhXU6nFKepa/2e4SuTbtAXNLTjVNNXYUD3sMv57ZzRPRNFfR1hw/2kodavoN3QfEhCchXLPkkHP/q13ECwosW1QxrrVIV/PD5k5/cWoUa8js6CBu6aGUTUgtHRvjWgUWB+OTOEpEaUkR+iXQJX7y0ONcdZSIA3+dCDGt0HXw99XufWQzLLrh2e09dJGBnrlZgg1v0moOsBoHHjU4fHPy7ny8hEql3DrHuvT4ActY0zDDyc/bLFet7NsZpO0fTNH5IPLIUc3RwzpCdOGw4JJmavnJvRcBguWxLiV9NRPcUPjXj6ibTPsnRt+yPdAdF0m+m4o/lN8bwQfVWLDsOXkVA3v0f8vRTU7+Lwpc7tk54CHO+zaHMKx4qj+1JtRj5/Y9q1YDscj6qtHUr+xCP6gCqrHUL875eWcj36Kbv7Rwrxvw1Y3vL01mlNtw9o1a8T0HWnboT0R2JqYttBWV2YrTFDrTsX8njyJXP7cXUmzo1excPgshD6GXFxuWVCzAdw7dX/JouJBPtyoFWaepDZo1ND5bENFPjBYVkK53Y23Pmxt3w2vvx2ievfx009kEApHzf52wJZvUa+z9P61mSsbH/454tMgmDj+GWXlS+6g90ljIipIxMWGJvbMzMcCR/UYVTb8oYrX+NEtLfWPd68wA7oQ7tOwZZyNLajVqV6DeiUa8dQjkwFjJiiNZkeOkD24S4TfltLm1EUkbeayR86bHTJ7LMAXLg+fwewVbVL4xUvI3q9DAnsDdnrKEOjU+tqImYGZqZzH1qRaDVdRDTqpx6J/deyjKnJvKg7uVcIfSur4jQwmuZNp6H7ittvWQ2Q8Wvn6t9TcUDV2tRbVSlzw0xgIbXYXM/wQHkLBmYxqgyZt42yo73GUKKpf6qSedehkTjU1cdNXi5lsciWq5DBnVjgJpyIMmxSsDifGhN9y3P61418XyVTfWnDnn3sdOqFizKBAzxmp/IJsuUZylQvtdoMg+a/PhpByPIC/w0l7QWpD3fn9M0qHSntoGdA0wdmqxAU/XUQhtOHhpJInITxkoiITnpyCmrVP1fudVdpG1Zuwd4WJ00pYtdfwhpmLKhlSvMEwdzxpN7SzeF2jGZivlwePXdBIJAL0bnTgp8iv5oQ8VuQaH06xqko1qEZJekQ1MjX0AM/LZ4DJ6jNlESbhHa1meTnjZ5I6VNxQ+V/0wEhahrO6Q9r1BHou95ICP3VIKBE+xZsdR1upgODCMl/9GjXRylqri4MGQvsemgyzRpfL7xHhxLUN6//9OKzbqJSq0q5VmOf2zSpBAwJREoBO7b4YA04KJcQM8m3XGTS7q/5VKJXAsI4bzG103T30elSzwK0NSYHFgWiybkqHqofhdLXRNEChCAkND0FNAsoK1On6Achz9ewqdbwCgr/UYmt19YD2TaIye9ZgjhpFX27BYqZDkeiXPkf5xOLhRAXnmp90CsmjMr2auiuHDnfQT/oHnyW5H+A2BmEe1NCrV9NEVNURdYdMTauvDqoF1mF34U3MFxNmIl+BEpoV4SEvnjgt/4Wy+oApk15p7G0oyx1SD2U9TTUG53h4SB1F1Gz3WupJvwWQV+hP1KAOnxqFTHkcNVlD9FtciZszfLGoog8ze7aE4OEEidh2GPTAiRleCJyal5SwzVlErsAFhUDYQCGdVFc1y3UiqjGEtdygh3+618VTYGXVad5qTJ2hsMQ8fLg2lXPJ9NQun5ZQjKMsd9cLR/SnqV7Vr+Eh1Js5get7wseHSjKczdGgSs9jPX9W3z467XQwoVcPonv/CtpQXaqJ710M+UQhjl291XPDLzpnJ9UjfqatLRuqOCktXqlIXIFb9GgvRo11Scn6uLElbBsMQhTX1SOPwdc9jZmRXu3cyTsBQRuDemIzGK++Aez8vhTt3dLwEBQRY1gGXheraUpidQkRqf4Y++/oifp2SopZmr8UqnJL8E3GtmJI/pZtM68dvY/8tlQKC36stW9/fUNKPUmDJtU0xUbiQuaMCQ013FCunJ1ESMn9C7F49F+IQYhi7tQC6FSXpIQT8dThzo0FIyerXgyKuwl7TirG0wYur14HRQKAdx9mNs29/lZRRhEQzi8UP1CYtyeA1CSUMehhdJt3YH/SsfQPnNuwYPbi8p2muHEe2/wCNRxZOTBibpOTfyuXJfW+077K4anQtCoe3zTD9SrFy/Hc5F2YnChAlxHKbK7OpZ1HVfUdu+dnywFKlpTXzqrwi5W9V27BVBzWnQoN1/g5QZnZYGcLp3c9cvUQj/GPeJkJLxKVjC5uuio41YV5yNeoszZ62BzNnimedTFl4yaRS32ps0+G5932RN9ROrdb2kYNj9y9mdw48UVPSIIuI9o+um8EMyaROTKAXhKimrnHjtVCYjr0CW7UQbmMM9iNDZ2jWPIiKcMpDk+/20E9TFX8V5DH6je1JfoTxdfk4h/3HZxyVeeWH8NDcNPFsBGlBwYzscUt6f5FuwF3/IzTolnpExRrpXb4+fMZPr5GjINucopTrG3l10+FdMVzHnp7uAMd+wZnpZhtMViscDDH1vFNN0N7glq2xd1Ihgj5I9ouoaAnIc5u6BfNC4WA1xEmL4UcJ1K/fTE8ZJyiwPfgtsGscNKSgZFjJ5GdKnWCqhefu8ic07RB09wb/4TW5JLftN6wx3Xql6XwQbo6oiv+n+rkcQDZBHSBp56H2oYMRVRVEvkj/E0Vpv79sTZp2TsR4EF4iPwBc/DM5iIhMGzhm2X8l9YhZBrAYuBuVRxOdAU99kS6itDG9x7OqV9bJ4tLWwRzt2pBDJukj5OiLUgbGdw5/eT2Jx5V8PvkMH5Ro207UEtdXuF3hQs8jVA6ongwVedB8LvIJUK0y5IZ86kY3PRvvHr8wx9PxMNIIR7HBqxv4cd0YapnvQMB5EJR3oHJgvFTjJqcJEVUgSlTZH4BJQ5aJlDbtz9/3/pIG2uSW+k1rmXIDU37RT11avBHYpmNgxW9fEZVidI4pWSlpSOK+dWtzaovUk41SrrkdeooKNx4fNawJWU+3Q6g2jmwrQmc56RCvfAL+CI0piq32NpfT6/KmDRkEqeaEcyHZmtzF5UJ0Qnjo39ZGoeqnhdR0HVI+4TXNAoGzSZ1Pz8WeLRCzbDuQNmWqXhDFUthEKLa1Q7Yu52KxBOqxz+kvPlG1z6NW3XC1RXPLu/wRhXA8gDuodNkrvo1IfTEg+lTMa4cA0r1Jho/QdUJauQHE+eayL9s2xSyfBZ52Lh+F/qOChYVmjiwKnqeJzm39qDnBqjZPKFBCyqzj5j8UoYqmNjwwk6JqirYMSQTXNgiSFSvsf0s8Yu1MLhby64BwfsD6qz4Pnjk3MZ4FGOzYdGU9JtnQszuY0dFxsjJVni+VIU0vF9oQFi3jti+nXj4WDkObRXcqVGBW6vw4l8hPRXcD/JBk+aYhw9CV1gRGdCEq3Ph5dnaU9YMhyPCKIKps5+JiDpYw5ZhJSRETnduZH7aNjiYszPCNz6teMG5F+rWomvwpRCS8fPxgjO7n57YF+KjkEKYNwwdrmSIzl9gzJkpX7kYT5ulh6dhsmO7JQsmCz/rDPPnEeu+NaiUqt4+fROvHQlDFSb2bu4PdczLB4WlQIBHqp4+DGnWHlNRBLVcociignGIqlbtuadqtvGBwxOKQZ2ZvXaER9QnxE9nk2h42hlfBXcd0+I1LscALZrAjWOPjuwO0bCj0UO6IUnrVzM2bSI+6yJet1T09J70Nc8gbHIylUJSsZAIuymJizSoFNKDWmH0bfDr8ljkIvIKYNAs/zOnyqpj0NCppRQ4OltrCgKpoaCmo0rbOBOgST6pcMVgHKKqkeXxbT7dXt/JGh5/zftzEonrwo7gsWcTRGSk9B5C2DswtLaANzz7rgODpy+vjwIU1PYFNocHp+/j9mPypWMVMdSPy6fEpw9J8osW2/xs4As0stA85lLsHE2KvihUND27fht9G2AIj4RWPds/eeisr0B5pt1VVH4ginRNgPyRcYiqq9jQGeznO/x67qx77KnD1OOb/Nf6/fWghvfBXZCdIxg0VuboSOKmFS5f9EQByldra6dnogYdcPt5ceP2lCklxVFapUyLiOLREKBeVQb9BNDXWveeyahFQUWTrQ2IxbDyV+9B44JRgK6vjPnSaCXAAwOCcb9BrxbrFWtvWUlJyWKjk37V9+QYEjF3z2bIzEgZPE7u5g46jBBOnazeunvwj7vcKZOLJVNTr54MqeWHRnDmDNFRpYgaMg3jniiaUIWCnN2O1dGoRUHTPbw20rx70MGDdc1JsQF10Vo7zFLIBccA1CssKCuiNDTI5dzff4XkpJTBY6WeXF2gYsFduxs26dzh0m3SEXVtH/jv4OO1q4p3eJqaS0aVKtaPeVUKolkZpUxiqkG8O4u7/l+/vUDODjmgxy/gk+Et0X+tML9M59dSO5gvtddlBKJRFuWCDxRRh149MhpRdbMVPTRx92+zi3yR1r2fuFZdhm7PvzIpY8a84H5TmiWnAZ7Nh/WCx1dDOn2ij8HT06hGUlwUve5ClS3TgE0Ut8ywc3dx18fAi4NuY1oMnhD8Lq5M0gMDuxCW6BGoqUTWLKoSLAxu3gHTapZ91dVsQe3Z9cRBxxdPM3oOzG8cQB5IdQe0bgnqFbzrT1InjKrEfetfnThghhNOagKRo/eUlEmaiOgMdfzycS/ALRPt0lH9sPDHWr2GBcfx7HUWMHfCM75TA1dwsC3lvaSalTAYlC7M6DlqFNlO5/52u3Ypp0uvnDbBRGk+f3/cENxhcBsUoWFo0QiuH3t0eFdZceW90tfBrCydy/KPq0Iu42cnfMhlFrdM/086/E2nrDZqNEzIfFcALbiG7vbfofVkuc5RqgO2Ny+7/3WoIKCtILg7obiFoSegITKK0KYt801JJxdh9NSCJ9fTh0NQoaGnlJ6kmKiSNjkls2al0yDas1cSrvxDe5EE4F7Qb3oz3DJxd9DTSvkl4crWrGqC4fVP5/rpe4XVKzJw+6Rt2/rx/WqHfofqNQW9BhNoTVxauHLJI7Bn8Lw1tamTa1Nf0v74ybUQ5Js8fYSllS6RHq2XOcoq+fbjMnvhz5Btq2Jw5cf1H3cB3AtePCa1vOUXaJX2quZuJ9FbO+ui53K1aoYiqqsKA+M5UZGeB3eAo4tg4BjCxob2qKpR1el/quPJdcyCRs+jAG8/OjmSfNOdkw/vXwpZvzqkVn2Djjr652h2pnKONmuZfXzPtSuHHvuRpwB4FAG4/uMuYGDvLCpbBSGKfWYlJ3vv3Ig+SAUjpshdqxgCKpYKvVml36jgBp3a44UCvsJ4FA0kBveEa0ceh10hZ62TWwk9vsbgxvNkepZdRBRVYCHnQv7Z8axZA1LK9S4JBs9uMmS85kUUi8JMPzEVhyjSwcjL5W5dTx5VB4ySuVc1EFQsKBUx8UJBcO/gpt3a7f4T4hPJI6ybCzlrn1y6h5AsXhhS1ZtGBYt8DS+aZgRsIbIqcfXi3huoAsOvkGKIeQtTlvp16hv8+F4ZVKw0TZkYpRIPdfDSqX6hrVrfoYK2QNkj8ajKHzcjte+IqqePstJTSW7S4JCfxV67IXjtBmBby+d/ETqgG6AEByGZOhT/HqAx4otoCA1zP3+9Jho9UbVG8xgN65NNsCHDHsJt5YDeK5V8jjVIJHD9Pqz6pXVqks4rkQZTZ/6MT1Ort/N8qV6vHptWKlslIIoNcw9sJ0HtM7TaP4eZ2XpPhTpGiZq16zaCZw3hnEkPO7UGz6qkGWJwK/xLWzw9Dd8TPETm5EOeELhywM/raAQRgUD6HD1Si4rXewdOs2yFPT9KcA3qblxrlYMo0kiCOml2St/hHicPMoo0QcbRrsidHG/zzUqShWGwiJHD33Ruk9CoPri7kKYyaDyMf2QoglPGAPyiTgEDv0zW9G0CHD1S4hqCCa2XaxEU4SIn/CIdmvtkP3lnqG6n0hDFsfD+Y2fihC8E/Ud6nDjAQJl92QIhY+AlHNU9HPS7VKtOgb29zM6W2PiLTApOcigh7snMrJwjprG9RCFDW68kdUT1C7QrlDPS6AwqarwP7USllGDAaMLcHwSQCJnRkQ6otrxzyyU2yVsDTqREvwjQ2HEvv/w5IkcrFnkKp1WlabdbmYgiNYyCfC9UqTKYgt7DSpUoaVNvYExMCfsZZaHMosOogZW8F9nQC1IlI4rDxMzO8jy2D1xcBb0GlROoPB7NoTTLAMXLe4GiOpGf1Y2ufESRIFZyosfh38HBSdBjgCFiQmMHOlYh/dcImRla7K9mlkp4plVoa3+rQQ9lFoEo0seOf+N5/A9w9xT0G0mgUbpZQyyPRiGVbahKw6ykGFaZOq5hyTXxi3pUjMZVPu3KGrnlWgqiSBwr4a3Xzk1oZCcYPJ6wtTNcoqTdMY2Y9EQiS0sMnKlblVZqhRWZ4f5bl1YKqVapIcAnC+/6WxCiSDEzM917+0b0uiUYMVlWpaoei5ZSu6eRIeqV5lklh06VZmy1FZAfPSbfKDZ319dgh+pvjkQ5WhaiSC9DJOTu2gQJ8ak9B0pq1AG2eWx5tNVqOVk07JK+ASv/NF2atTCBETo1NnoBVJFqVZpGuvw7pWyh9vEDWT0HpPce7BwW6vjiEQPFr2ULr+PwzShhXS3MR6eGxcwRegUsWwtmKI3OCLEW6l+qOuo3i6WkTT1Ju70Aj9xrCXU0/QJquwnULlkxMXanjzFTk9M/G5ht5+hx5z+GqEwSO14kzsji6Z4vggL8MGTJUMF+AVWNq24qqHv4o1KpGJlMSaoeClvUyPJzgolhXItbddUH2ebOjWoHd4JPLUGfYWVkgFFRqs7vZhhm11kx767+VpDLXdp2Eapc9Av/2nPfHIsmF2eLRhTp4/AivPb8BlY2ZWeAo9QkR1mm6Hv0j7z5UxFF1TFGlw8R7VYtHVHypctIMwsDrI5o5vszRynMEF1HO5pTtQrRZlVz0wpJt9TvAaJIZQkGuGZdgmOKyiiGV8wHZRZdSdN+xy0nRmNedq2jsMqhC7iJNnSBo09qYeL7gSjVC+7BXY6vItJ7DRa0+8QECXC0mqXne7HqqmOHn+H1cdSJqGoTfc8QRXLRpLvaiT+gtq+gWz+iyCM63VtLE4fMkSpWj+01TckKj6JMT3QdT/WT8z7NUaonnOfhHigBruIh6PyZUTO1IA/eFglfDLnxon/gKia1VKsiiozWnrmJeUrvcu8fotgH9ptYjxMHwZNLKuAMMOlWjT5akVG/VZa6FQNM2Vt5ne2B/uFp62lXJ6O6Hfz9vDqV+l4iSoL6Otrz0G5wcTfcpBtLRb9SSv6yLV5Mr8EWnX/p1d4TPJxpbHdaecT/E1csJnxfEUV4WEl8723ri026WaX3JaZIUZqdYXFCXY35R22iKqkC3kE+Hgt9/d7QTlP1yNJHodQqKjFDsUn358OEvk1K5ZVeF90ozbW8OapfJISDLMh3JW6BYAAAD59JREFUtGGVcF1EjXyvmrmRGcVOPd5vRKkuoUm366MHWT0HkryS3m01PYlA8138E2mpSyvxvSxL0yOax6cK4Sqv2D3Zh4Aojojd1XMeOzaBp49g4FjyppQO/w+Ys3eQGP/KMoiVVfZFGrdbDU3myN02Q0PX9oEgiqPMfhPj/duPIBIKRs2QenqXegG5soAptV0NK07VqfR6NDkRP6lfwqVBl+qaGH84iGJvGYUF3O0b7V8+T+s3WtCpp4HXGksd4vLOYLgk4Uq8YxP34o+9tPDJws+AHnhawuHrB4UoNfQu/xzxOLSLPK0OmyR3djVKClHe4JlWvy7FS/vqb3ZHOOYUlJByf4CI4qih80nuxlWQlJgyYrKg5yC0Q9PPMZk20BVf6g6/1sRGubbWSnFmQ7dcsdxGg4wPE1Gqk9yDO71+W4e/BZO+FPQdIXdyfl9w1XWSeRTv8i4XJrdAz8UwrS3pqG3n/Qb/R4hiV5lpqdzdm73XLoXs7JSJcwSfDydsbEs9tlb85NPfovpGe+WdY5tqueigb1Dd1JcZNBZlH/IcVQ0To6AA56v3qq9BJBKMmSn4pA+Ja2neePSPcmWlno72RQebjyaEiGWw5a7CcVbJYIrqWLOO9+SZ5IR//1Vao5ag71DB2FmsqAj3ezcALynit2qNuWdeud1F38Xf3Wta0znvnyLR/P8volTP8ToG97f1kkZNUz7tIxg1HTJS3EP/Y+VkE+i+SPdniCsXRY3WH8e7PAbSAIU2/B/NUfX+cyKfcyOfy11cM3sOSBs0DgoLnF8+tXn2CAg5yGQMmQzkli7Kp4UTI/9PEaWGg5mVWeXYXrxgUxDcNbN1UHbLDpCTiddvXKIj2KTLDzkDP5Gjz32OrlGtzPj/a0SVA08Qdrf+c7kfImIwJH6NU5sEpPccBGjykpLkEvnU+nU0CS1a+0oNdXhemXj+n89RjaFnCIVWTx9xn5KfaEB3z/mBHbNad4CgrjhxnaIibHkvSGjR8bVls1GmnF5c3Jl/nZOfuixdtZGBnskxfDaQfeK87Ox16Se9yElv78TwqK6s+UKIxFWHr7qgLqx/Lkr/vSbde0xeox7NjSU2B2rWp4lXR6JRAGvZmhJ53DwZW/ZozpN6jVnHzhD/XpXN+ZrM7OjK3LafgV3AnDboVF8roJGw4/mT3J++9dq6zpkXkdO0JbJRaNovreZB2NqgZJF0Gqxbw6NVXykRhot2S6nItDmalSYfO5xVmMs8flYW2JHzMoL48quCvt2s7RwYZ6/kd7xiPWE6MzWF8ed+fcwFfmR79ZrCof1t0pPl7Tqzdu0r7P2JVYmbDAABgeyRY2TzpursxZhprImTCsPCii9j2Toydu2VsjhomltiQ/npF9H82biCyv4+K7503mrAEOLGdebxA+xF37GGjIKDO3WuqOhUwOHKOfyTO7tk9uyPOgCQiiEpwZH/1jothZWZrpiycvJfOcFAB4ZobVCpk9jEfbQwl2CxgcOWp6RA60Dmg3vWokIC/zLS2b5NWH0+LxSKmL5+VquXkKB+s5Lw9JBnZjHnTiN9NlKh1+fM82dt05PJ57s3ZPl5LL+mrJQk4ts1cltbAifAwi9ZCGerVoVb9tgsXcjMobMjefYEvlth17uvslKc0z//Rhw5Yj1mHOlcxKsG86/ThX172eBi6ehIxL0isz0M4zRqwuj0iXDfLvI9CLvP6NFTJ5zqrxJCW+XP/chGSWvVK2jkn1vLN7d1R7DGz2oXQGEe5OVZZ2faCfisnAwW6RMUAZYrAa5YttlERLGrJy5I+e/YsS9lLVuz8bsS1F0+3GUkIjj7r61ijiqt+rf9ynzNI3YfIZq1ZoffUw6fp6c8Ib54uRMI2O7VGDNny/49w750SoqLuVwmP3IQybOdN1UxCejC0/uyTj2VXWAwYfUG5tl/GWEP5GPGkbkFfPmCufaZKdLavszcXGVbEhEDNeJurtL8XBJRsYiwsTPGIQNBoNGaE/5hYQaDYHPknl5yRyeZo4uQWyPTvzWgE0u0eBIWQkqyU2K8VUqSch7juQjnLv6LhCqXaySJYEokBB6WzBdMR3RgT/b6LYyhY1n5eYSLs3JQnJzl6eTd6RI7U5bCz0yKgOXkUhyfnMTk+hTjxPWRChKZzZoLly4k/fmpprLhPW3Vnt2wsdDBgd1/EFGzhuSzgTbnT0rv3STfqvx8pFDZlqMzkf6MkZfHcnSGvGxwdGKkp+LrSP/GlNI6QaBLJta7t7gz48VPVIKQx36E2c5WVo0r9G2UXaMutGxPzmOJENDvQ2a6bW52oVtVcEPXpUzS07tU6vz4nk1sJEP13eZSmiw92RREcXFjWzOEeURaGsO9KhF2j1iwuJBjY+PJZQoLZZkpcrGIhauc/sYvnJWfOF24b7et4J0c+SkWUxoVKePxrFu2ZV47L+dYMaQyQiwmnBxxrGk4F+3KH4ZI+39KdsezBmv7Hg7CiRO9dXv2g9vSlERcyeW1fFn8eHnbQOHmjdbPn1t36Mz46w/o0lV28YIp7KE2AcoYhDm/AOexA/5RAOM8dq8qr+ohdXGT2dgQOdnOt68z0QZcJils0TarVVB28zbVTh9hFuSbRaxhCqL1GrLWrBNLZYzsHGLhHBYySscO2x//VyiTML5eiLeRZRfPwdZdoqD2zG8W6aw/OV6+eKH9jr1CJpORmkJMm2iNi8+KJaw16yXjJqB7DfmyrzmRT+X4Hh/4i9i7h4MWtj/8KOrdWWeF2kPswWVu+jX/8542GcnEgnkOP28V4i3vXTvtMpKlG35krd8kGT6CePqEc/2iORc9TTKoeZzER1tU6jvEJMxFwf7qBftrF/kTZqUMn+R2+TQnOUGzuPHPDK63n6oU3uC3nDveGn3BVergX/LRg8w6n9TaqNy+pw8cKWzTASKeFK7bW+rlX/0ol9cA6W/VhNTgbuxV35rza9sm0FB+RaqcPOKx6xdyfy1zMGIRK3NbZarg1iV992HLVLVlFGbHRXn8+zdFC9pamOzM1JQ52r0ve8Va4wqivMbJgK/uoXTp0D8msZ1FqFjZMHb8ASgJcqqipBDPzbyEXJRMUX8Nm7MOn5I38FeKmXYdhhbtShFLlYp42cmmmkBQqR8Kq2Nb02RS5TtHkdtkcxj4ac9RA1HWXTpUyCePG1LKu4JCO2SzdY1y526s6Ghi42pkdoqbEwqZn3dR9dT8fJAhZOsimD4erY7HzKxy4QRbwGdIjFucTES0fbBw12GralWlP/1oHXpN5t+ategbiUTMRB8kSxeCrR1jw2YZjrqPj2TjejsPD2Lx0qzmDZw+6c4aOFiKwge/BrLftlg9D5fvOyJ+8tiquo/s6RP2lnWyTTsYXK5s2OdMXAM4HDy+M+rUkc6bzU56J1+1juHNlbu4yJ884axeUozo5Nmszp0lDBacOskJvUXMW1SI1iYJ72xV8g36IdMR26Er6+ulouxM5tYtHJRkDRzNHjZMjEMaGmK1c7N0215wcpELBCwUekyfx+rZS5RfwJw1mb3ie4IiGyXVs+ZIREJ494793WL5p73Z6v01fONAq+PsfsPT+46EF2Ee926S6gGDg4mI3g21+fZruYeP1d9nCnp0svnlt8IRg2wECfJpc5mjJ4C9Pdy4xj64W7Z6gzX+xh9TZiiZmsxM5vIFuOhxvlkh+XImC4+b3y2R4+dn7z7N27bRduM6PG8o51DYA9bp49Kx0zh9BzCePGa6VZFMGsHoPci6Y6fiSdakJfvTbpIRA5gopTl3vfDWNZv9e2xdXUEDThsb+R8nyJfg5w3FQivaIWrXAS5fssZ3i82RoXB/9CjRsH5sqZTYc0T8tBMnoGVe9072+Tnk7Ec416y2eXxPKpXIN65jIdm44K/bkN+nm112uvzHX4lun7NRQKTe31uXDDpYU4Q5nz5mF8dL6dlP4FbV4+JJcls1TFxcyhJH222MpESVKBxISWY3DWA5OUvnzIcffmY2aiJDkaxQCFUUN46dXYjEYhNwMgaFoBjw0ryjMwmMSMwgULgtQ7EOy9a+BDH43QAMeBB3ciGEIsLVjcCJ6OICfH5xNt8G8PQpC2tAzXRcrBW3Bv2Q4ao7djAD/ygZJI4MnoWogBIeFK2rwvZfCGdnOHpGVqseq6k/w8ZO/u06xvcbmSiExzzz5zruPiDF2Ym/535hPWGyFKVmDs7KuqpxUYPOQTgxNTKCWacOWatGf4tb0vFL/dtXeJvda/82sHMQDCe9JBpoSm7iHKU+/4vch2sV8Ysn8pxs9vrvATujkMfKUFe1dbds2Rr2lUtw/5Zx2wBtT5/ck8W/ZX2/gfE6jtixuXiDjI0mBg6UMphMthWjvq84Po5Z35ceVPVq49+ygzrAyyeAzFrDhoV8UoqnDCio+v4beb+h1rPnS3dtZ2WksZYtkOMbw2Sh1F2GW/jwfszLocKL/9okvJPPGAdrNzM+H8i8dUMh5uSjlYvEwZmTly1v1lx+6TzLMGEXbY+VkajD4v78ffqw8anDp0DsK4/r50ijGb0+9UzxC4jbW736wn1/MuwdZSuXOSHjs3yJ1e4DwpxcZkEBY/FcVpPmLFfX/Hr15FWrMd/E2fBe4BsutuZYYUEmS25lzbDiMFgMmTVqGRliyjEhmg+g0zsOZmBKMYbJwk2UaWXNYrNRESl3cWc39S9IS2W7uzOSkqyv/KucVi+fQlgY64+/JFZWxM7tjjmZBOZnswksqBonFgvvv+Seva58D76aY7f9V1jzk7D/IDmTIfv1F6fsDLCyBson4rBR8Hk/oZWVZOsW2+gXxNWr7D//FWams3k89p5tsO9ooUjEjIu1Tk5g/7Be5sXFLsh+3450I1sqBcJq9bfWuw8KccGIjeHc/I/R9bMS/VV3wagPRq00r1NHpfdvves/QjByqm38a7cHtxi4ziC0qNfTCuUiM7KxZ1jbMHDKdu/H7tUbFZw6WVMtenRGoD4VBYe4sp06XxDUTPNqgM5iBidUrszIQDIlDZvizgpOzqgzgndvPUIua1vMlAuiyLCs+E5M2krKYd1aq+dhZV14cXncvF1uY4vfa2H+eYzzz5GyVqg9gu8FohTZhL2d1LtmSpee4MGFzFQn3guFxYzS8LhcENUeL8uPeY8QVQ0m4eBYGNgps1kLsLFDw+Oqty4z83I+Iqocn/cRURW0cle3pF4DoK4f+pj9iOiHgKiyDwxGbp8hHxH9gBBVdMVECYNqvn/8YWkj8BFRS0OkrPR8RLSsI2hp5T8iammIlJWej4iWdQQtrfxHRC0NkbLS8xHRso6gpZX/iKilIVJWej4iWtYRtLTyHxG1NETKSs9HRMs6gpZW/n+GFlZPNMS2wAAAAABJRU5ErkJggg==;" vertex="1" parent="1">
          <mxGeometry x="457.5" y="260" width="155" height="247" as="geometry" />
        </mxCell>
        <mxCell id="tT-KymRBnLhKgLXHdaY--4" style="edgeStyle=orthogonalEdgeStyle;rounded=0;orthogonalLoop=1;jettySize=auto;html=1;exitX=0.5;exitY=1;exitDx=0;exitDy=0;entryX=0.5;entryY=0;entryDx=0;entryDy=0;" edge="1" parent="1" source="tT-KymRBnLhKgLXHdaY--1" target="tT-KymRBnLhKgLXHdaY--3">
          <mxGeometry relative="1" as="geometry" />
        </mxCell>
        <mxCell id="tT-KymRBnLhKgLXHdaY--6" style="edgeStyle=orthogonalEdgeStyle;rounded=0;orthogonalLoop=1;jettySize=auto;html=1;exitX=1;exitY=0.5;exitDx=0;exitDy=0;" edge="1" parent="1" source="tT-KymRBnLhKgLXHdaY--1" target="tT-KymRBnLhKgLXHdaY--5">
          <mxGeometry relative="1" as="geometry" />
        </mxCell>
        <mxCell id="tT-KymRBnLhKgLXHdaY--12" value="long tendency" style="edgeLabel;html=1;align=center;verticalAlign=middle;resizable=0;points=[];" vertex="1" connectable="0" parent="tT-KymRBnLhKgLXHdaY--6">
          <mxGeometry x="-0.0222" y="1" relative="1" as="geometry">
            <mxPoint as="offset" />
          </mxGeometry>
        </mxCell>
        <mxCell id="tT-KymRBnLhKgLXHdaY--1" value="&lt;div&gt;Wait until US report comes,&lt;/div&gt;&lt;div&gt;Euro report is good while US report is bad, then long EURUSD&lt;br&gt;&lt;/div&gt;" style="rounded=1;whiteSpace=wrap;html=1;" vertex="1" parent="1">
          <mxGeometry x="800" y="110" width="250" height="60" as="geometry" />
        </mxCell>
        <mxCell id="tT-KymRBnLhKgLXHdaY--3" value="" style="shape=image;verticalLabelPosition=bottom;labelBackgroundColor=default;verticalAlign=top;aspect=fixed;imageAspect=0;image=data:image/png,iVBORw0KGgoAAAANSUhEUgAAAZMAAAGGCAIAAAAxZfseAAAAA3NCSVQICAjb4U/gAAAgAElEQVR4XuxdB4DURBdOsru3t9f7Hb03pYggCqKAFAHFhqCoPyoqiAgiKkUUbIggdkRAFEVAVMCCdBARBERBQOkg7eC4Xvdua/J/k+zllm23Jbu3u5cYl9xk5s3Mm+TLe2/evKGT05tSPh9qtVqv1/tMJhwIyKwQR1FmhcwKm1dawkeCCQe0kPsgc0DmQC3jgIxctWzA5e7KHAgLDsjIFRbDKHdC5kAt44CMXLVswOXuyhwICw7IyBUWwyh3QuZALeOAjFy1bMDl7socCAsOyMgVFsMod0LmQC3jgIxctWzA5e7KHAgLDsjIFRbDKHdC5kAt44CMXLVswOXuhjgHzjRqFuI9kKb5MnJJw0eZiswBmQOB5ICMXIHktlyXzAGZA9JwQEYuafgoU5E5IDkHtK89LDnNsCEoI1fYDKXcEZkDtYgDSsSd8L27khDxvRnBQEFmhTgKMit8ZIWWokQeFky9P2nGCoFg6DJWwpYrpYqrJRWdYEAfH9sgs0JkoMwKH1lhzUDxOqS5KlXjZW3RR5iSi8sckDlQAxyQkasGmC5XKXNA5oCPHJCRy0cGysVlDvidA8IkI34FN1TZGRUcl5HL74+dXIHMAak40OTcaZASfoFfwikV8dCiIyNXaI2X3Nrw5IAoRlXrwyXAVnhywZNeKT3JLOeVOSBzQOZA4DhQP8HUItnYPMXQIMGUFmMWzqgIFi2QkStwwyDXJHPAfQ6Itq3oaV+6XyrUc16dbuhQV0/OOoY26YYSHXMyT3UqT3W+SPnvZXVOmQJnqZ5oijJyhfpYy+0Pfw4AvABk4QphaiXXu3l5v1blt7YsL6xgDmapD15S//BvzOHsCCCXs9GVkcsZZ+R0mQP+5YA9GNUeOQto1bWRDme3xhX43X5as/FE1Hu/JZwrVLnJdFre49pNTrmZTcJdfN2sMWizyawQh8aeFaIlHpKUaJ5Pe6y7UMQd8UosFSo2ewVD3dLS1LluqYBWu89F7jqrwS9OvYn29DGWZS5POSbnlzkgc8ADDkC86tey/LY2WpwHszS/n1G/sz3RO7SyrlVGLg/GQM4qc0DmgDscsFEGt53SrD0WPW1jcrExSqp1izJyuTMQch6ZA4QD9pYpmS8iBxiaurkpMVpZK4M24pUUgWksFcrIJT97MgdkDvjEAcwM3tFWe+fV2n+yImC6kkQZrLZBMnJVyyI5g8wBmQO2HIC5/daWWsGV4Wyh6sfD0W/9kphVEjg8CVxNtl2X/5Y5IHMgBDkAtBrcruz2Nto95yI9dWWQsLsycknITJmUzIGw5UCbNMOQDmX3tCu7WKxc9U/M5HXJheWKGuytjFw1yHy5apkDhANwyIJzFn6jp50OwkkAeDM8eG3pNXX1Kw7EPrgsA67twTBsMnIFwyjIbQg9DghY46LdQYhBLlrr8NaI60pGdi3OK1Ms3R/7wLIMh3lqKlFGrprivFyvzAG/cYCmKZqhGJrDL67hsCCkwFMdFxTShZRKz3WOszSF/MshFeEZJvUsjFQqR29suv9iJLkbc2VrhSLkl8N/FC5EIs67xakjOMrKXZ5cCi0RLyrvooUW4gJ9lmJxwdL8L8WyMnI5Z7N8R+ZAwDlQ/bofgkQMgaTKg4uOBk6RFIJQPGCpIrioaE4TxUVGcupI7CCEXy4iAieFWxFqSqXiVCpcEyDjgYCcZjMNsGDZazLKO9ctf/tcxMGLKqoTR3VyxAWTieQ3myiTica1yUgbjRRrdpS1Ko1Vqkwmo+VvtFmppBRKSqkkF2iSUoVr0jsGvWAAVbRBTxkNtMFA6/W0rpyuqKAryunyclpbJiOXa1bLd2s7B2pY6SOvsYJSkJMjL7mCYFB0DICJKikRxqai/x0AKQo4pYliNRpyTXEMXm+85LoKWq+j8OYb9EAWWltKGw0EC3ANoME1oAoYQfCOnH0bFw9rk3+kKHr5mozMco0C9RIZzdGBhgmgg4ZFqjlVDKCHQlNdHwqF2VyJbgQredQjCGimKrQM2oMLpBPZiiX4BZwFvOI3NppNTSVAHKnhomLYmFgZuVxzWr57BQeGD8FbQS35rrzvzeqZU+KFe40bKHoNyfvnaOW3lKKGDtKMfCg6SsO8+WHJz1t0bVur5rwcHx1Fb/xV98YHpbWWp9arrB0zQanieJAicoeAVjGxbHwim5DIJqWY09PZ1HQIJoy2jC7XUmt/FIgwwKO8bAJSgCpyVtCiXOO4GgepN9UrnnRtJm68va7+9kwIdGfcDdrggJjTpIiICIPB4PS2Jzdk5PKEW7U4Lz69i+YkduscMetjAj2bf9Nv/i0HF/16qEfcH20NW2kpzPNPxvQYnJecGLnp6/gN23RzZ8SPnlx0/LRpy4qUNZt1B49UYVyt5Wj0K19pX/lf1IxviIgEkKIoc1o6m1aHTUomOIUzMQm/tNHEFBfSxYWK4oKIf/YrcrPpskroV1ssTxEH/vSFjSqGe6XruXua57+2p+HXx1N9IRXIskqi9BIbGzGDQeUlxjb+/yp7m0PDm8PEQDZcriuwHAByfbpMeznX1pAxaUzs868Voy13D9CMHh7db1jejdep9+w3VOi43AI2v5Dt2DYiNoY5etKEPHsPGNq3UdVS5IIFp/JgE5PZeCKxGrp0Y+Piubj41NQ0c3odxeVLTEEeU1KkPHuKOVjIFBUSXc+fx6CmBYCt3zLjr//6mhJDdbqeP1viKW2lseN10DaJmY388iY3wVzHmqFq8tf89EEV10kiDVMcScdBfs2qCBYsFuYXLAgooCE/ESCkW/JakRJoilhZVUfV1cODybzGl6ss45cQR9/cJeKnLXq6CmEJ3aG3R458IEoTSc38uOznzYJ6Ehetqe3qiSOOepmGBwF4NKgfP81UefTuri4p5f7+l8hQ23frMy8RXEtOZEq1llE2GLn0VKa0jAQOxwFFQRPpxG4iEg3dC6A7jD7EYETUPfSDjY3jrUi0OVJjTEoWe1b29HN44xTUaXPDRnRZiSL7kurYP4qcLGLlCeDxRrezvRsWvbiz8cZziQGsVpqqlMY2V1nM+0SvVhKrG5YkMRgAYZ6CN91ZTWSQmYvKgeFnJchkhIJjWR1MgLD8kYkAfjrASMEoiBOTAgA1KN6YKRCg0B4HyYDZIhoegy/GFnZrbZi5KtZ0FTGv1E82r5laMGNljKlNpAVSgaEcmx5nfm5MWfdxmli1eedc1dpjirmzTCPfpE78x26dH/3T3sgDx0Gcpy/g3RW/VenklRJkSQvUCtOxQsMEaZQnYSnOS6kkv4DRwi0hszRjE7xUKq22Yx6N+WRJmdDOgiK2oIiYMMq0bEKcxUgSH8tkZpkT4iwTYXFxdO5hC4oFb++ctKwqYOlry87Ua4RccOlqnJ9jmQiDZQoG8tg4CFBsXAIXF4cMFfcN52f31NrEZCo3h6GyBNrRSz+FQariqf6RW9c5qc3vyS9ff/6aVG2vle11JqcRk/3eCB8qUGo2WOx8HhMRZ2cZRqXRkGeWnwjgZ14x58pPCkSouegoNinR8hUS5jutZyv4SQ1ijLSbwgBCfngxPzPygqlZnL6iGcjPv/uXuSfaL6NaUDfCC4QZ2vLC2PbHuv90R5fm53ZqLxXc0SOfZnLp79pMuCUmfdOf/R8D5d+V21o8lbrjzNUCwvLQSSYvKmc0iLBJ5E0AkICqmOYgky9GYuMkcqiZZKgSP3l5k8yGXDkZjClhk1mYKDGrlKxefwUCEngV8FH8tcdEK0Ak/jborpDZ/qISHF0o7GBm5cl79PBePITD+AXBSg8aSwpfm+UW/xRYxkLIXPknn5mLVHCxtDktHrxt04hr0pjbdCSOTQIBLimOataA/vMf84FMesozEarUhCYNIiqM9IGLURoN07J9wtlMc9fOkW8uMhPLjvW3gYf+qiHgm1DzB00Lc3loCQc84mUo4TA2b01VVAjXFYMGE3UvNpaNicMzAyMUU1JMlxYzxBqlVv2zH59tnGqDzqjVAqqEUoCtmu3gxM6ZMMkPWdsmRGEL3PPBQo+HD+85ReRbBrOwEk0ZWI/oAcxSPUVHXKCi1uxt14zq+iTD5OU+eMv+977m1u3idsVR2fWp6COL695FVxRQ0UuOoazxeqbJzu/KmtCx89/Bn9woOimXiv1xE+/tIpyYXWb4aWbei4TImLyEjzcTv0gUXF34WR5OGUFFaXhgrSyOB1p0QuEzE7xGBuKTQrxRGJpmAXyANjCH+KHoaJ2OCKHAO8xDiy4wAibiTyApPxNcBYg8tlqgVvS14YGVV9IFFZ5MG5NrC35VwhlhH9x5lBTmzsmJ6WrBhQcfEpXQWfKpQGtF1x5+JoskggOV18Q/iHCDl75Jf/kpeYXC2OFXXbPEsgbtUPuwjtuXFqqLx91E2mA2D6x39JlWf3f/+c4/WXbxxf0bV50zsczI3zqVPZA0asf5+R/8g668/2edcx1TyYdBkM0FVyDhM2DQ422ny8qqzAsC4gtyPf9r6b4F9bx493ksrsJ0AcqtHTWhT1gGGrPvbEoqluqhmvIX7mYL6ogSk77fQOrHVUL1UPSUp47yLS8hfgZWR0XX/kp+Y1ccNLgdwAMQqZm3wVmFz3XKvK1JAWCrWO/D6++MeqDSQ6bp9dPpkxeowRPZemnUtk+YZndzBSVUwRHCp7JyKiHWwrD4GCozh0uItRhT8OffJ2CHsyCskMlyzz8sjoiM1JtZ4lCHtx0iJ064AkYAB3mPO9EFRsREwVvHGhAF9VxAk8oXiUcW/qUi4CIYU/g/yWtsgTnyWgqKPN55zJFDVdfpBP8dQYok4AiwI3DJVrn2CImQeioxUXBNJH8KkMqjsGAJnY5EioqlNuF3Os/AWGo3aZtCuVapXKtQaBTf4M8565k5DKNURxrNh9QKZtM+1aa16YIYTquMXISSi9KweJktsMhzRh0JJx2IY2Ren8gppPGUvoK4HfL+hwzSeWgjGQhGCEq61a9ldKvkzUpJ0zLS/AcGOgH/sSGfHLg+8iqC4KiJX7hExcTAW4olbpwaRW4OTeUKhSO3rmdKi3UjelgQoXJeT3XkoIV6iPwz66Yz7ZK1w9a1zin3h9tD4LgQMsh1/BynhxnNTBWVWh5Iop7Up/48Qh08yb34KIN1BQ3SKZ0Bf1IaNdWqEXU2i+rajp6xOLCGFYAC7+yHMaQp//su8aKiBdSwbgOgCbnMhSLpj0eLCINil6sqUEZEsJ5K4uhLZBQRFQWZEUYi3hGcjUs34yI6loUTJpRNfBggzwre1bxHJbGuAsEFTIezeCUFklM8iBQMn2xe4hNKQegjZlneGmswMPnZ9IX/4J8NbymmlPh5ivqdIveyPzgXSJoKmvus70nUOOjHq81khU9oHyGDXP9dpH7Yzm3+iMEE4pSPOZiVenainxpM93maPXKGWrqe3AKujXsHvrfU2Dncpy8yuPh4JZddENojVE3rrXT2anKGxG2AYDmAw2L1d9pkiKhEC1aRFS2COkwcuBnKzCvUsDdB2BSmhiAwBvBwraYFsCG2VdWNNizqe+Kf/OhJO5rY3gvNv4MduV6cV2XB+fAbDqfI59XbOJzCn7OWcDjFWxt2czhDc0SCtNU9rqW/eoXOJM6n5Oj2uDeSLIgse40+fg7uN9TbS7kte12N0fr3GXyHYCK4vTvduQ31yqdWmaHbQnqCOqy1ZdetN9AvPERHYfKZo0a/xf5zmgKdlERKW0GdOM9N/YTLLeRTEqhyPfX3cQ5fwQq9LZEw+zs9yrDitmM/nk56Z1/9sOlasCNX2DA6DDqy6x/u/qmusEboI/RXF9rqzoOESIsG1MYPmbbDuHI3HC1/3smt3+UW/7p3oN8YTQ+ZzMJQkBJPlVomAKmRM1iYOx++jV78MnP7BIK5I99kYVX44Dn6mfvpt76svlNuVR98mc6pYzrSRcsHHP8pvGALnJaRK/get1BoUdN61ILJTN+xBAV+W8Dc/xL76O10mybECvnb39S+o9ycZ+BsgdW1NDT3y/m2XYIkhQmWuqnUpg+ZrzdxdVOoJ2dxM5+iWzakMS8KyXrt7xY0SY6n1r7HrN/FfbKa+342AympdSP6zCUOBr3GdehlG7mv1lXhzpODqTlLOcAWjjzi2H/F8eVabtJwumFlmCkIZWhq7+tss4XZ38sHHNt6IWHOvvpAsUb66tTwEOn8XUX5QY1cLRtSM0bT9VLJ0/zucg6PuF8Zq1RQ2RuYQ6fIDMB3W7mPv3NVnStdxnkrQ1qXue4qes27xLL74MuOVcUL2cQEiQyrZ9HzVlHb/1YM7c1Ofpge/64tJ29sT2ZRoHvGRFHvf83lFlGj7iazCxCIMB2881NGVCTzi4mxsmldwtMYDTVuDpccz2Fyuf0DbEoit/Zdxhq5GmXQJ86TtjWrRy16icnK4x54+YqqQS2ZuIiSI1JN3d2T+nWf5U+v/3EHEU7SEY0oaVYau9/OSAVhxe6suDf3NnC/VJDnbGjQT8s6f09RXvAiF6YO8Y0d8zb36z5WraLiogPBUpg8eo1mozXUpo+YQyepHQdsXzn7RtQeXebPI1XaIuxE9seJ85a0Nk3ofUfJa3P4NHd/X/hwVrGxWzt6x0I6r4gb/ioLf4zCEgqwhePa1lSdFOrjiQQZL+U6Hm69gVivDCZKT1ZkUMVlFOxZ1gegqmEGDbns9EVqwnvs7LFXVI2nCALXOX6S8NOpTFkFte0vbvHP1Q/xFXWEzh8f9TpN7ej46p6GodNkVy3NMBqeys0ak3sJj4ieZoIXue7rS//yF2CLPFh4UoXnOyOZ+mACreYDor3wIYcJxxMrLerGul3UsH4kW9tm9P5jxHenVUP6+Q/Zv49TL42ge19H48F9fwX37Rbu3fFEiIOE1bw+PXIme+aSLb9gzf3rCAeF6MvpFuIjZ3IP9qcfvJW4Zfz2NydaRkRd5tVF3NZ5ADt4ZpgVDA39CLIDvvDQlUTq4aTL4LWP40MVgI32H5Vj57h2zejdh6lObWCPvwIarI1lKCseR88QEez1z0hmBUOUQaOZS6yUj2xHyMnfSzdQ0Af/+Jfop1jiapML0t+v+4kbII4neMuX/w7BnUKYaoRQhorwm+a/+ngHDsHXTKy632eWekNdSbTGLLBwdULKa3UaBi9y4fMofsO/n003b0B3Ho6vKL18E/Xjdq5be2rW0/SQKZyobtzTi84ppJ58i7urB3XbjdQTb3L39KKGDyRf4MVruDc+5xrXoX56hwFyofN7/qWWbeCeHkoN7UNbT0oKjxY+/jdfSy/+mY2JogVdBh78sO/eOpYFcq2eTV9/teUZtNZlYjXEQHMxT/HbfA6IeTqT2ruYSU+qcsuoEV1GwpcF4tKuRQQOIJn2HsPu/ofDRGFhKYXPgM0xeS6HkTKzZkhVkJptbzv6+5NV3PsTaJi0ysq5FZup73/llq6n5k9mbnjUsWbqiAb1028cDPMQ1claLJYSFcnF0xi0c98xDsqmw4JyYnByIMlkGpt7cVwOkbNwfJ+QPC+17r4ogsh2D13Q9CArj8j2wnH3RC7zZ7J0o1NrLOXm+l1PYz24MJktqhvIKUxUGU2WW6I20aw+Pe1xCmvAEypjaQtlC4op2IatD9g+dixkoJXM+pL793SVLnNNKzLR/t4EwkA4PMbF2H7PBSJafqYMFQn00QAonuIR0rrM9v1cwzuueO2trFckfcbiqrvwe7jzefhaKQyGK4IfgMj2/VUMAb60GmIBJojVo2eBQhURfGOEz4wIQF14FANXOw0nFximq++3xbXP13A4q+qgqAHjbfPYp1jnD9i1iwU6nrbBWsTzqGzQOqBFs2YA1tjcS5H8sg1rzBI6GLzIBV8tGGLx7MJLPhbB1/gVr0fPcss2EvMEkAuPp5DoeqhgCZ4/mb7+URbu9fAMcp1Zp6duGml50K/UZbi8Inrs2xzMK6gU3/OxQ6nQ1WVcM0G+G9IceHDT0mX9HiKwWLlECd0RNdaQ0BxhzJqQfTGR9yJeF5/0YWrdvdGV6/sqxwYrNCRYC6qWgojN45JTRD02g3trDBF2gBQrttA0rZw8j5szln3mPpLy0gLmXBYEMZPQBSx9w9KRiAjmygsgtmL/cfPi6YqLOfSBk1y3Dip+xTHWwNIKJQtzGIoIVfNQZaGGK/JnJfFDp6lNf7Cb59JQD4+epWd8wazYzC2YwnYfqVAqLEQQhSlCFQFW4EKlIo2iGVzgygKXG/ZQGcnsD2/zcSVYatlGtEGJPF9MV0CX2X+cfv4DRiiltCoVum+RP56KAHOj0iEMDwl5TSIW/YIr6zZY0isTkV9IsSlo02xJXjqRJqiJ1bVNM33Q87/idat3RCS04AyY08SvdXU2VYsNDgxjq30khuRlj88630xHYmn8Ep80L6PBzjgyGWQPUnRih66+NxrskCq8tO+NqVkK4c2KAd1oLE548RG6WEvN/ZYoZU/cRTepS2Gpw5tP0fAw2PRHlaYGVtx+o7F7B2rC+1eob84GKEJJ9ehEb7ai4CxnwNLFdYs2mp0gwlg3Q5BlbMzkyICCYua0x7oLRSTRE0WyqFps52+X56w+lbzgUB2hItFjwzqzdbMDrC26qK6lrmLOxf+6l5EJlL+jYt5Nq7c2PsnFQIdkUDEX/ZFv+Y8DbZtRmJpw5h//8nzOGragU0fafyidNw6TxXB36HMdWUUf/IeAUzWreVm3QYDCBUc+PlqgEWHLUzbaw7GnFDzKL6ItSuH615OHAFulXfqOr9+0d4t2rmELRWTk8ojbtTrz+PudCkQ9OtKHVzBwPUlLwtQeDU/UPYuZ/l2JqNWxFf31G5iUZHp1JlozsG/d+wxU5sUv05i+wErGLXOZ956lX3mC3P3lLxgQq7FFBu0YCK+i9Qvp76baQGebpIrxv5IYnK4PIJRwWjdYgK0AgxfaWc9oEJqR+Ml0wBZSXq9bfReQLdiRC+oJvsbwwILTg/V4QDfBDKPNCCEPcroeNvEuls7h9N8x6CYq1ZG7pv9q9I6y+29any70qUxLJSMGwZ+ewQnfdyRt/5vDiYsn76E376XumcTt+YeLjiQp57K4YS9xz7zLPjuMmA4XvshgzeBdL3BHz5LMyIB4WVAnpy8kmU9lcn27uDuC3vVX2lL2go8g/lj/SlujQ2o31yNrncZtc/rOB4OQaN/yF7Iz/z5qNdlsn6MyxR5Sgxq5XKgnDnQT7GHk9gE0hL8VvvNwT/XH0eNa4sV6fCWz+SMaLmNwnQ31A/4i8DgVF0jD82DQBBbngu+vsGFhclbAa8R6vJhLMEjw/ESsoYQYsmYQRKY8QsNXHoMrTA2fvMCJGijoQ2qTD484EK0yv9PjPxQ5Xmjlg2NHomZ1WzTHWsQTrl979XGlM+uDVXA0u66QhKBGLmv15KH+1Mq3aPip10ulHOomA7uR98R93QT+DXDBH3STX77w8FoS3lg4kcMn49yPzMIp9G3V+WQ4HKEgSQQkAVaAX66PT3/gOl9FY7k1ojv8ut+WtxdzqBItNX0BN2Y29+hr3OyvbC33cGGBk518eMSBOTed2VSjm/fYC0Su2//T6cMVo6Yjz7YJc+5t2sY7+TSokctaPcHinnsncz/v4B4aQDvWTfjvjYe6CdX3etdM9v5u83tYxMsXykMhurc3iW/13/fEptOrk+0r7X01ASwJp3nRN9hZte2b03D3hZX91huo9s1tgQnups+8yy1/g8FH6PNpNCYTbY4G6fSuQ7albDMF2d81K8uMuPpyswTd1N8bO+SK121z34bgsF6bRBtqsMRfVKkff2PJwOZtf4klJhUvJlvtnh13GhKQPDbqiah0QMsQD2vdBKveEmNtdBNO0E2QH76s8InHEUjdBKvw1u6EuwDTpXK1EHQorCJ6+DaiSWGpCs4/DgeEm1JUgvAPkHYRwcbaXR5ClkB71ExyAee7u1/gEGFm8C30uPvY4dMR/ZHcP3+ZunkUcfHFQlRhLapQysar/uaO1PzVIYZcUrDWSxrtU7Rzbj7T87v2XpYPSDFrJVGo8J30erPSG5hgsnF+iKVEtxJIdtZAHLwylzvqibVuAsd6Gz5Uq5sAHP2tm+w/TvV/hrVXi6Dzjh5Mr/+A+WMxM/VRGusig/8Ah7FZicvnjbq6KbViBoPZQ5jwF6z27OmCNRBxcoIEyn0XOryQIzx9BgBbz//W5FCexHFURNQQZyE9bZjD/IKG2O6972dkNHQNWw6L2yR69my5Q1HCPNWqJ9a6yTUtbWuuVjdpmE7tOmRbyh9/I7bEbc+SIJz2B+Y3n3uQ3r6AwVKnZ4fRCFARzMfCH6qs6Q7biaVa2Blg4HgW/f3zqKuPqn1xrEP8IsRjzjhEK3FezzuDjj2jhJTXu507XRT5+eHKxb3O8gUw3d7g1aGiKt72q3Uaxi/65ZTa6TSCs4lahz0IXm0RzRXVE9EJe/lGp7oJXvuHX/VMN0EMz7kuwwc6ZJl3ibv/IZG/MJs57j4H7zMmWDq0wEm//BiNnNAif/zNQShR76qWS7nggI0O4iJnUN3q1aDonuZ53b4h20EG54GV0i9evvB07iUNNVho4Qdp9aqdY3ffMBfUMle16om1boLImR4NIcrOX0UCDwTywDYQgydxx8/b1imqYOhD13bUzDH0kW+Y72bSmI6wj35lW9jub0T+kY/w5sAb3c69tKtxgLd6tRapXGvTDxbkFD49ELDlv1EIauRCt12rJ9a6yV4PTd2H/6Owm4P/OOuM8rZ93I2P2bpBiZmt5TG4pH/4HH32R+aL6cQR1zp2hTPiSEf8vPM/MYOvdNx1kV++FUgOOFQnPW0A9MT9OTHfn0r2tGAA8kM9/O6/o4teGo66NAtevbVFWz9VGuzI5adu1yxZuJIhXjtCpJ9175t0x030oqkEwuZNovt3daBsWncHgRVxQGrzk5NtzbIueGp3X6+Rts2CnvjSrkbSkvWdmoL3Kd124lDvUgdbnVgAACAASURBVD4+N3/8GRUrrXVPpCwjl8iKQF8g6MKNT7DYkMbNiuFwcH9fevnrNAJYzxlH39zRMYSplCQdceKnPe44g5vVuciGidG8TQxmFVzkkW/5iQO+64nWMwaAFTfFQEFVFH6tHR3E9F3HDwpdXpgSiEkD+eHz0wPmFlmETn32PW7E61w2v6+XmxgGVBpxB41FyweWMq+NpDu1qaoL2zwj5oxwwOsCJjN/HMNvo1FRfb+GVfdHu92mae+C5HZR/2ac2uV8IPVE68m+ajvWQk+ihN3W/OrJ9ZpUm9n3DEE9t+h790KCwg/bOezs8OZo+v5+nklJ8Gh/eiiN89hZCnORP+3gjMYrejztMcYfkYvhTYIDOm/YH27KI4Hhg1rBPt7uct9V/vkc+dyHL5PT78EmadEe7nrivF7XzJdlLuecC+AdbLD61GwOgdgRVt+Lo3VjsufN758yWFhjXfz6ttSYez1DQ3dqx24myGa/dsedsnIerznweNvLm84mnipy7A/l+j23qVQqI92mk/+IlJ+t39TrrnlRUEYuL5jmryLfbCaWL2x743UFze3C8sHa1Uhqs8PVvDYQfeVeh163WS7oJgeAXIv+lXos3aybouzdROET37m8yqvI2hBmQ9UjVHXdItGtX0Yu14wK9F1sFPjYG9z49zhh9yDfNTJsKSatqf6qJpaIETB1eeFrFmiGhkt9D7TOOVGk+TPbdiOJwPevq7YEE4hCvXNT64qIhgvhxC3B8C8VYFlTFvsrI1fgh776Gpes5bo9zq7fRbY48vHAVPXdPWmcPtIRi3doWUUKS9xD9HDtSBmEnfK3wGUvUjnEnYnZmWtPHRbW9NzV7KppdQPtnCG2U0auIHxKSZPOZVEPTuOw5Sp2CcLhtfAleOdPf5xs6y3JgVVK4oHQF/IRAA4MbFxgYunNNRqEqy2/AnHy5Qv4haiF399i4gPQd2dVyMjljDNBkY4lBN2fYH/h95f05cAs5LTHfCNRWT0WV4otSYiVhqYvXasNZV/onDm/cjufGunviPzs304cit27+T915H1N2gRe1LLvtYxc9jwJrhTsF42QikKYdrTMefDbapo9ZgiN3St8P2SZy3ceekThmY4XL5SqV5+6cjd2j0j4lvnjC6fmZJJo0fB76N6yw2Z+A8QaP2TkqvEhcKsBH33L9XySRUwe1+GxXNOa9rivw41l6tZ7kSXGuK5QvusrBxrH6V66/sIbexv6Ssir8jfyux8OK8g10vS4Bs3g96DDvAx/OLSCeVWJx4UEU5evj7LH1coFvOXAoVPU7RPYmV9YfCY8dZ2AsAaXejjWe1s/KWetKuLP0LJz2UePsmFFEJrtAVuz/6p/wuXWGL4MqHVZARHElFtLCtecJmEM9kTH9mzZfmlScK2ZkJFLqnEPEJ23l3K3jmP3HaM8RSDRVO/Lqh1rVTHkkCtAIyRdNYOaFrROKn/7LzsnPemqcEFp+Zljwl1Eiz8a6Spwkg3kuaAp4S0ZuSRkZoBIIbZP36fZd5d7KnWR5mEvD8wzet3QkJa5xF5bRytGov0qYq/5I21BrFKc8UcN6Ik9S8n+S3hKPk9OrxFUcoeNMnK5w6VgzPPG59zQFzktWeXq2YG9Le682UvwspG5QtefyzXLBCOOhKacFpzBdY32d6dcd+FAbsz6s4n2t/yacn9h7sr/jqCKJcnpzwd2QY9H/ZKRyyN2BVFmBL155j4KG9x7Mds4/QkS7MHTA7su2Wx5G/x2riA0XbnD9quSysd1vPTGH/7chN1RO6ZlnZ93/pTwaIwPYthC2z1/fh11WE4LMAcAWytm0Dd2oKExejHb2LgO9chtHotdNqoiuoxtqwPc8VpS3dTrzwO2Msuq25hXOnbEm01Lzx4fn3MRJKfWbSwdYX9Rksix2l/Nk+k64AAEn12LGGHTVk+Rw2Sm8oso7Id4/JzHZjIbVREtC36ZywH7gj5paMvcNI3x44OVgdb83+B2FdpPz51sqa/IUarGNGy+ld+9NcgPGbmCfIAcNO++PrTDvaZLy6n8YuHkyEWR+Cegik8p9mnHEAcyV/iu/pHQyOVgCJ0nIQgXPCHGbgvcBpz9SgoXnTsZw5p3xsSNadD8QkTgBD3nbKj+joxc1fMo2HIsWcfBNF5hsMIpHqSwv6RfD3uZCzuHY18PyHHyIRUHAFtbzidszwzQksBH8rPf5f3jv01MfbJhc6l6EQA6MnIFgMnSV/HBNx7rej42Artww6PC/oDCmFe1YYL9/ZpMEb0fIECJ0aOCdpofnOqUXvZg65zrlncMDNemXL7wQnYm6sJOiNjGNTCVSlWLjFxScTLM6dirikKHgxm5Qm5Ixl5zacbeBvm6QLyVo/KyBNiaVK/JpwHZ80La4ZDnFqXlZ9hSa28V3Ma6k+Hq0hX4gYQnRLc6JZ8HJOrpwOKCmRfPoo/PNGgWirCFlsvIFfhHNCRrtA4oaN0B2TFCquEc0Tb7s8PpAbACtK/QLjh/Cs2ek17/KyerEWtqgsJ9ZsrI5T6vanVOe/O8wA7ZMUKSxyJVYxxx9eUACFzYWwzbXkSz5m8SU9/MCLSnqyS8EojIyCUhM8OWVLvmTnf6kZFLklEf0fby54czciscTYJIUgFP5JoK7erTRyM4Dg4Qo0NqJtGeBzJy2fNETrHlgDPzPPLJdi5bZnn+N9yJH7s6+/N/+W0s/XYg2Naq00fqGfUb4xLvaXqV3+oJEOFAzGIEqCtyNX7jgDNVERXKMpfvXIfAtSsr7kiBq0gyPtYCd9MlZ49D2lqdkPJ4IyezLT7WEdjiyoiICN9rVEtBxPdmBAOFkGMFgk1U+wx0bAlnU8e246R4JiJC4ZDzNc4KMY6GdQdxbR9fwzqxWm447KzrRBesSFCbXuyS+eDGtv6oV2hV/6L8L/hgW8tTMyY0biXBC++6t87vuuCD80KO7ygNBo/jbzikJBUdh8S9SHyYX1H85Vryvl1Yw/x7mtDYsIf7YMUVb+B9femRd9NRaurNxdyanRz8Ld8ZzyAAw4bd3OufOX5Xq21MsLHC9wa3a+7UqhAXxRoMTp3og4QVpBmVYS4cNsk60WGGanlYbQZnZCfecObrYyl7LmLfXWneRJuWDCgu+OLscSQuTMmYXLcJJdH7Xm1/nWVwxgdn+Z2lh6G2iNgJn79Ed2tPv7XEAj3Y+GvAeH7zryuPtCTq+Yfom0eyMVHUjgXM+t3cxxOZUTNZbFqxdR6zZgd34IRtkVr4d/vmlIsdzxLJ9j9eQnwtZKZNl2+sWzKgcUFnvznNA7aWibBVr0k4MdzptzR0O4k3acH33KptVa8Ttvxa+Ra94QOmYyvSrXt60Vvmko5370Dv+YfsJp1bSOWXULgbG00dPUs2N9x7mGvX3NNADKHLM1ctd2GeRzHZzuWKd9XdI1FP9zaoMPnlNQxj2AJf/cKy6sbLv/eBO3v+vaKKIVNYbPz1+Rru7bGkv7/u46bMIyJYcjyF+ArCoTdQGUl0KdkNkxwGIwUVUj7AgQ4tXbFBRi5X3HF574l2l7VGxfJjftmZ4ipd+ZJzRGUgSmJ4SVsCU8MQueyflj/IDibUjgNcPf4hKSihEModR1l5lcgQH0Nl5nDie4g/c4N1IbF9B/2aIstc/mAvXE9f6nLef9uRYYdEBcctS0oLS9jCiNQK5KqbSp69a1vRx/hweklx1HW8O8vBk9xN19Aw3TZvQOkM+JPSqKlWjYgxt2s7+veDsvmGcMmFSwTuqlUUArTKh6ccmNrlwuIj6Qdzoz0t6E7+1y6du0FbeiJS83z9sLJtWfc9DC30NkOLAFKfTKJjomizmXr2PaIk9uxEPzWY7vM0e+QMtXQ9t/kjxmimxr3DQs0cO4f79EUGFx+v5LILCJDtW8IMmsCeJkFua+MB2AIDXR8JMVS5znWWIL2LiDeIfiPEvcFKPUTFCcx6vR71i3s1KPKTYX5Qcf7TuZfA8efrNdXTYSuahC1yvTjPIjEh7t2dz+O6SoBavY3DKbxMs5ZwOMUXC84QOMU/YbzfdYiDOFZrD9eqosAWqNiX8moth7zpuGCYN7LSTwFhNbUQKfC1Og2xxMebxoVImbCFZEn436IBtX43dTFXEmIhScS1qigiV0j2rYYaPbp9Vr5O9e0J3oQh6dFcX/HV2ePJJtMPCcnvp9WTlHbQEQtbmUsSTp+8QJ28UIusXfDL7XEttXIr9ctfll67I3PJLl3uP2wZ0Qbs69N/dTv3i7iZs67RANhqYNBviksc0cjlfLCbFIM7WxgiF3afXzCFiVRTHEv1Hct6sR3hpo+Y+6eymIIUD7iAde9ATXjfAYqtf5+BRyucKnBs2cuZWPZCNr14jYOc7lBTMNSYIfSQ3jSsS2jAvZNZo4nK3sAc/o94mW3cw81ZyqFHSDl0iuxX9t1W7uPvXNXl0eM36CZqYDf6/r7U0TP08k3c8o2cpzIXmB8XTcGAKB8OOfBSlwvzD9X5N1/iJYoJZhNgq5Wu4veYuP815r0Ww/0IQ+QadTeNN/zDbzjY172ALYz4wPGsR7tCPP4G+3elt/20x316ZODTD7Do/wyLzavrpVIwtAHC8HvzKBaO7B88RyPD218R79leo1msUgLIHjpJHD58qrWy8BdrgFzkjzZNqNdH0TjdIdsgnTj33tiewv6PLflo5kl9HKxYcIdUeOfp3aCoa90SyQ3zsPgAtjqWl/0dFQPYMnqxAWcI8j0MkQvW4j7XUcs2kO1wcLw7nobTw+V8qk4K/fJ8Fgt6XhpB976OxnT++yu4b7dwyABQAEA0r0+PnMkO6Ea//Bjd+E6257X09MfpwlLq3eUEFzq2or9+g2qUQU+dz22rVKZcjPhtN9KTHyZvPmAF0wW33uAWtSfvobs/QWALh419DcLXO8u41bMYIJdQL7L9dYRrVAdVuGiIB7e2/Mlt2kP1u8EtwBLpTvzfFfkhHsqHQw481SFr1p/1vfuaOiQoJGJZIiLYHI/UALaKFGH4Rjvsexha6Bd+z+FN3vox8+KjtPD5+eJnauSb3KufsoIPPVQ5CCwPvMwCwgSmwOd+9Czuxx3c0D70vJVcAQ95N3ek1u3ibnuW/e1vghTnsrhhL3HPvMs+O8yWk+8+y6x5l3l15BUv8B//cn3GsKgIUNgowy1qmKTD/joCYN3dk8Z2sM8Ou4ImsBh+/+JRJ4W6+Vr6wAlpBC6BrO+7Ck38KBgFLsH1QXSAQGcD4wAhDtYNGaWN4nSSG+bfzzx9e3EBdnh9pFGrS6oaDANh+1L4++8wRGisr4Ywtegnbu17zL6jVQzEgsRm9cmfzerT0OmwvgeOSMIB5QsHAKtuSlX+2V9xEL42fshMeJ+8ioLZC05efOT1K8BiwntV2qJYHqu4UZxhSDRR+L66Q624jJROTSDu+9//Sjz+k6+c18Zc59kskgdWvB0LGRjXZn3JCWEwqtrt29Xuf0jVwE1PycAMh/WhMxZzoCAf9hxAEK7PpN4dY3rW+eH5OSaafrRxS8hc9pWGcUoYylxYuAOwwMqeS7kc3nAcguQFd/lj54hz6fzJ9PMfcDC3A+NcHDB1IRu2ZZ003IPXGKWEMKGfTGKWbuDg2noqk6Nosp1qtdSgRyzbwL35FNFkcdiEG4Wr+tRH6SV83B6dnrppJAtn2hWbpRS4BG7AROiCLc5uAbagREOfdZYhqNIDLHA1jy/v27Dos8MZEjJhbM6lZ3KIh/QjjVrujg5n1y2HTAtDmQs2LAg7QC7Ee/h5B9ejIz3uPnr4QCoygoYPPdxK/zrKff4ynZlD/X2cE5YBOWTN8IH0vbcQE9jbSzkXYV5syq7bRS+YTO88yEHTnPkUc/w8d/4yBdC8oS3lDrVpCzkY13Z+ypRVEHiCCAP6QNvfFzEQEmGVW/QjBznOrwdWQQFAH+zvAV6jPWjepLmhAVt+5Z5D4o9edQn7+hjMnrHUISkh8f7C3FezzuF6XINm6+KTXOQM11t0YoeuvvcN4RylChjme2NsKMAAv/MgJTrNS07fhmAws8Jh3x0ueWlen9r7hbsACVERUu0z73JfrbsCuWqcFcIe1+i1IGGJC32s+WCd6JAVDpnmUWJSpOn4I3+1/+raLK00dqhbSotW/kfsIK/UafRhWl2PGlOzmSV8JNx9Omu2w3LtAebAqUwKEx1uVgrY+maLLWy5WbbGswk2e782Y1S7rOXHM6SCrbYV2s/OnUSD56XWCS3YkpbJ4Y9csGcFTOCSdmxqlhomGVmXdkCxeRdzqEkfuQtzNdupwNeOnavHdbz0/sFGklSdZjICtuLNplUJKS/VbSwJzRAlErbIBV8EyAJQFeEkaT02sH/3u97W3IA8yOnmEGKCD2fYH1l5lJseEi98xJVURmQMe7Z42kGs9XnjjwYXy6QJU/nZuRPY6nVHTPwTYbF/j6fMtM4fnsjVthl1/dWOHehfns9t+qNKQMBqG2H+0U0mAg1PZ1KvPGGZ/nOzVKhkg9HHuqmYZMREgetj7ndXRNdwnbm23R3aMjdNY/z4oDSmqPE5F+FxaqDpx2o9bOFBCk/kGn8/vbkSnh7qT4LQY0cMLKbBPOPhFQwmH7HS8PvZ9OpZ9J7FDFbqgRG8izxx/uzVmfwJ4Fv3PvPD2/Til2kssulxLQld/96zNDALjkv/XaQG3eSujBa6ryv8y2y2SrLpy/7j1LQFsp7oeITVCval6y9IFfW0ta58WtZ51PRI41Z5Sv9uhe24P0GWGp7I1acLDRuzcKzbhXXLxD3ioQH09r85nEjHIpvNe6l7JnHYQQPAhMPaRR4rgRa+yIx8k73rBQ7+q8iMDPBuh8ls+kJSHMT7Xh9kI+lGc2xEKpQQZt+EX+GuTR4gV06hU9KTgtJd3llzA2CMt64asLXlfML2TKtFD85a5kb6qzxsLUlK2xCX6Eb28M8ShsgF7Q/hCsQonaLvOzxUxQOuUnBVx4EFN3DswmHtIt8wg1CY8gj98UQaiic0ShwIdyOuOANxSG214YAD7ftf20pVkDpxAMT3ke1H5cMBBzqllz3YOmfGH/wCdJ+PR/Kz+5YU5ipVr9SVxtLvc4tqnkAYIhdQCcji2nr16Q9c56voOc/Q63cRz2+bccBkGUzO0xdwY2Zzj77GYeGOTQYQF9Y21vwAumwBhCnhRC6HIpXL0pab81dzZ0hw4KoD7vKIxvHRt7ZscYdaAPKIblwBqMtZFYh6+vofDfN1Enh6I8zp65eI0+n0uo1qz4JqZ4wV0yXgbLV1BD7D7n84yE3YRdHZ0b45jUWLWMYIycs+mJTeSPwql7/BlGg5rY564g3bV7RhOqI8O6MdhunQGd+fUGXXg9ledpd3McwPtM5RK7jFh9Nd5HHzVqLZtOD8yWjW/E1i6opE6cOoutmMIMwWnsg1bxUxxu87ShYnCkxHkDzhYtRMcoE1gHe/wOUVU4NvoRGP4eFX4fNF7mOlDiJh4QJ7MuIUB2z7fm77/qrhQ/gqzKlV/e3o6uAyBgD65FvVZHNUNOjSsHjz8TuJ4iwcEz8kS5ocuqQHXdMD3iAY5qdcd+HJrS0kqXnBuZOIF7grJm50w+aSEAwbIuGJXFAAW9Qn/lzOYiFd3ZTCokKDiWR4dZF7DpeVY46y81dRQlwHZ8/BjR0oxNtrkE7DhQLLHp1lC6F0+HZ9+iIRu7Bbkj+WeYcQK1w3FbC15Xzi75ckWAL9TuZ/fUqLzkeoRzaUBgddtzy07oYncmEMFv7gCi+wUywCLXg3VHzkPFfEcfv3gxSiLbdvTsz8eUXU4p+rye9dSwJZatUv3O3dyTbgQa4nirOlAY4GIYxFuxTtY22zr13W0feheTbn4qP52XhuRjVsUasCb7nJujC00LvZc39ne+x1CzK+M57+34BwcP7CZMWA8awQy8zf3JOEvgBegYQwCFxv7m2QW+Grv9WQwryXeTcIwNYf0bGScCPMiMjI5a8Bxeay4qQk4scP6xcO4BUM03b+GjCf6Q5unpceZfzkUB0fKcFRHlZ5EMGeiSsTrWJd+kg3vIrLyOXH8Xzryyp/AriGYUcfP1bmf9LVuq36vwlBXcOULhfe/NPXFa2NDbqFPGwtSskI+z0TfRlOGbl84V71ZWd+WWXhWjCF9iJKcvV1yDmCgAOTr7vw5+XYred5/2ZvjwiO+/TcyTpGw/q4pIn1mnhLplaUk5HLv8O8ciuHTRjFOj57iQ6GBY/2y4D8y4Vwp94ioWLCtRd9F7gWnjvZqbzsoCZaDgVR7SMjI1e1LPI1g7XYBVpfTqcRgcdXonJ59zgQGPM89MSZfza4UOpTKBss8bmjOB+rqUc2alHu74jd7nEvmHPJyOX30fn7OIUFNNbVLHuN7msXI8zv7ZArqI4D3sHcbU0KWiZWvLe/XnXkXd3PMBqEuPLT6jY6qa5du/i44ovzezJyOeeNdHdgqi8suYLc8tfpXp1kyUs6FtccJSJw7fXVMP9K1rlYs3lNfLK8xMfNkZSRy01G+ZQN67ff/IKIXaJPP+JPfD2Dxp5APtGVC9c0B57pePFEoWbtGZ8ih9xVlD+0MM9I09PrShNboqa5Eoj6ZeQKBJdRx2c/cXsPW3Z+FKrEppAAr67tAtQAsRqvg0YEuqGhUN/DV+XM8y3kaT2jXnCDmF6n0dmISGk7jQ8jTsT24E9OOBU0J5xKhsOpwFmZ4vBCLHjlhUiWPNXk5Ovy4ORLWbfNpvbK6kge6yoEFoXt6h9pnwBJqEFnXD37CiErSk2tmMHcO5nFaiR/H4irJ6yRlicWpWL14BZ550rUf2VfEQLbI+J4GuAGoeS4LbEJ81OrcWEloEAeH054hvhrC1KQf8R0IRV7tSnYSCUbpWQ1SrNGxaqtQEql4DRKNlLBKmjKzOGkTSyNX3LNXwgh2AhR/i45Wdp6uRwyCIlCWb44SXHdfZXKbDQahTzAKUTUiGDYCAWn4jEUJ9BKpABq2KHSYGbIL8vohWuWrjDhmpGRyzWrpbz7637u643UsFuvGN3YKOqbN5jBU1gY8oPzgAOqd6br4OyOhK165KrsRf/6tG013CBu0JYeiYyCG4Q1MFWhEpFlyMuMlFSNMUVjjI8wx0aYY1SW3xj8qTLjN0ph4kGKxyklF6k060xMhZEuNzI4K4yM3iSgEvlFrAGdidYZGRNHKWnEzoTkRRGRh6GIFEZzNOQc/sC/vFBGfivTSDpNc2JBxBBW4k+eiOuDphmOswAgwI4HJhqQZDRRRpagp/V2U6iRQJtS+KUAcGolh98oFaGgjNHw4MXhv2rwUmyT/erhCJUKvRUyWN3lk/i/7YuI1MLsQh3hajfQd76mhvQxYaStj4Q46psZzP0vK/497e4QuMk0cfsL7NApFBEv8Ceu7TMI6db0kUco5U5m64KuWeFmFzzN5rCRnhJxJ3+X9OKMaOP6C3VcDriFksAKMro8EgkgNTXzv8FlecVq5bOtWnOayHoRpvQoQ3KkMV4NeDIlqMmZpDYkqY1JkUakF+kUuVplYYWyTE+XGhitjiktZy7r6FKdqsyg1hoIPJUbafwClfDrTi8CnEetVuv1et8rBX4p53Y/bGABewzkMZxGM0E+Ey83Ojw4XrAEQPKyokWS5GhVucEsyHV60KmU8UC2wgw+khSHMmdVFU6qc9gGMdFFIf6WHRAQgL7isKdgHRin8m4VHUsK/499WYG0i+2+/8ukZn5JvzzCtmEpCdTS6WZIXkfPXNk+if6yNEnNb0WutqCYdTudpTvskevM1k12wQqJeuaUjL+rfrDlxS8Op4m1CGAkqGyixITGCWgFOYcxG+LUZmATRKe0KOPtbMHAegWUhjqSqpkSfTol0oDMWaXKnDJFUQVTXMEUFTP/aamCckW+NiqvXJGnVeB1q+7AI4mz+nzV0fHjfUmQC+Cn/HCrRpDBeKmMVUHwA57x8qHDg1YwRCkleagIXryEtKWJVDIaExHtcKoqZTwlBTU7EoKrCtosMQRCpER+yJkiZZbHQRNL4cJhdQ4TWaoSNFkrWhSvrgvAWqkSAzrNVvgF2BWEUvwKyjN+jXioKiGYb4wlD5FjeRSuhGkCvrgr6ttAagjekLct6j0PixEKllaQR4fvJOmUTYywuSu4+3orWjay7VlGClEbh04xn7zgDBMdA6gtIUu1V8C2KBGLF8iFURbLYkwdXqNKInMpyF1RnMFzImZGf6/4QvBkBFqgyVmRraqALyyypTKdRopNHrGWGrlwAUb1YvR3Ns1/6fdGMBWB0dFKc4LaHM9LSfFqXOPXBCWO193ImaIxpUXq0AtgU65WEVdgHphbSpVRC7m4lUdjAVXAphJdMEpJNcJ5dypVHrjkk+OvUIfXQiA0Z2KZUzgFSod9wDdNwFbgoLVJj1ATIJXHUAGRrXVvZIBtUsmwKhUtqNDEOqiogmClklYqSQoUOr44i2yEZqUtgGQGZQUxK2JyUDAr4n2z2BEBc5xCZ6SIAGsmNsUKs0JHTIwML3ISEwOw9eBv0S3/l4wXVfg4i32sn059P4t6853Si9ksL9La2EQFlCdALwqw1uZVqCH4nKBJKoY0G7bPXZWkb21USNAnM3ZoyzzqrCVqypgOl96qzPBilwvU31cJf02/4RwuhKEZ2240rotHDfjy2EcPV2b+rO8Jaltn4a8Ft5wEmou9M1Okp0ILKVqpN7LCt4TvjsUSTKDfWjDnr7VGRZFeWahTQkgHgIkQRowY/J9CypV4x38YhHbYYV6lUcZyw/rDaMN28Ra5EO1KFAURKSPKQExLdmB0fUZJlla1qM/x2Ag2LsKkN9FQ5YoqeHFJxxSVM0X5TFYFJehu5UaF1hR7Lp8VsKmzUbemIAtVzYlOfCtG3sin8qny8N8attBjhoJXLa2fKw97EATZAY4iDsZGqSizXgBN/GpUOAFzZmLmVDD4BXQW5enatlO3ucbBnFR6quL15zW/fHVOV2y0sYlid8Q4FAAAIABJREFUQQiACcUhN1UCNy/zIp0Is2RrIgEmDCZeojTR91Qyp1dqDmFyZqOmEQjO30RILi8UpSjq8GnLjA9u/XmMiFQYGkASVem0seT3iJ47Fvz6xKhunyycxUXfVPm9m/uLRjDN8q0ijak06LKRasjSRgLuSkZssEpJJ/A2V1UEgX7x8xCjZhM1bGKkGd8JvOqYP8KpNSnKjDiVpfg1kOtSA1CAGHQqTIpyR1YIcZK2Q0oZ+SxZT6gxvE7Af3WQTm7Rlj+FGS5YuGNUJmL8VpmSIhEwl8oq49U3HVNcrigqoLN0TLmeS4sx39dC99DXGWcLlaV6plRHkNf1Yyh+2uubTZ8W56gobqkmVoYt10xzfbeGkct140LlLqSJchaTOOTxLTaq9PrqDQ17CnTbVztALlCIS1G3ur3p0CcLsrLNvnLgNQuBSWvIt/2hRtTMzfEjG1kSP9sTSw20XK/+J+adyvQ1R6Lt691zzuJqdDCLB63KzH9fdCqzeyeJA1ZgXogiJws4i1FzseTXGBtpxHWaho2Ow4w++R4ggyD2Ws983VLZ9Oc7nNObKdht+Wl+Iu1C64dwhGk1JAJrTCbaaKbKTVwRj/J6IwdALNVHAIxgAs93rr4tGZb95i9Jv572eI2OkuIAWw3Mpi3qqPFx8nYY9k+ZBykycnnALAmzHj5h/OjzsrEjHINXmxbKZXMT73uyIDe/ehCUsFXWpM40atbk3Gk/EXdBVpDBS4hR6MopWBdlrG9VgvX/lvolJt8dV2vrx5vm7fJm/1fA1nVG3WFlxBPxaW72Rs7mjAOyUdAZZ/yePuvjssu5TqWq9m1Uy+YmJSbIA+T3gfCogsm9Cmdt88Y49Xh5ySCdNp9RPBGfXkrLw+oR1x1kljnogCmBSdLpubfmlqEum8lHsfZr2wG8EuNiqrGhBKa1zmqBaCaczjKEU/qEm4sOZ0dsPB7laaeamgyvl+aj1NTY5BNKX6PUe1p7WOaXkasmh3XpqvKdew02U11ig4BoXa6JWDo3KUrjGXhpX3vY370SFMkaUSf93TVn9BsmmCb1Kpj1izcC1/TCbFjlv4mMWRnp2D7grFI53RkHZORyxpkApc/6uNRZTUA0gFe3zhGQvCJU7oKXAFsOwatWAY0zrnqdPvmWgnd/SzyV77HEBD2xT0VZLqOYFpvsde1yQRsOyBb6Gn4kdu8zfPld+cNDHCsgAnjddL2aGOxHF1iv6nKn3dHTvnQnm5ynWg70a1l+bT39U6s9tqx3N1S8VZoH+i/HJsPIVW1FcgY3OSDLXG4yyo/ZIHZV6Ow8KSsrBHjBtarXjQAvx0Gg2rX2WAqQpDO1SoJ7sXfBm1sd898FM1ubDJ8V5yDDlzGJsp7oglFe3JKRywumSVwkJ4+d+ZFTnRGVCe7gfW9Wf/WhrZHl2ZEx21amvDBaYusJjO6oV/iVuLchSG78TUX/5at+cuTm5qI3qawZsJXMmn+KjH4xyaeQEi5qqbW3ZOQKiqGf96X2n6NVXuzO2jTglsjF71WBFyYfp44jS3lu6uLUHdQZKfv0Wmh0t2eCfUrjRKMXAheskp8VZ7cyGXZFRD4Wn25PVk7xkQNhiFxYJfPGpLit36Zs+SalRRMl1qPMnZHwy7cp65YmX9/RNgTN0EEaZPv9x9Tb+xAf8batVRuWpez4PvWlZwK9JfpbHxMPiWqPQX0jP33bsqnfGxPjhPxOVc1qyXmYoRYazl7sXTh7m8eGecBWN4PuuDICsBWw0fFwMEM7exha6AfeElk3XdF7aN7A3pGvPh/3xbfajDTmlqF5Despvvooscc9xFwqHGkpzPNPxvQYnBcTTW9flbphm27ujPjRk4uOnzZtWZGyZrPu4JHq5SCpxn/jr7ofNlTc1b+aNSWwed09QGMyU2fOm7t0xNaiZNl2RmqwfIEwpxlO6DawtfaqdMPIlZ4Z5mGSv4N3On0sPg1TilI9ITIdaw4EyxMv4aj06qYGCoDgnn2Gdm2UZjMVE8Ug9oMmkm7VTIX3HG/+pq/J0pAbr1Pv2W+AdRyLbPIL2Y5tI2JjmKOIfcBSew8Y4MUuYavcIeWO2CXYvIbcrpn4FLFtCb5gGWny6+EOgz3OM7Z7MQQuj4pN0BbBDQJFHo9PO6a0lfE9IiVndsGBMJS5khKZUi2R0PUGBA6jf/ldf/MN6vXLUgBeWMMMIWX7bn3mJbLsJrkyJ64NRi49lSkts6wTRAA+lHXBOH/cOnXG9M78suee9NjcHh1Fx8cxxSU1tsjRH9yocZp3XKVFGzwyzP+vovTFsgKUGhWftiOiGvG5xjsY0g0IQ5mrTMslxJF+xccyeQUsoGr6nJJbH8jLyWcXLiXPYkER++dBEoKyTMsKOYXMmVlm8c+4ODq3oAaA4K2PS89fdLqY0cWjVictDIfSRX8DcGt0t+JPPFlZfau+/L2SXDQMrlurZF95P49QGD7uh44ae3cnc219blZv300QCg7o770ary3nPl1GkCspgbmuAxHjDx0xdu8SoVbTzRsroTOiIK9RKpHS9dqIXX9JEDDb0+EDzr41l3hIOFvM6IygrDA644x36Z4KXJ2M+kXF2ajro+iET6K8iSThXTtrbakw1BaXrS7v2ikCk4kFxeyoiUUY2kg1tXWH/uctOsEHvUdX9ejh0f2G5R05aVq2umLj8mSTiRo/vQh3x71cvGB2AnYnmbdEm51bAzIXWvvtmop7b9fccqNnjg6SyFy1yrnU9TvvkcDV1GxcXJyt4bgVmthXYzx2WHXdEvmuQw6EIXKVV3AjJiDyZ9VRUsb9tInY7IXj+/UVOIXr2fNKcYq3YNoXrPtWpWvgEl71niJXEMpcxzLqhygUeiRwJbLs50XZdc2mjeqop+V4gYF6XcJQWwwU6/xYz75DRkGxdb+OjFR5etF9brnKWTfO9NZtee/vsDjNucrK3/u8OLutybBXFTlC9jitllnSZZCRSzpeSkpp5doKvd4DH0ZJtEWxB6I/veCcFU4uWtWO0nt35H22N87NIFyArZsMFaeUqhEJ6Xpn4YqqrVLO4DkHaiNywSX163mJ2P7Hc3b5vUR6CjPyoei1XyVvXJ6CiQL36wtCbdH9xgdPzpf6FGBf6He2u+XDNbq8WPA4hbR1WfY4DewohqGdq1oGfjs/qXkT5TvT4mCPrzZzIDPMfil+xP2WcDeCc7z7tUsrc7lfbzjlvKut9u622j4L6rnTqfZGvRDmdFJs8hHZ49Qdlkmap9bJXE0bKQFb4CGW+EjKSQmIYeMMkYqnmgdkLk+LSNDiK0lYBzUMuWgTzZKN792R++xPKYUVbr0UM/nozIs1cT/IrluSP0luEHRrkNygEzJZHr3PItScveCNw6df+zno4fxRk4q27vTGj4ysXnRvDZB1TAgYsITTr/1yGKDVrzV6Shzboy24N+ftXxN/+88tx3c4yl9v1CGi/JQ4Ocypp8yWJn/t0hZjY2gRuYpLa8Zdy/W4rVpbgbNZI+WQQRosTmxU34MZQyiMbm7RWIPOCjabobVJM1ydQU7sHXu+SHmhSPnv5YhzhYFeMfr50Gxglpt7kY0oL8HiRIzjlNgUEzbFlo+a4EDtQq5H74uOrDR7l5R6MHMX4KE5fc4ET3qct/aMBH7d1d+yS6tr4xfvGBG44BYCTwCCIhhBfHMnVsQNDXXdm1bc1KSic329AFWHs9Wwi2OLihsb6zrX12UWKzG1t+lE1CFhV1o/cx/S1sVi5Wub3fIgfaCidDYfnRlB5bfLKxP9PDQuyNcu5BLt3+BIcMpcNkMleMa++BYD/EIosatbuRJGEMzHxUh7ektyuaxbY92D15ZQ+5q9MSB/xxnNBzsS9p6PLDM4aHP3JhWI+/7pkJyiCmbBnnjsv+1p493P/9bAvEglN8q9ODaDdWUf8isTZ8QkzZOX+LjPZT/krEXINewuTf06VcpXMMtcNgONcM8ff6HFiX2AgF9D79AIWwHZiGB13LNz+eEpqp7k+scvxUWyS/fHDsR60uom73ae0eCctjH5tjbaUTcUj72xCPi14oD0sR5f6FmI8Ft3fVG3+g5Q1G167QI+qPw70YnvRbvrp+oOZTmPFxxw8MXzgkpIFIGqaN3OkJC5bBi76y/D+OnFzbpmP/dqMSKL2Uwmummh93SwfHRD3TrqImqES/qNc+t7FHoBpdYejb5jcd0ZW5MGty9b/XBW/Xgpp4OHdSwd2qHs8e/SEayx2mOAvvzLIrKg+uOo+Jkxbnl7VUtTzuALB2oLcvW+SY2o7WIABkTC8XQHMF+4LG1ZhLXARme3D8+/ZUjeJ0u0iOQj0A9Ol64l+4is5KZLukNGbTkZNWRJHSiYG5+42Lt5ucM8niZCIX13UN6Tq9JyyqqfAwFsfVV0GVV8GhU/Xd4z0VNe+yd/bUGuEbwzhCikhKLAZf8AICzPy7NLWt+cPXJi0bpfdN/9bFlGbp8zwCmJmqp52y//sgTL97EN7/2W8MLalIVDcrATj4+ksCnG/ME5gK19mdUH5LCGrSkybPnIeumK1wrkan+VCpN01kwLISOXO2O9el3F8HGF3/wUFMg1pH3Z709fEJstoXvquqPR/RbW61BX/8uTF/u08FL4urd92aaRl+bvjv/x8BXWA4d8lmHLIVuCIbFWIJfowyVyPDxkrmB4gKzbkB5LnHsR2crTLSfc78jpfNWj36R/uDN+5sD8D+/KrRPngeUrOoL94M7csd2LRnybNvf36k3s8DVdUqkkytKW+2MUmJzhj1yYcfvfYIvfvMjTMJO5AvOsuK7l1lblW0dlztj+3i3z62Fm0HVmH+/+8G/M9R82gInq4ITzgDBofyDo2lN/cLuyHU9lwgmjx7z67jQP8bbmF+fAzfQLTZwMWz6Olz+Kh79XxKOVa5it2SfLXNI+TBN7FQ7vVPLcmlRfLPEeNQkTgm9sSVq4Jx5uEzvHZH5zMPZJR+Xb1TEM7UDmEA9cVL+4PmXDcdtvmKNCJG1+SU4Ds2mrOur5OLJNlHwEGwfCHLmw34+196nI/ZKgXPoTbA+HO+3JiDXvuvH3DsRLq/7l0urn6dyh6X4eiF2vb0n6cGfCqK4k7MeBCedbVBb+8dFLcMrHX98ejB24qC7UTPfJzivOEfZ5fTLOs50W3a9CzukjB8IcuR69P1rczseaU8VBvPTHxxENZHF4ny8ZdhleC55uSihtI4t1DGlAL2roV3WosRbaWD59oUh1rtCzJ7yx2fhRSW5Xg66cZp6MTy3EhunyEZQc8Gxcg7ILrhplb5sXcssylyuuuX3v0yHZf5yPrFnYEhorGLn+Hvu42HZ3jFk2He2nLwdsJbPm48oIRJT/R1m9z4TbrJIzSsyBcP6k3HVrZMumjqFZlrl8f47eGZRXYWRe3uA4zEtNxYP2Ovz0mPLi5UWXAVtr1NG3JtX9WyXDlu/PiB8pYG9BCUZIEiKS93LEMKcrdcsrFH5qs5/Ius8csqMkf/i1JRN75LZINQ1Z1sj14yO0AU2yaYzkbbPutX11rrlX12x8oyD71gqyBdQH8Smz41MJ91yX8fCu5P31sP5gyS4hH5R6vTdx7Ow5IRUde8repWBxcrfOZLmPw0ih+YUG/zXYf5Q9YoX/mjG9X8F1DXQPLc9wXUXry5liBpucrgt61E2bzAJl9+nfqyt7qzQvgWXzGcXk2OTvEeBUojfCYcN86Vp4lHV/aFz317Ey5bpMSNwVnCEcwhbaX1ISjGEFQ4KxMwbkI77CfV9laB0FqHHYBR/XbDukKUniuyV5wytKQOpndfTkuBR5FwxJuBoYIuGJXC2aKO/u78oZUrZzefd4zb4tr3GSCbBlMId2LNB4ll1YktNbT5YQvRibvFAOtuXdA1FzpcLTQu/Q+9SaybInqhePHDaYqBtvGuof2HLtAe9Fa10Uucpk+LnwEmDrvEI5IKmuDFsueBW0t8JQ5oID14grQ3HZc19e/WPPE9cpWPGXoGFh23KdLcjvQlB8Tlv4fFmRkuL2qCJHxaddVIThKxDkoyBJ80J+2J4dGRMXQ7/xQam5cisf+HApXXZLp+MMRjeiyUnC4LAgMvfu3KgI9uEV6SHdmwcrSp/XFmJND3qxMjLmyXjZPz6Ex9PlKx4K/XpuVAw2xbirv2ba2yVrNuvQZDdURRm2PBjaT+7JUWER1TchDFuYQHy8vKSzkTwef6gi58QkbpM3v/DgEQjGrCGPXH8eMN50fUSDuorF7yWu/Lni32OmuunVrJ6TjVzuP4lQErEA5vHvQkk8sZ7KfLSiBJjVymRAly8olHOiE5dppI9n7z4/5ZyScKBNc0PII9eKH8uBXAI77r1dcw92aKjukJf+VMchy/1nuhc1TTYO+tytDSbcpBmYbC1Mxvt1pcMqStNYYkTAap5FUXHYjzowtcu1+IkDESpuQM/yYXeU9uleHvLItfHXKzxp3VkhK7tEuPNgDbpKO/KG4gGL6rmT2cc8YtzUnM92CqS83jNtkE47TFeKFYgCnb9UkcAsWLV8bKFcvAY5oInkBvbSDuipHdirHOCFlhhNdMgjV1EJu+13fa8bPVitodNzzRsrkxIY/qQR6WnFj0ERB7kGHw6bqq9ON8AqD5M89p0Onla505LFxWSHHjzdX2tiv46M3R1xRRRvdyjIeYKEA7HR7IBe5QN7agf00ioq3bf+OBC5Zkv0sh9jQ+y5dMjTjds9Q67bekfitCZ1Mcu8Yy8xhcgHOHB9Qx12q391c9Kvp11589Ysr7A0+lqjvpNRf61Rh1/RWeNfZcQ3PGYVuSN+12wf5NodcQAS1u29tYN6Q8ISV6NSv++LXL8tet226POXLJAVFsj1q+6tF+OcLVF0xBxLGr7McPDZtF0vw5bIJWzO+tnQnDGrU1f5c2dpVHemUTOhUvcVwwzW3E+vvZ5HK1iyHI5sz+T6DtPlxODnwKA+2jv6aPGrVFhm/3/bqwFard8WdTHbFqls/w7+7tm38MIl818HDZ07WOz09hkcpmC/RXyVN/yqe+jpQocZamEiIjJjNfX9SzP8JG0BpABY7kOVMARNzUbswXOrXos4peKg6Gh6n0q9XxVJfuVAWqH8sCYlsENvKx0+uKRlE8vXaOdfGqiEP2+Nzs5z6icQDsiFUYPC6BFyCbC1/hfd/8bJsGV56ifcXHT/NaV3Lq7772XPvgF+emsgVQ3UawfotZ2NlkkYrJLfpI76JSJqv0p9QI6f5Se+B4osQ1O3Q8KCYlgpZJ04o1r6fRwAS1QJXbQlTJBr06/6qeNi3VQYBdhat1U3/BkZtizPxlu35bXLMNz1RZ1LJf59JNwUuL4tzLrFYJk2Kafp9eponIAtXLt4muVbIcGBW3uUE8DqrY2OsoRs2bZbs2R1HOQs99vv38fU/Xb4mPPwCePx06ZWzarvjgBbP2/RPTI+BGAL7gL+DhGDWRsEZQb/71hc1xw0sX8AWyaKXhUZvT4yep06Omja5eNzWquL97i+4u7+BQN7liYlWFbq/XmITBS6KWTZ8K76V92vzPbC6uGsPRu361o1q8ZtR4AtLBJ69NkQgC1nPZUwvW6c6dMhOf9cjpi8Nrj25poYm/KdJqaUDs9YJhKOYEiQuvvWshFDS7peazFTHjqmFgDr5FkPNmQKLuRyn+/VSh9QGMeNcIVc8NuCSf7HjbrHnpNhizAe3g+fDM5Zui/u3d+q3/DZ/ZHyNGcEx1XNflcW/jxK9nf3lJFBl79TW71gyWpcn5jecwsUy35I/GFj5L8nJDCk1rDMJSGz9+w3XMo2O1u0SGCLpn7YoHv8eRm2CNfv61A29+6c0avTVh5yBfcSDpAzUnvzL4ibJDrLI6eHEAfatjQIgNWqqcVH8vh/EZ9/G4czIkJdq6M5O9Mx4Zn1yFAHmxgLsPX9+oonXigKoSfAf02d2LNwSIeygZ/V/fNCzbuY1+fDzshHqHOgeSMjZglxtm9tmQvOylGu2Rr985boXfulf8yCReZyBkbCcIrr2mCuFjwYHebf+KvOHrkw4Qhpa9W6ilETZdgi7PzwrlyYtwBbuWVOnWX8/RY9q60aixdig8vE5u++hx99QNUTw0qwEFroWkGRggDW1mjMGPqvs8GCXJL0cPNvem05Fx1VNXEu+Ekg+s2Tk2XYotRKDst6sCP0vUvqSMJwL4hg++hXyvKxXsfymFPUYtmk5QUfg6AIHFTu6ld2Vz/tbbdYDJUr1sQCszZud6D3SN7eGkCuam3tvnQSPvGDB1qQXoCtb9dUPDVFhi2qQ13DWwPz9mWqX3Kyt6svbHez7Kul+diQFZkRdib0Que42clakK3nDRXArDv7abEoWujuwq/jFy6PO5vp/Vyhp2yrAeTytIke5UfQGxG58E345qeKMS+GGGz5A9kRr2Zq78L3dyS8V0PTiO1N+lkl+dfxUUk/jE54LSbpjEfjKmcOAg50aKMHWgGzGta1mCb3Hoj8YVP0D5ticvIDbXkIN+TatL1qaRti1zw9NcRgS/Lns1tj3dTeBaV6ZtDndQ5leRALSMKWICopdmMFwaPKiEmxKbvkyDMSMtf/pBrUNQlaIZBLqA1+WECrHzdFHzstgX+Ddz0INHK5aWv3rjMoVablMMPYr4d6+ffl414miknYHA4nJVz0rksD3fDOpT2blb+5NWn53zUWwnhBcc5gXRnauUQTNzEuGZ7xQputV19j4sUiaVYGkHDRL/lWwDjwwJ2lcCLt1dWyDCuvUAG0Ambt9sNcoaedCjRyOWyfi+lCh/ldJz4wpqBHV/X23VfESnVdxMVdzEumxpjjI9m4SPIbreJg58YZqeQilJyK4VQKjqVovYnWG2mdiTZw+vwyM6zgJTpFTpmiqKLGvMDn3pO75K/YSWsbuL8ZtQs+eHdrUXHOXboyLc1Mik1eIQeA946JNVEKmDX6oWKEe0flWHkCtIJWiIAzNdEWx3XWJHKJX10BuRw2sOv89kjfkmO5Sf6caZnIEG45LAV+d33Y4Z2qxN1PHnKYo22G4aamFQgK2iDB2DDB1CDBBADikYgp1im0BgJPBKf408jSRjPN0Gx8JMEyIFpspD42wiTAXFoMWZ91oUh5oUiFX8QXxW9msRKrmt3xSHAon/YpOxYdwSoZSslwWHLI0FX7GLVIMd7ctOK+yl51+aCBww4GLPGTvIt36MoKGMUDCRl/yaEdAsZ3Hypq0dh4z4Cywf3LmjYkXu9HT0UcOKKeMiu5rLzGPsDOelOTyIU2uRM54N/Zp6hHOgodINeUZUafv/byaDuxuXVJYEHvFhV9WpT3bFZRbqR3/KfZdTbyfFGMgDhwZHX/UKuv8BLG7qoNE4yAP5zAwRsb6+rFm+BOFRfJZpUossuUeVpFvpYpN1Y9GeMp6v07cwGCwytr3T32AvWTJQ7f1w9eLjMwJpYyszR+rduG1m44Hk21db+x/sqJBT3zSnI9gi1/Lyz3V1fDgi7CkA7mAeumLhbFEJj1ydL45T/WmJGhWr7WMHI5bJ/7k2uHzBYUa6/IckjKdSIAayhcyVtrezSr2HoyCidm3/7Ll3JmF9piUYXa3jQOTRP4lR5jTo42p0SZNfy+ADjeHTgOv090ev6RlR9THSzNH/51xqZKOb3Lh9VJUoNdd9rvd9uaDB8V57QzGWRpy++89rkC+DcQzBpQJuxMYTDSq9bH4Px1jx+dSH1uNSEQjMjlumMAKQCWd1AlUm5nyLv/zlzA1s9Ho7/4K+5/X2dAB3Rdr7R3DSb6bIEKpy3Zyl3XvjsUE33IYrc+SamoILIw2DbZ+u+7dWVzS3LVHIdQpc+l1PtXDk/jils1ec/akoV27NirWbWBYFaFLqAvgtcsCD3kQld9ga2mcfppXbIaliq+yI1o/07DXG2g/VC8HqrgLziprPAFLVnQDmP803Gpati29NLMkwR/30OlhVAMZ0/Ju+YqvWB9/++8CoC1en2MLwFnaqTvIYlcXnPqwVYFgK13/k6fc+0Nu3c5ttB7Tbw2F1RR3MfFuffw3g/wMoWvaW3mRnD23UYxDH5Llms2BjtyLZ+pbS+FVNQ6UTehY06i2nTvuqb/5GvaurEVtmvGyXdFDrQyGT4uyb3GqC+hmTHxqQi7LDMneDhgM12IhkEx/G5dTDBb393hnvTI5b593Z32+Z4H3gMTrsl5pE3+uwfSFh0Ot7AEnrqn+s5PGwrY4QLSVhzHYkuLMXGpWJAoeRUyQe84AEvWkIFV04Whqxg67L70yOWwGvcT7Z2YYI9Pc6O8w3nGO5sUvdApe+elmJ6rW+ZUBF1nhW4JXca1vWeAfYro++aOQ4kbbPMpS399+VdFJIb96sgYSFvGSv94n4jKhX3mwD39y8Y+XNyOj5MVQtOFHvXb45c5kCKV4KoKe3zGF99dfmQIfm365nqe8bXrL92QoZ34e/1dWSGjv9hDldBld7x2PRp43zPfYNR9Xkxga250wisxSV4QDAbw9aLZQVskPcUM/wbAFgzwaOSpsypsUTFxZkqoTBd6xFjPkEsUiHI+2ylUE5wP37Wp5a/fcOlQvua2Nc3h5u4RR+TM7nAAtq3Pi7LhcbpME+sdbLlTi5zHTQ7c0VcLP1IxTlbmZeVHXyR89k04x/L3DLnc5GPNZhveOn9Kp+yX/6iz8lRizbYkXGvvaNR/UpKTxprXqqOfiUsN124Gf7+wRQVZrDOgLCXRsg/Y2l+i4eXw0+aQUTK8ZrI0y5EKpt4vtEAUyvAnLDLC6XXj3Clo79s1pn2ucUnv2gBb4kp1a+a7wzRf8mAF9bqCS81Nxp0RmhEJ6b6Q8r2saCL0nVQIUYBW+NT/ircsu7jxq4ujHigGbGF14bR3k6/u2+jh59JrA2xhsMJQ5hq9reEXIfQYethU6+AwHhaVIPt4bdFLZQUgtFwTO66mpS3ryRwJ+hYKJLAv9L0Dq7RChJ2B1zv8SPf9WzOR12qQZ0qsEHa/evtB2vWhAAAgAElEQVR98YTiSBcvBGrWZHF9LKN+68uZuCVScFgvEu0zqFSWiXbxwnGDLfIy9U8RcYOsJnNlgx2T8iHVYb9c07PvsrP8InGbWkTmO2SgM2qepr9dkPVAGYnUODs+9YP4lGqfGy9YITbJnbLWfFPPWAHBP2nGCjyInvYrAPnd6Y7rZgzuX/zYfQUd2lgCZ67/NfaHTXE//2KxZAVlpx10yHc+iESVPm5/Jha3oWP9p3DtIoPYGvtSD0yJNs4mq6kxsUjibjg5+jQopc4mCzf36cgFfu0VSevSPnbcSUNIsteUqy0oZnDGTHsGumin+7ewsRhWI3Y3VGAZ4uj4tFWRMW4u66m2R87a4FFBITOmZYN5qZFHPRLZcnVLgxCPtEkD8vifu6j87Jt4yFnZeYJ/djD32PHYescHe1oSaIvVCu3VBg60nqB05hZg33Qx5e6mRTO6XhrN0h+dbyH4SbjILN/ylAM3Gyrga1qHNZ1Uqp6OS8NSak8pSJu/xp1vpe2OQ2oI9H57b+2dfcs6tbNgE+ImL/w6bsmqcJ4udMgKZ4leIpcN1ohOXta4Y22R8d/TNrx1wZj2OQ9tarw/NxB7JTnjo3fpgXSO866Fj1SUzCkhIeQ3qqPGxKUVMdJM6XjXmLAvlZZsFjZb7d7ZEierqIQR4pHu/DPYw84EeHS8RC6bVsK+4KbY6oVI5YIjo9vlDm5W9NCmJieLalgQcNHI0L31RHnxzNJ8tP+TqPiXYy3KeOh2J5hbjsgNI4aWPDqkRGikyUyv2RKN86ct4e/f4N24SINc3tXtYynA1p1NiodvbnxJaxflyglph474TvL6Pdnag0SsbNbUuFtuVP9vXOGxU57tWe+Qmi99GFFeIsAWMAvI5QspuawzDmSkmvvdpO13c3n/HuVCHsR6FzaIDkvHd2d88CK9euQSXWakFZe8aKt1EQG2Rmxt5D5s+Vij/4qDsYLaiI0/HhtGvrFTx8UCvLyrUZJhGl5RMpvfZwz+8TJseTcQLkq1bGLsd7O2303l3TpVbbK3+Lu4z7+NQ/AZFwXlWyIHqkcua2ZJ8lb4zn2PYMv3AKq+N9hNCgAsIeeAWyLvvU2zcq3F2OFmcamyvVaa/xS/E/XrMUlYkygVWZnOtW31/XsQwGrb6v/tXQd8HMX13npVvcu9YBtjg22KgWAwwTGhhNBNwAQICZiEktACgVADAQIkf0JvCZ3QTTHGGNN7NRiDm1wlq3fp2rb/N7t3q9Pp+p1Od9Lsb71ezU79Zu/bN2/evCF76uDAtjpvfuB4833HG+85M7/Zak73SGLMlXRT07i8ccnMFgwSw0pb0c0gkq58BhLik3Deb5x77i5qGoOtuXFc+cf8l1e4paAho4lhGsEMadpkRfpnV8sBPsKYV+eX3kMHieno+5Ii9bjD2o87rGPuLL+EBb072OrND5y4unLEe3I6kEhnHhlirnRV+dRpbb+a0vbrlRPjHCQarm+yX+waN5r/6x+JwGXQFm7GjuKvuCD/un92pwu6mPnAoyloK09TN/HixQXlH9GdqGNCFjUCnMzADSnO+fv6Zef2Tg6mWCCstz+mE4VRsYvjoYD9b8i2MxrZtw8ffFzxt37DGn/GkUmGohwzqeOPs5pOXTmhtieaSj5Y8gp2gwP1PCqKK3F0gU0bx08ePOElUUQwThSEUJ8W55+Z9/IKz+q1USxwEy0nYvybu1t+5yITW7AyvaigDHu7RoxKH0RGoLhQPXg/F2Gr/dxjqvoE5g++cD79ivPZ1/IiJ6VPEkNAWHl2XYeb7IRqbIba7uZberlWF//4iefOu/8BBK4JZOggQxk/uxmkZhIcJAX87AZuS5gWajD2Rpzrbfhz549XFR8gnlWS2I6CN/UaOcxkvnmrac7PKr5JDKHIsU1rrBSt1Y5YYDv+SLs5TgwuEGLXoiVkneDgHXtL3lu6W2ZJxKwl20aIGbN3Y3nWWmqxlorWEovg4HeubI4fcKdD3X9Pj3Ga40Ekh6uZ9z61Y/uvdz/FkNCeLtvx+Cs2vGMKB90zptiuFtrVIpuCbU1LHUpZnjqr2vs4w1x4YEeRXVkQAOCxkxt6vITgsLlpi4tvd5E9nwnluTkfw3UKCjb+UlSdv8JJcHhAiE/nvvgPYyfqAya4/3J6w+KnKldtrMUrEX9yEnP8ZHM7ayfz3Sd6SGI5DHLskHGiWRqEX1hILD7O8eSL/inztFcEmnjo45Htt6L1svyyYb8TNbYjJ/RESMo4A/fF/aR4xaM0fhDjg1FSpBy9EGbuvfP26TeR8t5nBlvZ16zrszHMlXWFaX/BBi9DQVZZ7Nylb97Vfwg2jzntf7oPk+v9pV/yWlm+VSu2K+XY3NSpTCqRCu3eQpsKviuwMTZBcYiqT2ENdguR4CDKYV97PML+zN0ezqcERqMGnfVd2bAEd8uRrQ99XoCdXAcPiKHK+arpNVMnhdc2cvrw8SpdVd/Tmwjfx9GYCYp0Y3frz72EEx9yFFyeP6w89PdjqJIgqiqJpmcwYPO2S82fkYXlAw+bVYNUtc8sz9zZ3gU/6fucfP6t7ZOvyfnxV3aXO3TUPzAfGpI6AuF/M2HzDbOtaSAeloAbwrBN0PKtYSQ4sFueVQXx4VpgVSWFNcan7W6uVZfgsBe0wWsmwfV4Wa8M7Rt7zc9av9lp/dvKEgtvDlfDE1zYasccsaY41gtbaJyBMwp6rpheEz1yWSkHLdhfbvJbV0ePHOfTX7u7b+xucWhaE8dfkV+6FCuoh8tRMMW5y2/GYtCXXINc9Z4f/m+z6uvb4RYrcubO9oCw5s7y7r1Hn/kV8l/5gePllcRwtNdF1YLJ4Z18qvDMZRpkJ2rAhQGjRw4nwfWvIaYFwGVFNhV70xsS3PhiOd9C2M0kODAgEuH7Nb5YenFN3iXz23Wy47s8XJeXCyE4xNSChqjBajhDiDPK10ey/aoSczV4JGhNiAzH1ib9wZ9PTK4087x2xsZI+QeHn7XYCVX9p1/7jYDMR8EFmeas0TPE7tP/7mo+Xt8YEcr4K/NLW7h07AoXvdQMPhXyhKRpC9LWhvu2SZ1ynlOdt7fnoLnuA+e6jR1VzRZ8s9YKCesLXcgKOGzIYPNoUQEEBLVEZSWWkRkWMyEKywzYTj3On0RCkPb6QD1cHbF2jHaAvN77fe1Nb5esaxJLHCpGphV58tRyIrWFEBzkNXAZSA3shpGpIdCRP91cr8T5ZBbDWAxRceORuTlNG2XdmVde0Ic5z0JabtCafiVinXGEHacNdFVmE/VBL4OBcyhDmqq94KxOGVf/i+rmsIp5f8FB/0HsOvbMFkigwY/6qhgI5cN++/31YnaXvXd0Ns+UfS6O/Wt+2eP2fDJo719Y2MYOrE/WhrR909nxQ3fRbn6b3gTqqWmTWrb+9rwds6b7dp3c95HAKhxQ1eerbeT6rZWKVwlAOphRhY4Pm6zPX+b99c0axC+evLcgMuuj/jLbNjTod7d4/e6awW6IwDAS62c68J3MciqrSRpuWDCCj2W9LOPFVb8HLSI+HpGY4ckxpIEsOAQcKjNHTO+9TLa+2iswM1Ax/MQgHQwQEHyMldXyeS3fqRU61WJVK2G0YkYuYrWxnFrIanmcZmE0K8tYWM3GMnZWs3OaQIxAdKJ6fopR+qpz6/CnrDIeifP4WIxnFY1RVDLnEHRDLEWMY3FIpeFv78iWo77ZD8E/jt7l6d0+R6pTf5z78JQvoElcUrP3v8Z+pbOnnrPKcAJ7iS5wmQZcA/LrC0Ch++9tuel8y+vLugzOBUPxrIZrcPIXGeagSW5E0O1c/AeoiTRBZed7XJd0d4hW7XvWer2jpIYTR6syKglZ1YyMmKghQAhOTu4DGYbwGvmzX1mBQvVAjO5V/Y0yj/4MrpcbYNXgaLgn7dKTBhNrSOkhScw/tz67c9bVU6HqihRhYDgpjWXrpkxprxTGjvkBC56/WmPFjqo4P/7aZsZHtOBcSQEDCwnXIqQyEoZvgh7qfyTgZdVwMjb9aiV/knucGN7bNQaz0EYEXPHpBcJIYvx4cRU0DT8RPDIi42tqHhxDHuGzasTHI6L0w1tOfmvkFzpAahkIVF8IMjZS4ScfNaGBkHHtha8RrBswWouvbKA+hnGC8aM0ESV/6qTB6UX0hYN83KxQsltV7/VMycRqo04Y9Uxo2OS60l/D4r0HbHXIMxoaDAuJILBEu8Wn+vyoYUMYgjiw1qMZAAFQAisBWgsrFwSBRGJa1XlT3L1O9fX1DmZsn11MWCihKcVJ9s/iWUZkSYkCftlGiRrQ0YsmN6SGZuX1Lmx/3p/l1N+KiCZy4DXGxqqwcuNlVpQ0XmJ4mRFlXFnc8ADROL/2Jzz86k85RJNZQWGOClhcrDhQxZ+n/sis3kcV8P2uYdr3lDD8hQHinRWXXFV/28IDqsfY+ylNwjbNCDTo6dTTivN7G2WPRF42UCoYEBMd2NkIbwL6WGXAXEfv0SMKGjHGwkmUhAzuizllsiaVsoqLZ5tFvsXCXMC1YQNdoMVz+MH2lQycLBx5130QxMk7E/jcoNEa+SrpJyuz5G0H64GUQZQyHqFKehxZI9wHdsZVYXivrCKEpFUYRZ96lmWIwNgEkPNJuGdJoIxHnOJh1K6+N2N0AWHVTQxTmY+MyVFz6Zljb/4PSsQ9tA24mmKv8acRjbS5zbPzhZ2jTxxNYBnILEa8/lfz972sceLr28d0Ld/p/oIs28SBmSgzLtgHiBm4CRaNc2i8XePQryJDSMSiqYImi4wiMrhqeNnQIOPFs/EeQZZtjALewekgBKTYNMWqyVZGsTKSXZMc5FTwNfIFPvxEAiCff8gBjIf8XDkXq+FGlwwYL8fg1fJyWmDAhBsQEOkJyA1ulkXkvrozrKpzky5DkH41RAoApHMfi9oOxIrtC+sjDsChv1fk52y0Tn9n+kXQIUMIvq8W/KA4zcoTicFuETRFIgIIfqYMC5HCogE2zcFpeaKWJ6h2XsNvEEnw2Qs69T9JVuQRssKwBoWHHgSXwMEGvUx9gaEpGNFqUb1B7D4gQqIBFx3UsbBZOeaRaid6YlCP8f7ci2dWmeWQF4B8EILYNtBJ7iVn2h55mPTZqf7o3z2dz+CtNag5kMWKDQ4Sh2GelayMU/sXw9w3ymIwO9vNrDgg/4rZ5Yk2S7TyHedVLZF2EFYib5tqfjyMG9tDzGn/koMkXBYfqyKfWiJpgiywstCq8i2KoHOS/n4bgvCAD6bxzbYojCixAtKqLOF8/YPN40cKQsIpM7CcFfAC8Zr+mdC/SviosUQEtnCq/pLJgqJBaCCPEAe/eXzLWIQQ+RdXfESQBERAhABc8fhvuxmw3HddHdp3YA/z2FW1pKoqc4DCvHRZLRmI/3fKG5fVggT3CSD48oVEXoakCQ4FUeKHyYl1Sz38eltfn8aPtmYV848ZP/MXzgOkddVMO0FbP0FDUKXKPKNwrMxpCoYTOnerevUMTQsAxxeLV/AZ0zAQIdSpn/ia8LJGHmGiBUvpkVhh8HsHbuTUhQHyiqEE4yOhi8nQb7glzi2xOIkGGaMBmcHploxTwxQW0YHoahBDoidXmZXwhSDDBfKpMA/gb+FBASrYA8RhhBMuRi8oGqoR/A1DOL5tOEWSREOSPh4RQC5McAjikMiEdBixf2SUgiqhnmgImiBDEsDHTK8Yrnr99WZ6ue4OrsPL7wzodrz4vOlt8epXkol5Q3JjwzBX/H08SDHP2Kdr0azuYx+pRsMGqYhI2fbNM6LL8Y3yf7L8fWpo5T1n/DZ44sLyVt9oggnwoO0R3a3SeMZxm65wGc84L/c7ioGEe4N3dKQKRA//nVC6/Pfse59Ecob2qPNqv+xcrCpLXF1LXJ35Gnl5H3QU/sNZLHFc/N5qDAkren2iPzVnnKNHC366JQDg4XeMxkCJOYX56StVmlPDycxm9q0rg8AC/cV+XBFnx7vvT3r0bnZbnprv0IocKk7oQ6ET4NxrudVlqpLUG64x24SybcK8uu8at71fr/biR6ZLPVE1wlGaGT8UwWIdyMJh0eyiBnsjaFHtArm3iSpswkmgRS1xgFmIOGMRCL9YDX7Rr/icgE2Cx7YgC/Lj13//JqNhEKYrEwhR9lcyMBCcQS6gFdwYFANtcn8G8ZMLAon0reoxg/gF4cHUCXzixyEKmMYjIXga0ZxoGzBEjJlP2iIcPaP3L4e0g7bqu5N659JWkRgZxZx1NcE0MjI4EWifNWnHgbMhIMel4RpYCajqIzMXiV5FOKvzbFcnxuv4c6XVAc76ZqhdMA9sSPQQfou/98UP/fac8mym/Em74WXhqiZl7Cj5jEAW2/bobzIiMw3Nwsat8qrmjV+VTo9eUPingS/m6D0qy8eVbF/a0Pxpkk6HwucfORT0oWK4TSKwGA63D427kMj1y5onwmBMHSbduv3Hex46sfHYR6t/aEzSHifpokMSJmfkBTMFM6F5b1CYkX+pRbohbsV82LbAn8S5ZzjvfmTg3CZTpKrnuzrO7+0w1EXLrY77HYXYFTFsPtkfWJivopG/Oqp7lwnSlAnSCb3Mlg+3otrdx8y45GzCI2e86m9Ebb2wfaewebv4/Qbr2g2WHzZaOrsNDKQpZ3aUzU3JUY+lSNzljLGlexXueLmxt5YSSba8OFkk10wulUBbS16o+HDL0PzYwkpJiXaUsTmbkWqgYdd1MzYWQNuvHy63tupD71ELgwabEQr76jufKLJ7TPfbf2MxYwhzYe3hod7ec1ydmFBCHi/bnOCsz8XYOUcocAiCoQibvZuXCbjG+P7N7VXlsv1V5q7rA0sIX2Ukmf1+vWUXhrntgeIdOwVmL389Zx8xLlKNtzy7s2DXPEtBau+5xhTvXoCzbnnT9peN2fZIBdLwDCFAetQc+JhigvPqmowtdjUaCtMt0NadHxXB6DRDTdeLCSaXsFIS4qQRih5Z6JaFD5qLn71lw+tvezBBvPGjyuJCQ0CI2O4XlnkeeLJ3+hThyAU2LM8uKfLHP8TnBmEd6nWNw/ycfmCfizudRZ/mAmcV5KnYkgvnzKleXPeY7gV5dR/j19CDtoxlNHALs2mruHGryMxjqveZiDZCF3bzvcWktQHmiggcJiF65K3P7Jx6VkRqi5K275E5eDy8onTvwu1LG1u/Cr88KK7caKR0IBD6LRooJqSjlNh5PHRi0zs1jvs+iV+DHDvPLIxx+ZqpOFEx51vfGdXbsl0p3j0Gc23ZQYjpx43yjxt77rq3+zCv6x4Qls+F4aGRyXZeeNPqWG51vpfFY8PdpoCkfDBJh50nTiiqQjoIjozHBILmHDmOSFXXM0uuCChd5yXZn2CZxl3zKg8sSTJ9/2S2cit4sBWDx1ca3A2RpkrSUhTNJBoCocwVLe6gPbvlyJamXv76lel5t9JbzaQXQpnViL5GZ/N2Gaqr6HXevJ3YNMECfrG7GydxiKMf3wsWENYKq3PI90AMW3/ITXvN7IH7FwwDoVmHoVlwNK+X/WGTBWopQzm1Zr2lp5cz5xYJbaXvgG1q4a55tvK0KU9L9yzEuePVxtplxI6QHplHIJ3vR3K1XzDFdehU10/uGptc8sFOFTyDEXM+MYnKQOaKmeqXP7Yc4nHt7/Nbrn5ssb1pcbxpdW4QYlBezJzTGwG+9MjobxoZ/UG8mjQuyA6SYXQNuuWHDRZseopz07bMVV6VVJDXrudO6NdeEGlqVjdjj6rUNfcNbd+mcz18ejtluOY29Mx13aFt17xZCtOy7IE4eIow7bUKob8t20MHTaElbvFc2UV8RcEo+kl7Ps41QrZsLlldIUOkmjWdiFRgq7Lifizc6+Y++YqsTMaKP2jWu3tjDIpDGx70d6T17VGShDxqX9NVv6qlekGfM5/eOvf2FxuKd88v2r3AVhYQxxKkM8co27TfT2j5vAOae29r6JL4+KtHYyaKwBAz19UL21bvtL6yNuu2w8yYvs8YCUbpNu8Wz3P2/LesjrcsDthCRomZgUegql0nS4aiau/dvdOCViaj9JZ2noz+1mMMaIV4VbM9P6scgW59jowZHaP9U66+dglrs3Eyz+zMm+AAhWH20DkumXltGF5A+AJ57XwzAWeqGeivYVxEROYajJFRCI6w3lq8Z/dP7jLVskOPc8YIy2xq67YYH+rHG8TLCxJeKpQWKK1WDSqqGVP8OnVwFhyBBucMxwkQqb74zvr9emJIBf/FwU+z0BEoxoy7XTjJqKSvo28w27PVhRN6K1uFlVDYHgWF0xKb44Y/6PHHVZfuVYTBI2FDegwyAhGZa5DLZSrylH8f03zNihJ4FhzsslLMP+0kjv119pS8e0neg3zuAxvdTEc5UxSxI+JRhKXYQCM55Lldxku7TPAZlp8YAO6xa+jcWVsHv65GNBRVkK0wDExL0RnLpHN9T+3ypjGHk/lKX0eYcbqnyVu/CmeLmC8YUhjGknDsEWcN88bbp18wsemjNshfUleY/OPMh0aLiUDEH0zMlClGuO/4pme/zfvf6sT9KKVY8FAkx+LBmZJvhuybKXtnS154yAquRfdWb/7siB2Byce0VxnTfBPHyhPHSoHTfz+woO/WWdes8+vUwVn1TRHrOTDtYIQEqyCTW/4BmQjyVP4kB0aLUWoodctNH7fjhDClm6GSsaQYn0VrxQElEL5AXg3v+B1ORCmIPkoOgaF5ESFt1XYKt76r2xMO0wOC1Tyfh0hVPvf0/lQFLfDXovUr0faFaH0b6wrruONnR0QhRZkL0kJ1pTyqQsF16kTD8jN01s8se2utaJh94rpus2X1D3DSHa+4EbEB2fdgw4PbyvYpavo4xh4ZRsU1RWtb3YkTfxZMzTPGkvbKGJMkvI2beNKoMl351bUxzFKt7EMlx2o0BMx16cHtYwrl4x71ezXIMcCiVhcMNVdy7+Hu3UvyBAtWEsN+L1rWCpbvBesa0QLzK3hiMXOKzk2xJx/1jDCvN7pKhnnn2GoZN6Mq5OpKBddRlfBlE6bSW3aI+ikEbsg9lteEiZrFQckN5CFtJadK79rQg3PbC/XOsXZDCsubGHlXF43J38U54+LJDe+1Ni5vI5626JE+BDLNXCfP6V40q+fIh0elrwlDmRPWCWLxDXhqluydJfmcuksZ44BghZWD71vsH1jssMCKUsvNuol82GPLDsXwE4LxXVW5UgU+KlcqypSKUlm/6qd+A+9IYXNAINyl72wUdjYJW3cIxqwfrNVN96SRUtHwKAj07nDjrH29Cbuf+dVhMwboPQJfgar5pWV7F21fWh9zJ7QoJdJHIQhklLnmT3LfflTLUf8Z1dST7Vr56C8KdFVQsR/ic4G2go2UtvLid1b7F7yoDwb7CVZRMowicxXl9X74fC2IKWRSb2Bu0J3XN/E7iNcEsa5B2NnIg6rqCWHxcD06MD4NSQsCsOFqeLcVp2Dni3RdGOYleWuo5Zrg5CctHmMov3q29G13lpY6jMxMMsdcu5RJ95/QtOT5iq9qY+gIsrAnSlVlH8k7V/JAvMKcIHyCm5WEPPWOxfGtaPlWsLZyfFjfaQ5swVukgn1Ki8mV3Oh/wjwKg7txo8EspWFbXVzYW5xH1PnwjA7RqaGJh+ephma+qRWn0NRi3PC4ybmBXtj25m6g7FZgj4oTTTA1+pb+G9DCmmz3XXfZ+VYzHObArD93G5sNNc8Qc8GL4/3HN/3r/aJXf8g6o9NI3VCtylhwg3M/yROiYt8oQKqyfSZasQSnQd/1C6M5jNrmlHpHV0nFhR4ymivVFU/VRPcEvwiRSjHCNQ3aqDB98d9nLf99ZgyICUae0XOgT7MHAdjr42SYuvzJTmMsaZq/opKjflZe8ZOS2tca6t8mu4vTIzkEwvxakssoeipIWx9ttd3/aQ64goBIdZyn52Cfe1rQhCD2MPpCtH3psNaMFltG884qdVSlsmuVdOioZnBTdUWM0ZzHy7a28xjQtXZwuLZ1cK3kykOMwtJieMV79n5tzswwEK78gIWfvDAPaFAuINBd04sTLlULxxc4p8HGtQAb2aLigoOfsGh09YLyr69clwvtyMY6ZoK5rv95K/xYX70i/IAoS1CBVLXA6zrG2zvb4mVgZT2G8VWzO8cI3aM4pZKxlWvTS30HFEV0iYnRHBnBEeFIbGhm9XEcGdYZxNTeGUNiwgTinJlhViBHUYFlCW6Zr0bm1zmk3kZPg7dzWxcmNOFhFVJY1fwyxxibpTBMjw8sC+uKxv2ySvGq8Mi6+Yk6TdXK9y2uOqSMt7DbX2nE/pIhSbCSqWL/4s1P1yEci8yxb67iUTCduuGh7QMzz92QQWeugye7j929d142LfFBb5lWToeWuvYrde9W7iuqVBnYacADXcBaA1sqTSAb6fQdRNnUbGi+yRWKcGjEwU24MUdzYfVcMd+PSKsXB8MMNWZlaITBQwBLjjDDiJPD/ki+GDoEoxruRu/3t9XAMnaPK6bk7+KAU7AxR1Z8e8NGmIzN+uvU9m+7wGVmhUctLK/6aVnP5j4LMlBY96ZhaFA26Mz1t8Nar36jBJtOD97bED1neNocO0qCsmlctTx5gjRtom/XSdK4MdhtMnw6n8TCH8u2OmNijkzSQSkekKdiiE7hc4wjNKzR1laYRMR2gRNH7rkZJXXPaNnc7jhpC01w1RLvRjDlhwW/t00qnJrXtakXyXFKPbK1VMwb76j+WdmamzchGiYutzbvLNu7Ty0z7pgqzHXCmh/rAbIZkETrNrjMhXHiN3XWl75PbPFqom0w4zvs2rRJvqmTfBPHGDaZ0rhR8pjqCNZScAlXz3Q1cpubxNUt1s9abDAg2FEvbq8bXEzCti7sqDAsnYVNPuwDk1voM5xgqTq4tGtDr7fFVzwzX/H4hTVN1iC7dfzY7W3zrycDqZXMLjAbDouz3m1usNseV05t/aZLcQ+fL6GA0U3qHRw2k4Mm9h63e+8hD06yWn7fsyYAACAASURBVNMsqkCMGlPtG1Mtja2WyLWKXMlZFX4lWm2D2F3H2bdrEzb5mI0Ms4H5rM6xUsx7y563ccB2XiniERaKmAjXNYaRSbfVacnlFrO4zERIpfJIa45wjHzwZyoZZqbJkUpJsebWMnHUwor1t21DPpzCW/MtRoaCQ+B8PPag9dUpZhGiIHI8sc5BZaSdikW0aF3EH7+zzOFtiuGYJFL90xWeIg7B1RDS5UEpJJ9dK3x3/rL+smVlTZ0QeSJIPXHgkZAYhQ3r128W12+21GwTiWq8XuB3MPtt9hzX2zNd8S++eMGW97Cj4PM83agdny5v+hdlJAFpXT3T2V1QmN+PvzZt9SWRVRygZi5KovUPu6Da7KFEc8tcO+MoKfnKs8yUk8dsf6m+p4WQecfmruojSiXVR1TvPqWnuRdmrlhH2b3Zb+AqyVZVUYziYFAG3TyGmZyV62nozQYjsuRx6A/yoIyMypzKw4uasKD65bhdBmJzPaywg2UmrA3gFFhffxdtrGdssYfBHRjKIClcsWDYaB08tR/v6bnI04HVzkbIZl4EZ+HclGUekM3uwIBx9ox+zDUyR4u5OHUYB3ElH6X6p2WwC+Md/Kifl/dsdtU8UQsvOjMvm4Kl4DWP1yLfoun5pp4rpJjqQ8pg/opNibEBEmgLQ8s5109b+8/NcOaTfIWyI2X6mQuK74cXNYKzHv68b7xtNlYQNMNvgb4YWJk0VoJaatqkUJd1ZvyBYpROVWLIrt9m/EmKhK1ST/L0GAvzYIdlENa7WbwpjlF5TCPOntFvmjzShGN2vDm0FhlCoP7tFpzBhe14rRGnGdLyZQdO88+21V04jT+xODw4IZT6RLs/LMz3089coK31TZZ/f1wE308TxsjYRgH0NGYU8V4AqaqyLLyOEPu+QEGOhcHwAEWsDfSxXrAYFfM1gcn7+b1kV3ojJtY5G5wF9+0x02ZDhIFK+pEpc2VDXwzXOtirrLCiiO6YLFfanjxzmSZRcPw0uspVgiUvZcr86e6CIlWysGfeEH43FCz4M/wW1OtLgjGRB7UUlFOwPEgaMizQOdXTfZLb70L3aXv+K1bnSmtk9yNJlzSYCUN4alutIievHhzMitK8cxYB2IINmz0iY/CFvjxYhe+ngE8VkJRiaKCwKC+KNIMFwLCEqq0Xa7YLunmUaPgtwDWiN5YEXwjohE52d5/q7t5H8m/ntdSWd6ej8NsB04UJZjw00UPGhlTgCumG5FxxDU1fDmapWALpqvO/8KmXM2nx6K71vcGDzZA8xx5dBRmt8f1W8wb6/mlnj4dxbHDM2ddNW3t7TUwH1mOOq2j7vlNf1JnqIey1u1d3XUAYCjdYJ4wNPrEQr7yUBEbhJpRsOn5qbrWMsXp3K/Rd91pJTZ0IYQrLX1KtWuT0cIsMzsJZqPvDgoeGJ+z5OLfwcS2niJzxUD4JoSqq5BrKzsjWslmOnXHR5C8uXtuvghj+xC0OwCoVC4lSaR/oCTr+5HKoW9rkcfdNDqA5sLBNTu8mrHiMrG+KdHR0kRXCzW26NxXdp0oDhni6BgobvZiOnxbv7Tl0fvcxd1Rvbh1c7jjW04NNnrEc2qjwp6INY0NsQRip/jkU3tyqdnVrBfl+rRyVuXKo7wa1qlinPe7YKtml1C1vwjbdoB7s8Fi/qhm/+XFHV/Xu8MC+FAr7yb8eI+YJnMhigbe7ybvbHyfBnh6OD7GnETxKwzvr+GOrGU2DxPTDHVuCt4asWlBWcWAJx7ObHqtFhClnjltzCzHH3+OvU9fdvWVg06aePd5aLH5/a820P0yAVzJfl7Th/m2INmHRKKzElHuVDQ9sMxckBVcek6HIfNOjO+CUccpvsM6OgYnsjlfIVEP5fsXIB5tXoo1xbrsrfLPWavowgAODZnBTM3zUkfUuCI9n9cnCqa5bDm865r+DSFuVqnKquwucNU4huh9sO/i0LR+cBQd+A5HN3RCw1azA9OJAhX3utovWPBUEYNYAtTrYB1TV+SMz9qiq9fduRYaF0/NYgdv8FOiGGX14BcZ0Gx/eDmqbfv5EDOV4O1fzZC3Lsnvfuht2Yxt/fPWWp+tAGXOu35Xtb/WMhUFwK1Y6pxAjx81PEDOL6Acsy0BAyD9/omP1tetBqUb8utebXDs92PoIiyth7m8EBlcezNW9gRidwVajfW13/VvNk08bw9k41aNKvXLNY7XYOWn88aPiZa6Fp46OXtHoT7Fn4qO/avzdC2O+DNhSRY+f6FNIIBf3tl/S0yHoAjFcuesDw4JcmTFMqL0wjDCZi661frSiWrvrzTMSQnA4Rq5d1gjZauafd9n8ZK27vp8dlqfBY4wTIa20fU1m1T3NPrFAxChMlTQ80jRN8SpYmw17COzDxgmEtCAW9cNJHztiCdHEUxKgAmQC6Qm+KDp+7MF2SsgBiyjJtVOGDx8z/+DKm+o51A2VQRysAfC1SYhvrOKUehSYrfWrW+Q/wiw6iRw59MnMKt8jv2o876XyVZvSvzIRBll3djV/3bL98p520NarNudJRfDoPeZBR+GwpC2AC6/zJsQjXOY6t7D4ILtjvt3xh8LhvEFU6C8q3N8QVeDvoenDtrFHVYKJIHmBmEIiuus9jrFkd25QGNxRBHuPMGKCXEYfVoFRJ+jGlJL8meiZ5U9yQiKDCoy3E+5AEYKdkANKh41+8I0/FcN0re/5/h815fsUBftNNJ8aN8GVNx81vNsCeW3SyaPbvu1MelfdGHOLIfUI/nNCsQRp68ZVxS+uyUtxrV9IKXCafKK7Z5Gnx9iQ4jPRdlte8TtZb0oaBas4H5m6re11iiTHrXSNM/fciTZRFC8pKjHqi5tlvT3b5PArUnOnTcnXtGJeCfZYw8CwblkjxKimD1tnXrYLpufgs9DMFKaqk08fi5EatGA1j+4YWFjh9HxQnqPaxu/HeRq98JljxMEUFzJHEfgTQ0Vo32GquusfJkCkQnwEwv/X1LPGY8cj88aYQERB2NYIynWYWUSxyO9X+UC1sHMS2NBWaRUKhKTnSdnSykkD2xkzpNShvHB6/XPf5t/9MfGngYWUqS9HKlLVRZ7uEz09cyS/SPyRxfaMLf+pnFLApwLFvntalj1G/C+++4n3hLPi2g0wZk8NYYSkobinvPJwR58U/1pvz/ktfSbjQ9iipItOGoqkSwxJCN05dElYqItdIF31Hmz5ka6cE8rHwAGLKHkLB/YEaZbsWWgo+BPKB5GTlLnuOrZ5+TqnQVuJFjkw/nyfG3ak4CxDCG7m+Gdtec/a86HVGhh5GIeYMtdIHir+wpEH2oLAabwMuPmFM2+Zq+cN1zB0j5exlxk7ElUeVKJ6Vez0sQOy25AeztE2TETCRQ86F/r+5OqSDHNdPJ+4KLvlnTQoIMBZf3B1wo2yUXsYvoOzXrKlX2uWHDpGqtNOJOb4jz1HKvnoHcXVFbzbo5395/bG5n52McYjr4/53SUSHs3cVbztqkKng13xrueGO/z2/dGr0dSi+iTGIjKNzeHXSEVPPgyeQrNyaTEZuZiKHOPm0qJSylyp9G/jB604U8khjWnh1sLwg5hKnglr6LFn4jn7d176WlkqpcKXA2zfX2qvf6G9HrTVxXK3Oov3KRt7clFVVtEWDHEfvr34L+flmyrRc6/oOPTklm++l875degmRsaj1WsV49FdNxZeeG3H/OObDznAOmu3eM3cvF6i3vLo1xF4QKs1Lpwzj0mieGFA8zUCYaFNHohAYjKX06L+4xctoK3azsQSmgXDiBT+Z3AavhzAWfc4C+91FPaGGJkMrOlQhIC5HnyytyFIAurpJZxiszJbthOB69jD7b8/zQkuw735aNNOtaKMy8/jftxI9KCfr/btMV389oe4dMzvf+bdb0/L3Y+MxJHRTIv195FnEi8oLH69t2e9NMS+8YbiNaRlhkEgMQK69/jmlRscSxP3zjxL8h7t7T3G02OYkqIiOeHLQVWZT7/2HXWo7oYwcNx4ecHPD7YtWETY6r1PvLU7+0Z2eLTwIMtNd3ZWlnPdPf6xpM/H2G2h09hhukIPOv2Pw8pZeKRmhg035xPDPkXgxUUlZzcT0yF6UAQSYK5HTmpsc3F/fSOxzcdOcXef7u7CJoYG1thjdak170VbHm5yFP0rb+7avE2+/ZrC31zY3tahtnX0SQF4tL2OxaOrb+0qKvCPxAsK2Oa1Ka0Uy1GgEqr2orwCWG+ZivmBafFoocN5jDN/aW9cSsOBOdCQ4YRAvMwFr1vdXu5PL5fH2fjZkvdwr2uxu6tKJSJJC8e/bHOCsz6x9JNf4swte6KBjzq61IYmtbyUEFNJETd5vPDFt4S8jEfQzZeXwsWYAjlr2mS4aVX23xNSGP2xRevDPI67VFdjRRFNjUfEvMvVI5FZKXqMaATiYq4HTmjyyOz5S2PT1t6EsHpxTg2YDn4lWh+1F+SWTVakNwIThU/cWSxicQXHXHET8dQxf3+roecyH/E8+5e/d2KYecFVnff/owiWfvc81gs6A5F98Xr5L3/TBnktUv4jNhx8VMbHtexjtCAg8k3t2TJNNmK7bMgbHtsS9aETm2SVOeeFiih1/bkm/7Sn41Cvy1RjNXD8cqtzmc2Z/W6Uo7QriUdRbA4fvLXo2tu7IY4lkW0uJokCRXBz5trsz1SOSqiBR9fXfufLJU/qcUKREAi5GDmNOESTuRyihmWJdZ38ha+EkbbKVGWBz7XA6/6Z11Wg+8nCsZ0XVlidy62O90fAYp2EXp0pE4Xl73hHDm3FD44xTow/PmJC7DqtKUkLxoQKopGzFoGIzFWZr0Al//l26zVv9lPJG9vqwKzB3FYHbVtrsa0QbW9anV8OL7czaey2jVtknGnMcHhk9Zv8wr2ttiiK+YHNROQD7Y6T8gqe6UmDa82B+dOQnEAgPHNNKZMgbb24xnn7e35D+fGKdKDPA7Y6yttrmGKheW9ZHass9lVWR50jL/V1i1mIF9RYj/5fcW29f3y3+Ny2bXVJjvVg+TVvH8vF1/s3+Ahu7LLHSyvLeMP6dNWHXq9P29mgPPKsf11BWFii5IZtdP9wRt4Jv7AJPNveoZ64pE2StPrV1Ws3wIUAs+I97+33dUPBjZA1P0owWHtumfueITIfq+SFEIv5sI0NCQxY1RNVfQ8UivQYkQiEYa58q/rQosZHv8xf+ZHjJKl7rs/7E8k9JWixvmGK9brV2QZNtX4MK/9+/d+DT77ynfyHQV/8/LtL2lev9ZuqXnFBSi5eLz4nDyb7R5za2uvSRleRhUoCz+B68PEtosD83/VFF5+Tf9u93Qg5ZFELJhbeeLLsux+kDz8fAgtPDPrsyVogl/I8kl/b1m87rxH5Ex6hjQ5lrlJVeX63euER5tztnX9X+mZwOlkOhIUTCqzcNcVKsZNBAes+qHx6qXtUJX/OZe2nHOc45RgH3NF88Jnvlru7Vz1b9vk3vqoK0elwQjpDWTdcVgjDCND7nf/pwZ9zZopP3V0ybjR/1T+63vk4toL5iAW2y84lSzhBK7AUO3S+9eoLCzo61X89GC23Jb92HnRsC2gLCUPUapLM/POBnucfKAFzGVAg2pff+SaMETLPXD+1O07IS4mjT88vhAOcL7xp204ixdeDJs8kAoS5JioSLEX3lLx7SR5iMvqGvwIwwvpctH0uWj+z2L4Qc9sOK2lM954lvvII0fRd+rfOmq1ynpO746GeljayoPr0ExyHLW4Fc73wYMm+cyyQX+57HEuFhEf+5Zw7x4IVP1g7fcyZhP0xgvvlz+2w7TrzovZ9Zln++qf8EOb65zWFPS7t6zXStbf36W4++9q38FetqqJ99nrFA4/3HrSfdfk7nhvv6Ibo9IuF4XODTZlFZA3COvYwO+Sv55e579J50zha29TS4r7Fqlg9jmwfeirayDRp6KInDLaYr5PldT7fAkfsjeZWuV3AdZTg/+JeUlR6UmO0jRSi14E+zV0EhB+at1XoxqLm8Y7VvsrigDXDuhHmZCZsL375rWSOFiFzQXME2kLMOTNEu53957XEPZmqMfn6zhcYguHa2q4WFnDYsPr1t/3igLEjN9LiaWOLUlgQanF50XWd5mjRrEaekwXHgfXAgMVF3K339ODP5U+WXnIdYbewuXV2kyLKSjhU8qU33KOquGCewiNMcYJAcWOzsu+9WOb1Mv+4u3vt+rjWVJoVS8uNW9N2yNKbrt433a7PPW54E1zgGBcz5xvbW7ZI0n42+2EO50K7U4p/05uYWdMIOYWAANpq5PivRVv5TNk5TTvjs8qanlxdl5NJ5H/cJEF+ueCqDuiIQS7gphv+3K/8dZvk/feyvLyCkJfVGkpVUaoqy1pxIRGL7rmp6NrbumGgv/Q/pVCly4oGuW/xsY4/n5u39I3wQySo3p96yf33ywvO+2unz+fPxyzLYWehRHv8eSJhYUJg/nFDqSQ6oaGfrAQ+gr8mIeo2eYiAaKj8px43zmuZoax/lB6kjzKAgLBn2bg6UXjwxMadjHDWc5WGdJCBgnO9CMhir7/jgXobEtYPG6S//V/o+p57H+uFRIYImNp75DlX/JNgy97yPnR70Udf+Ja/7cES7g2b5e118ry5VgxIjz/SLorM7ff1CEJEKrzmtq6rL8r/4MUy6LDcXu3v/yYVgwX/By+VoybPveZ++OneAX7Ms6I3amRpmhjNlyQiZEVFaSWyAAF29ynjHjyxaU2D5fJlybvcSqNpbBZgklIVKBQmfIlCcXd55RFBTpwHdsPrrp5zm4fYn+fAWsUTkigU8eSZi3HSiAP38m/qV210pEJbuYggrXMWIrBZHwlGOWJGiJKWPhpmCAh3fFD0xNcpTU4PM0Roc4YKgZpYzBUzwlDVnJabeQQ4SlsxQT/spzYojm+/uhCW68GRdT+CoUa4R//cgpgx8zQiYKYPZ5yRh320mlj+TmNGGPYQ0QaaCCTsh36kYTdjmrjvHDGsP6ir/9G18v0+g1LMMMLUIH58wIY12+RrLsq3WBJIFX/+ORczpkgVM0LONZlWOGkEKHPFgO5Pv3Oa9LT4OPuz95e89UwZVtXAgHPN25UL5lnhch6WqM8/WPLJq+WHH0LsdQ1b+Q+Xlv/0J0Qiw5zga4+VvvRwKTbjgLUq1kK++XQZTE+vuagAE46btylHLRyhVr4h0Ls0FSapkfoDjxAh0lMaPtIQoMwVo8cXHGiDZGREgpnCoiVtr73lAYW9/6kXJ8KXnOrEMmls7AqP9XkOIj3B1POUc9suvKbzT2flwXj1vluKzrms49jftq7bJCEyIlgsDJZeG+bym7bJCw8MHXLGqNPwfRxlPBjl0fDFg7YsIgJUyRIRGjzA6K8gj3W5/b6D2zrIDTZDxNIfMxlMOmGzjj+x8gZeJcrL+GDr9rGjhYJ89vLzyBxIfh77/ToyfQZ3N+bwE5lDaotWiZH0DBZbB0VoLzXmigDMCA2mzBWt48FKYBbwV3dPRMfnWPSHPWJvvaoQiwqxGnHRL/vZUmIJYVe3ButQGKwapvYYLQYXabeyrfqqIHoAgSiCVZRHFLoRiABlrhidDi838O7Q3BqRXHafLmId4uTxfFmJ7YcNoWoaLMHBsPHJu0q6elSQ4NmXdoSUN3Y0/8mXQ+BhJkazh+hxFB18lEdDVFla7FAiENsPfTy1S6NpbDzFZTIOtOxYO204lglbLhYDYm0NRKrjjrBD137O5a6EnCw+/u/i867sNFZKh80/dwOTeCsqeP6zMRPCNnnf2q1NSpJuHcNmmMnAJKDIZPUyVlYacRCQV+r1TksmqVdjMHL4+Ctm1ym8zWYNaxiBEmfPFK67xAEjSkT4+52uhKCYPoV/+H+SxyemoxMGo/Up5ZkQFEZJ8BiLfZMKAx4rzeIR2CkI1oBzm5SqNRSJk4BiKKo56GWmEQcqc6W5t9L4VUlzzTKeXXJQPF81ei9rqJnIV15PiG+JjLcmpQKTgyKlIrMycRpxoLNaWdnDI7hSYfVZYQNHMEi06QxlLvoSZBcCm8OtAQobmF31prXJLAKUuTKLNy0tFgJhxauwgbFyos+HMwKUuYZz7+Zi22rkMDYiYQNzsXW0zulCgDJXupCk+aQHAfhrlvrP4+JPw4lzegqguQwLBChzDYtuHF6N2Nzfa3PIn8OrrbQ1SSJAmStJ4GiywUMgZKEPXfczeFDnbs6UuXK374ZtzUP08VQ9P2x7OoWGUeZKATyadHAQoDLX4OA6rHKlzDWsunN4NCZkpwy6ccbw6Nb0toIyV3rxpLmlAQE6WkwDiMM9C8pcw72Hc7B98NpcG3DrjBvqxDkH+3DQq0yZa9AhpgUkgYCp6qITi0mgNxKSUOYaCb2ce200dVtUyZV7nZeRGlPmygjMtJAEETCX+9B1PwkiN1KiU+YaKT2dW+00lfTUmCu3Oi5jtaXMlTGoaUEJIED1XAmANSKj0h00RmS3Z32jmxWlG/voMgxusr6ytIJDgABlriEAnRYZDwJ77NgSTzQaZ2QiQEeLI7PfaaspArmNAGWu3O4/WnuKwMhEgDLXyOx32mqKQG4jQJkrt/uP1p4iMDIRoMw1MvudtpoikNsIUObK7f6jtacIjEwEKHONzH6nraYI5DYClLlyu/9o7SkCIxMBylwjs99pqykCuY0AZa7c7j9ae4rAyESAMtfI7HfaaopAbiPAsWxuN4DWniJAERiBCAgrljRomqZojKqyisbKKiPjRmVwHxYOLODHU8RRtb7nLMf7ZFXPgVEUTTFuECcQBdutBwIZLULOYYuLGYhSzeLMTd1RLqkMaQVpCG6Mupl1JvXRw81aGTdG2yWFNMTfnP4t7Uuo+YFCEj9ikUGL2QoagSJAEUgIAeG0ldNZVuNZhtOvPIerhmukYSSiCRyDOLgxSxJFUVUkkpCE+58iN1OgCyoirbzFoNoMx/vrbxaHuiFcYDULqqSpJA5pFMMy/jojJmms3gqeUfXmq4hgtF3AnwgkUJCEwWIpYOEC4YiMIgKp/AAisqRoIZ+BALXpzK7TegiTBveZpoah/n4Rgj4Dwd8JFC1w6B2N4yL1XkLvRqqReYFX5FAfNWG/NCgJHxsgIynke+BTWJ+Ma+AjqiMW86NiVjf466Im8rrp39e+T5rxFQ/+QqeKCE2fPgSEFikPufnlK3CN/tsOL24FSjV+ycFxrBaL1+cjaUkO/iMkk8DvP5FXKe52krL6l2f8pYeHb5E/QiCVv+H6n0Fp8VeYCvsTBRobnNZmEWXJRzjR4EH9M6BzukFtIcweJLgG4eb/AHBhiibVC85N6PtOIC/8+GWNNWXPuPEblIgCK8isHJI1G1RhNMR8CkjBuVZWExlF5DSRJxQsMErfhxB/GmAy+vdG/zgF52BmRb4u+jeYfHUSaRnnz9n/cTI6Dp2rf2z8Xx1QocFu4GSDT4OpDeMJP/fh44QIgcEHwwleSSHkS0YkBjnqQwFjQKAxIGuvzHlkViJjBX9ZoE6EYwRgXHXuJqMisw79iw5wbta8AAOxt1qtAwMTDSFCCV4Gn8+XaMqB8QG3zycNDB8xIX0/EIuFk3y6yOPnNf3H08dxxhODHaP9rkxyDIthH7f6M++jgPQOxsOWHmegxSKGfysCH8jgfPwt0v/DBZTU18Z+6PWJwH2gD6jQwI/rgCiRAkL7K3hEoovbfR+hgYMPlGtQrf/bYwj1LGOx8AwGJRwZB+i0CyrTRza64I9AO6NaBdXCqSKr+D9yemQwuMiqoHKBDCwIm/Og14DUj+TmgVvkb2QO/Y+uxCAcZ0YIEkX7qXrCAkGaiQroNUzjgdEAhO4kMvR/wPSG4+UA6VPPgknAGCOJn0U0Y2iq93wY0QqhaX0pYlRqCB7LRPsZOlocgnqkXKS/n4I/ReTnQ/Id2IUkhPwLYl4GzGWRJCIiGE9DRjbICuEI7MszSJw3npK0fSX66TW4ZWZNcGPoRnT2DJJqdZb0K0BiYWIM3iFppnewDLWSJCUj4hBhFmKsfsU9WkWZK1Yf0ucjHoEwnyJCTdFx6cdpqsL55IwqHwMUGVLJaGJ+aFTyd79WRG9wPE/B4MkN8gjYOuAm6pS54gGcxqEI5BgCxk99ALummYkSBQUSXLqEuIx+BxJtJ41PEaAIUATCIkCZKywsNDBtCMzj+P+KNiO7ORz/jGjH/dm8+IbF8bbFcTQXKvUXMeyNQpgZqKWifTIb7XVdwAkvW+wrLY4VFsdueswXRPu7FsfrFse/RVuZriVCyDsWx3KL42bBSupBj5xFINqrkLONohXPagScDHueYDnK51rgc61QQ80mFvHC8byIOAm1YT+Ov0qwnC95F/pcp0juGs0/gXWB5DnC5/pUVe4R/Oz5R8lzpM/FM8zvBUtCRdDIWYUAZa6s6o4RURkvo0kacwjsAhjG07/FoKvFvLhOVX7J+2UxCGUQmp6EwMVx4J5PLc4CndRuEKzHBuLgz9/y4r8V33adsFo1zds/26cUaQLLjQmIbIj0kaqMg7kxPXIWAdp5Odt1OVtxSFmnSm4w1KsWx/T+A8D5HN+uaXcq0kn6KHIcy/1JsCzyuRdL7h2aBpp7QZWO4wVIZPty/KtKn7w2luVqdEOhiSy3zOJ4ODA+NUFqY7SSwB9gwKN4YbU2HCw2cvYtSLXilLlSRZCmj44ABKuAcRIRlozZrh819TTJ/R/Fd2t/ijmNF59X5fdUeSLHTWG52Sz3jar26Il8+sqARxXpRF48nheeUaTgcWajphki1RZN/YvkKe0/2MSwcCzL7tDzuVO0vWhxbNTUJ5RkDIuiN5Y+zRgCofrRjBVMCxohCEBWmsFyxSwLYWoey4NZ0PBSlsWYDlKSDQqnwDGaZQ/gBAhCUFp1aNpJvLhMlXfnOJFhwDG8rmJv0rR1qvo7Xjzc5w4GEEQG6exLSQGFFRkmm0GPLxIsH6oKKoCw8yXPdwEtWHAO9D63EKDMlVv9eJnR/gAAAwBJREFUlXu1he7pfsX3omiHCTlo5RLZA7J6WLA5WNbNaH+R+1RSp/Lic4r0Vz1kKss9Ldpvlr0rVRlTgZs1dXRAjHpI8TUwQm9/S9DXVblUYaEOgyAGavxfQJ66V7R1MMw3qnKpFKL7yj0kaY2DEWCLZ+2fOiJJm8amXnS25UChMHuEQkGhCPl5pvGVoHqubKM+Wh+KAEUgNgKUuWJjRGNQBCgC2YYAZa5s65HhVp9gG/rh1jbanqFDgDLX0GFPS6YIUASSRYAyV7LI0XRJIYDVglhF+IRof160z+V4nE/pKxlhQfpnfTnOPhz/gGirZNlHRDumF/8n2ndhiVnqd1bnVYL1HtFGp8OTAn64JaKvwXDr0Sxvz295S4OmXiD7xrPco6LtYJ+rWmDLWfYMXjyUE+5ipBM54XlF/ptghYUE7LlgK3+dYD1dcsNu/h7FByuwLG8grV5mEKDMlRmcaSl+BKZy3HJ91c42Ta1gWdh2LVXkkzlxFsvdrfhgQw8z1CtkL5jLy5O1jRgUeHTTLdimUtqir5GJAGUu+jJkFIGNqjoD5KUSW1PslweL+RdUGb5oYJL6iiK9Z3HCphTEtl5TIXO9D1+i+oKhIEv7jNaWFpa1CFDmytquGT4Vw4gPbrPQnh5NO1Xy3C5aHxft+Pti3Vy+VlOXKfJL+jrEJxXpLd3vzZWyFy60lmDfCYa5VvYaTiCGDyK0JSkjQG3oU4awfwZptBJOc80ynh2FwoScQmFAkUYc6Nxixn/QtECKAEUgZQQoc6UMIc2AIkARyDgClLkyDjktkCJAEUgZAcpcKUNIM6AIUAQyjgBlroxDTgukCFAEUkaAMlfKENIMKAIUgYwjQJkr45DTAikCFIGUEaDMlTKENAOKAEUg4whQ5so45LRAigBFIGUEKHOlDCHNgCJAEcg4ApS5Mg45LZAiQBFIGQEBK4lSzoSxpiOT1KuRDTlQKMxeoFBQKEJ+kml8JQSfD/vgpeFIVz5pqMpQZ0GhMHuAQkGhCPk5puuV+H95048nD49rUQAAAABJRU5ErkJggg==;" vertex="1" parent="1">
          <mxGeometry x="778.5" y="260" width="293" height="283.55" as="geometry" />
        </mxCell>
        <mxCell id="tT-KymRBnLhKgLXHdaY--5" value="Enter the position" style="rounded=1;whiteSpace=wrap;html=1;" vertex="1" parent="1">
          <mxGeometry x="1230" y="110" width="160" height="60" as="geometry" />
        </mxCell>
        <mxCell id="tT-KymRBnLhKgLXHdaY--8" value="&lt;b&gt;Notes: the context at this time is that the Euro GDP report and US GDP report occurred at the same day&lt;/b&gt;" style="text;html=1;align=center;verticalAlign=middle;whiteSpace=wrap;rounded=0;" vertex="1" parent="1">
          <mxGeometry x="100" y="590" width="670" height="30" as="geometry" />
        </mxCell>
        <mxCell id="tT-KymRBnLhKgLXHdaY--13" value="&lt;b&gt;Remember: Next event will occur again at 30th Jan 2025, with the same situation&lt;/b&gt;" style="text;html=1;align=center;verticalAlign=middle;whiteSpace=wrap;rounded=0;" vertex="1" parent="1">
          <mxGeometry x="320" y="660" width="510" height="30" as="geometry" />
        </mxCell>
      </root>
    </mxGraphModel>
  </diagram>
  <diagram id="bavrDa56aEocL4vNCp4q" name="CH CPI MoM">
    <mxGraphModel dx="1674" dy="792" grid="1" gridSize="10" guides="1" tooltips="1" connect="1" arrows="1" fold="1" page="1" pageScale="1" pageWidth="1700" pageHeight="1100" math="0" shadow="0">
      <root>
        <mxCell id="0" />
        <mxCell id="1" parent="0" />
        <mxCell id="paRDZBriTAnP9PtHeXCM-1" value="&lt;b&gt;Trading the CH CPI by using USDCHF&lt;/b&gt;" style="text;html=1;align=center;verticalAlign=middle;whiteSpace=wrap;rounded=0;" vertex="1" parent="1">
          <mxGeometry x="50" y="40" width="220" height="30" as="geometry" />
        </mxCell>
      </root>
    </mxGraphModel>
  </diagram>
</mxfile>
